<svg width="18" height="18" viewBox="0 0 18 18" fill="none" xmlns="http://www.w3.org/2000/svg">
<path d="M7.32715 5.679e-05C7.21564 -0.00137131 7.10544 0.0241542 7.00592 0.0744619C6.9064 0.12477 6.82051 0.198371 6.75554 0.289005C6.69058 0.379639 6.64846 0.484624 6.63278 0.595029C6.6171 0.705435 6.62833 0.817993 6.66549 0.923131H4.62283C3.77175 0.923131 2.98245 1.346 2.51076 2.05354L1.41821 3.69235H1.32717C1.23543 3.69106 1.14435 3.708 1.05921 3.74221C0.974082 3.77642 0.896599 3.82721 0.831266 3.89163C0.765933 3.95604 0.714055 4.0328 0.678645 4.11744C0.643235 4.20208 0.625 4.29291 0.625 4.38466C0.625 4.47641 0.643235 4.56724 0.678645 4.65188C0.714055 4.73652 0.765933 4.81328 0.831266 4.87769C0.896599 4.94211 0.974082 4.99289 1.05921 5.0271C1.14435 5.06131 1.23543 5.07826 1.32717 5.07696H16.5579C16.6496 5.07826 16.7407 5.06131 16.8258 5.0271C16.911 4.99289 16.9885 4.94211 17.0538 4.87769C17.1191 4.81328 17.171 4.73652 17.2064 4.65188C17.2418 4.56724 17.2601 4.47641 17.2601 4.38466C17.2601 4.29291 17.2418 4.20208 17.2064 4.11744C17.171 4.0328 17.1191 3.95604 17.0538 3.89163C16.9885 3.82721 16.911 3.77642 16.8258 3.74221C16.7407 3.708 16.6496 3.69106 16.5579 3.69235H16.4668L15.3743 2.05354C14.9026 1.346 14.1128 0.923131 13.2622 0.923131H11.2196C11.2567 0.817993 11.2679 0.705435 11.2523 0.595029C11.2366 0.484624 11.1945 0.379639 11.1295 0.289005C11.0645 0.198371 10.9787 0.12477 10.8791 0.0744619C10.7796 0.0241542 10.6694 -0.00137131 10.5579 5.679e-05H7.32715ZM2.00685 6.46158L3.00024 15.732C3.1387 17.0252 4.22366 18 5.52427 18H12.3608C13.6609 18 14.7459 17.0252 14.8848 15.732L15.8782 6.46158H2.00685Z" fill="#EB5757"/>
</svg>
