<svg width="19" height="18" viewBox="0 0 19 18" fill="none" xmlns="http://www.w3.org/2000/svg">
<path d="M16.6318 5.36884e-08C16.0575 0.000125054 15.4836 0.218524 15.0469 0.655273L9.03906 6.66309C8.88356 6.81759 8.77046 7.01068 8.70996 7.22168L7.9043 10.042C7.8298 10.304 7.90173 10.5858 8.09473 10.7783C8.23723 10.9208 8.429 10.998 8.625 10.998C8.694 10.998 8.76305 10.9892 8.83105 10.9697L11.6523 10.1631C11.8643 10.1026 12.058 9.98896 12.21 9.83496L18.2178 3.82715C18.6418 3.40315 18.875 2.84021 18.875 2.24121C18.875 1.64221 18.6418 1.07877 18.2178 0.655273C17.7805 0.218024 17.2062 -0.000124946 16.6318 5.36884e-08ZM4.125 2.49902C2.335 2.49902 0.875 3.95902 0.875 5.74902V14.249C0.875 16.039 2.335 17.499 4.125 17.499H8.875H14.625C16.415 17.499 17.875 16.039 17.875 14.249V5.74902C17.875 5.69402 17.8751 5.63887 17.8701 5.58887L12.9199 10.5391C12.6499 10.8141 12.3048 11.019 11.9248 11.124L9.10547 11.9287C8.95047 11.9737 8.79 11.999 8.625 11.999C8.165 11.999 7.71465 11.8143 7.38965 11.4893C6.93965 11.0393 6.77043 10.3786 6.94043 9.76855L7.75 6.94434C7.855 6.56934 8.06008 6.2291 8.33008 5.9541L11.79 2.49902H4.125Z" fill="#6C68BB"/>
</svg>
