<svg width="19" height="18" viewBox="0 0 19 18" fill="none" xmlns="http://www.w3.org/2000/svg">
<path d="M15.5461 0C15.0731 0.000594635 14.6066 0.110145 14.1828 0.320151C13.759 0.530157 13.3893 0.834974 13.1024 1.21095C12.8154 1.58693 12.6189 2.02396 12.5282 2.48814C12.4374 2.95232 12.4548 3.43117 12.5791 3.88754L12.5245 3.91437L6.18524 7.08306L6.13065 7.10989C5.84319 6.74024 5.47521 6.44103 5.05469 6.23502C4.63418 6.02901 4.17221 5.92163 3.70395 5.92105C2.88736 5.92105 2.10422 6.24544 1.5268 6.82286C0.949388 7.40027 0.625 8.18341 0.625 9C0.625 9.81659 0.949388 10.5997 1.5268 11.1771C2.10422 11.7546 2.88736 12.0789 3.70395 12.0789C4.17253 12.0786 4.63485 11.9714 5.05571 11.7654C5.47657 11.5594 5.84485 11.26 6.1325 10.8901L6.18524 10.9169L12.5245 14.0856L12.5763 14.1115C12.4518 14.5682 12.4343 15.0474 12.5252 15.5119C12.616 15.9764 12.8127 16.4137 13.1 16.7899C13.3873 17.166 13.7574 17.4709 14.1816 17.6807C14.6058 17.8906 15.0727 17.9999 15.5461 18C16.3626 18 17.1458 17.6756 17.7232 17.0982C18.3006 16.5208 18.625 15.7376 18.625 14.9211C18.625 14.1045 18.3006 13.3213 17.7232 12.7439C17.1458 12.1665 16.3626 11.8421 15.5461 11.8421C15.1145 11.8427 14.6879 11.934 14.2939 12.1102C13.8999 12.2863 13.5473 12.5432 13.259 12.8644L13.1591 12.8145L6.82083 9.64577L6.72183 9.59673C6.79925 9.20296 6.79893 8.79785 6.72091 8.40419L6.82083 8.35424L13.1591 5.18555L13.2563 5.13651C13.5449 5.45786 13.898 5.71487 14.2925 5.89084C14.687 6.0668 15.1141 6.1578 15.5461 6.1579C16.3626 6.1579 17.1458 5.83351 17.7232 5.25609C18.3006 4.67868 18.625 3.89553 18.625 3.07895C18.625 2.26236 18.3006 1.47922 17.7232 0.901803C17.1458 0.324388 16.3626 0 15.5461 0Z" fill="#6C68BB"/>
</svg>
