<svg width="14" height="16" viewBox="0 0 14 16" fill="none" xmlns="http://www.w3.org/2000/svg">
<path d="M12.7811 5.81897C12.5111 5.37219 12.1755 4.81559 12.117 4.64018C11.2718 2.1057 9.25725 0.572339 6.70837 0.5V5.2961C7.36237 5.52849 7.83337 6.14618 7.83337 6.87931C7.83337 7.61244 7.36237 8.23051 6.70837 8.46252V8.75337C6.70837 9.37331 7.21312 9.87781 7.83337 9.87781H8.775C8.946 9.65142 9.21487 9.503 9.52087 9.503C10.0387 9.503 10.4584 9.92241 10.4584 10.44C10.4584 10.9576 10.0387 11.3771 9.52087 11.3771C9.21525 11.3771 8.94637 11.2286 8.775 11.0022H7.83337C6.5925 11.0022 5.58337 9.99363 5.58337 8.75337V8.46252C4.92937 8.23014 4.45837 7.61244 4.45837 6.87931C4.45837 6.14618 4.92937 5.52811 5.58337 5.2961V0.552848C2.45062 0.917541 0.333374 3.10495 0.333374 6.12969C0.333374 7.95765 0.850874 8.8572 1.3515 9.72714C1.95712 10.78 2.58337 11.8688 2.58337 14.9378C2.58337 15.2485 2.835 15.5 3.14587 15.5H9.14587C9.45675 15.5 9.70837 15.2485 9.70837 14.9378V13.4239C9.70837 13.3205 9.79237 13.2365 9.89587 13.2365C11.2399 13.2365 12.3334 12.1436 12.3334 10.8002V9.17054C13.8334 8.68066 13.8334 8.22939 13.8334 8.00375C13.8334 7.60345 13.5128 7.03074 12.7811 5.81897Z" fill="#6C68BB"/>
</svg>
