<svg width="14" height="15" viewBox="0 0 14 15" fill="none" xmlns="http://www.w3.org/2000/svg">
<path d="M7 0.764648C3.27805 0.764648 0.25 3.7927 0.25 7.51465C0.25 11.2366 3.27805 14.2646 7 14.2646C10.722 14.2646 13.75 11.2366 13.75 7.51465C13.75 3.7927 10.722 0.764648 7 0.764648ZM8.53934 9.72899C8.44045 9.82787 8.31085 9.87715 8.18125 9.87715C8.05165 9.87715 7.92205 9.82787 7.82316 9.72899L6.13566 8.04149C6.04082 7.94631 5.9875 7.81772 5.9875 7.6834V3.9709C5.9875 3.69111 6.21396 3.46465 6.49375 3.46465C6.77354 3.46465 7 3.69111 7 3.9709V7.47381L8.53934 9.01315C8.73678 9.21059 8.73678 9.53121 8.53934 9.72899Z" fill="#FFFFFF"/>
</svg>
