<svg width="12" height="12" viewBox="0 0 12 12" fill="none" xmlns="http://www.w3.org/2000/svg">
<path d="M11.3334 3.03704V2.59259C11.3334 1.53067 10.4694 0.666668 9.40743 0.666668H2.59261C1.53069 0.666668 0.666687 1.53067 0.666687 2.59259V3.03704H11.3334ZM0.666687 3.92593V9.40741C0.666687 10.4693 1.53069 11.3333 2.59261 11.3333H9.40743C10.4694 11.3333 11.3334 10.4693 11.3334 9.40741V3.92593H0.666687ZM6.00002 5.40741C6.32743 5.40741 6.59261 5.67259 6.59261 6C6.59261 6.32741 6.32743 6.59259 6.00002 6.59259C5.67261 6.59259 5.40743 6.32741 5.40743 6C5.40743 5.67259 5.67261 5.40741 6.00002 5.40741ZM3.33335 8.96296C3.00595 8.96296 2.74076 8.69778 2.74076 8.37037C2.74076 8.04296 3.00595 7.77778 3.33335 7.77778C3.66076 7.77778 3.92595 8.04296 3.92595 8.37037C3.92595 8.69778 3.66076 8.96296 3.33335 8.96296ZM3.33335 6.59259C3.00595 6.59259 2.74076 6.32741 2.74076 6C2.74076 5.67259 3.00595 5.40741 3.33335 5.40741C3.66076 5.40741 3.92595 5.67259 3.92595 6C3.92595 6.32741 3.66076 6.59259 3.33335 6.59259ZM6.00002 9.25926C5.50906 9.25926 5.11113 8.86133 5.11113 8.37037C5.11113 7.87941 5.50906 7.48148 6.00002 7.48148C6.49098 7.48148 6.88891 7.87941 6.88891 8.37037C6.88891 8.86133 6.49098 9.25926 6.00002 9.25926ZM8.66669 6.59259C8.33928 6.59259 8.07409 6.32741 8.07409 6C8.07409 5.67259 8.33928 5.40741 8.66669 5.40741C8.99409 5.40741 9.25928 5.67259 9.25928 6C9.25928 6.32741 8.99409 6.59259 8.66669 6.59259Z" fill="#1A1423"/>
</svg>
