<svg width="20" height="19" viewBox="0 0 20 19" fill="none" xmlns="http://www.w3.org/2000/svg">
<path d="M2.25 0.5C1.836 0.5 1.5 0.8355 1.5 1.25V2H0.75C0.336 2 0 2.336 0 2.75V18.25C0 18.664 0.336 19 0.75 19H19.25C19.664 19 20 18.664 20 18.25V2.75C20 2.336 19.664 2 19.25 2H18.5V1.25C18.5 0.8355 18.164 0.5 17.75 0.5H13C11.7725 0.5 10.6845 1.09577 10 2.00977C9.3155 1.09577 8.2275 0.5 7 0.5H2.25ZM3 2H7C8.2405 2 9.25 3.0095 9.25 4.25V15.25C9.25 15.6645 9.586 16 10 16C10.414 16 10.75 15.6645 10.75 15.25V4.25C10.75 3.0095 11.7595 2 13 2H17V16H13C11.787 16 10.692 16.5876 10 17.5156C9.308 16.5876 8.213 16 7 16H3V2ZM13.75 5C13.4848 5 13.2304 5.10536 13.0429 5.29289C12.8554 5.48043 12.75 5.73478 12.75 6C12.75 6.26522 12.8554 6.51957 13.0429 6.70711C13.2304 6.89464 13.4848 7 13.75 7C14.0152 7 14.2696 6.89464 14.4571 6.70711C14.6446 6.51957 14.75 6.26522 14.75 6C14.75 5.73478 14.6446 5.48043 14.4571 5.29289C14.2696 5.10536 14.0152 5 13.75 5ZM13.7383 7.98926C13.5395 7.99236 13.3502 8.07423 13.2117 8.21686C13.0733 8.3595 12.9971 8.55125 13 8.75V12.75C12.9986 12.8494 13.017 12.9481 13.054 13.0403C13.0911 13.1325 13.1461 13.2164 13.2159 13.2872C13.2857 13.358 13.3688 13.4142 13.4605 13.4526C13.5522 13.4909 13.6506 13.5107 13.75 13.5107C13.8494 13.5107 13.9478 13.4909 14.0395 13.4526C14.1312 13.4142 14.2143 13.358 14.2841 13.2872C14.3539 13.2164 14.4089 13.1325 14.446 13.0403C14.483 12.9481 14.5014 12.8494 14.5 12.75V8.75C14.5014 8.64962 14.4827 8.54997 14.4449 8.45695C14.4071 8.36394 14.3511 8.27946 14.28 8.20852C14.209 8.13758 14.1245 8.08161 14.0314 8.04395C13.9383 8.00629 13.8387 7.98769 13.7383 7.98926Z" fill="#6C68BB"/>
</svg>
