<svg width="25" height="25" viewBox="0 0 25 25" fill="none" xmlns="http://www.w3.org/2000/svg">
<path d="M12.0454 8.02656C12.307 8.28816 12.6497 8.41797 12.9923 8.41797C13.3349 8.41797 13.6775 8.28816 13.9391 8.02656L17.3048 4.66094C17.69 4.27574 17.4148 3.61797 16.8712 3.61797H14.1923V1.21797C14.1945 1.05895 14.1651 0.901079 14.1058 0.753517C14.0466 0.605955 13.9585 0.47165 13.8469 0.358406C13.7352 0.245163 13.6022 0.155239 13.4555 0.0938625C13.3087 0.032485 13.1513 0.000878334 12.9923 0.000878334C12.8332 0.000878334 12.6758 0.032485 12.5291 0.0938625C12.3824 0.155239 12.2493 0.245163 12.1377 0.358406C12.026 0.47165 11.938 0.605955 11.8787 0.753517C11.8194 0.901079 11.79 1.05895 11.7923 1.21797V3.61797H9.11337C8.56977 3.61797 8.29457 4.27574 8.67977 4.66094L12.0454 8.02656Z" fill="#079268"/>
<path d="M1.7 9.75C1.0376 9.75 0.5 10.2876 0.5 10.95V22.95C0.5 23.6124 1.0376 24.15 1.7 24.15H23.3C23.9624 24.15 24.5 23.6124 24.5 22.95V10.95C24.5 10.2876 23.9624 9.75 23.3 9.75H1.7ZM3.99453 12.15H21.0055C21.095 12.4024 21.2397 12.6316 21.4291 12.8209C21.6184 13.0103 21.8476 13.155 22.1 13.2445V20.6555C21.8476 20.745 21.6184 20.8897 21.4291 21.0791C21.2397 21.2684 21.095 21.4976 21.0055 21.75H3.99453C3.90499 21.4976 3.76028 21.2684 3.57093 21.0791C3.38158 20.8897 3.15237 20.745 2.9 20.6555V13.2445C3.15237 13.155 3.38158 13.0103 3.57093 12.8209C3.76028 12.6316 3.90499 12.4024 3.99453 12.15ZM12.5 13.35C11.5452 13.35 10.6295 13.7293 9.95442 14.4044C9.27928 15.0795 8.9 15.9952 8.9 16.95C8.9 17.9048 9.27928 18.8205 9.95442 19.4956C10.6295 20.1707 11.5452 20.55 12.5 20.55C13.4548 20.55 14.3705 20.1707 15.0456 19.4956C15.7207 18.8205 16.1 17.9048 16.1 16.95C16.1 15.9952 15.7207 15.0795 15.0456 14.4044C14.3705 13.7293 13.4548 13.35 12.5 13.35ZM6.5 15.75C5.8376 15.75 5.3 16.2864 5.3 16.95C5.3 17.6136 5.8376 18.15 6.5 18.15C7.1624 18.15 7.7 17.6136 7.7 16.95C7.7 16.2864 7.1624 15.75 6.5 15.75ZM18.5 15.75C17.8376 15.75 17.3 16.2864 17.3 16.95C17.3 17.6136 17.8376 18.15 18.5 18.15C19.1624 18.15 19.7 17.6136 19.7 16.95C19.7 16.2864 19.1624 15.75 18.5 15.75Z" fill="#079268"/>
</svg>
