<svg width="47" height="32" viewBox="0 0 47 32" fill="none" xmlns="http://www.w3.org/2000/svg">
<g clip-path="url(#clip0_5727_26154)">
<path fill-rule="evenodd" clip-rule="evenodd" d="M0.53717 15.9629C-0.0409876 20.9025 3.38284 28.054 14.0814 29.3212C21.1213 30.1523 28.3472 28.1084 32.1545 27.6863C33.2346 27.5669 34.0374 27.6496 34.4969 28.0092C35.1874 28.5594 35.1712 29.2478 34.5969 30.4838C34.0099 31.7449 34.7816 32.3119 36.1276 31.831C39.5777 30.5963 46.5753 24.1308 45.555 14.8078C44.5224 5.34856 35.994 -0.805273 23.0954 0.11413C9.97947 1.04652 1.46613 8.02147 0.53717 15.9629Z" fill="#6F2B90"/>
<path fill-rule="evenodd" clip-rule="evenodd" d="M39.3378 17.3701C39.3378 18.8203 38.1602 19.9992 36.7121 19.9992H31.1765C30.702 19.9992 30.319 19.6136 30.319 19.1388C30.319 18.6638 30.702 18.2795 31.1765 18.2795H36.7121C37.2125 18.2795 37.6202 17.8704 37.6202 17.3701C37.6202 16.8692 37.2125 16.4613 36.7121 16.4613H32.7087C31.2592 16.4613 30.083 15.2824 30.083 13.8315C30.083 12.3832 31.2592 11.2042 32.7087 11.2042H38.2231C38.6977 11.2042 39.0831 11.588 39.0831 12.0623C39.0831 12.5378 38.6977 12.9228 38.2231 12.9228H32.7087C32.2069 12.9228 31.8005 13.33 31.8005 13.8315C31.8005 14.3331 32.2069 14.7415 32.7087 14.7415H36.7121C38.1602 14.7415 39.3378 15.9218 39.3378 17.3701ZM28.3739 11.2003C27.8983 11.2003 27.514 11.5839 27.514 12.0583V19.1388C27.514 19.6136 27.8983 19.9992 28.3739 19.9992C28.8485 19.9992 29.2315 19.6136 29.2315 19.1388V12.0583C29.2315 11.5839 28.8485 11.2003 28.3739 11.2003ZM23.5588 15.5912L26.4799 12.6674C26.8171 12.3307 26.8171 11.7861 26.4799 11.4504C26.1438 11.1155 25.6 11.1155 25.265 11.4504L22.343 14.3766L19.4208 11.4504C19.0858 11.1155 18.5423 11.1155 18.2073 11.4504C17.8711 11.7861 17.8711 12.3307 18.2073 12.6662L21.1296 15.5912L18.2073 18.5163C17.8711 18.8518 17.8711 19.3973 18.2073 19.7333C18.3741 19.9012 18.5941 19.9846 18.8127 19.9846C19.0327 19.9846 19.2527 19.9012 19.4208 19.7333L22.343 16.8071L25.265 19.7333C25.4345 19.9012 25.6544 19.9846 25.8744 19.9846C26.0918 19.9846 26.3118 19.9012 26.4811 19.7333C26.8171 19.3973 26.8171 18.8518 26.4811 18.5163L23.5588 15.5912ZM17.3053 18.7105C17.5401 19.1242 17.398 19.6473 16.9865 19.8833C16.8531 19.964 16.7048 19.9992 16.5602 19.9992C16.2637 19.9992 15.9733 19.8446 15.8139 19.5682L14.9478 18.059H10.0844L9.21684 19.5682C8.98214 19.9786 8.45578 20.1207 8.0443 19.8833C7.6329 19.6473 7.49197 19.1242 7.72798 18.7105L8.8301 16.7901L8.83514 16.7834L11.7722 11.6709C11.9229 11.4016 12.2096 11.2377 12.516 11.2377C12.8224 11.2377 13.1079 11.4016 13.2587 11.6709L16.1945 16.7798L16.2032 16.7937L17.3053 18.7105ZM13.9617 16.3386L12.516 13.8219L11.0703 16.3386H13.9617Z" fill="white"/>
</g>
<defs>
<clipPath id="clip0_5727_26154">
<rect width="46" height="32" fill="white" transform="translate(0.466309)"/>
</clipPath>
</defs>
</svg>
