<svg width="52" height="32" viewBox="0 0 52 32" fill="none" xmlns="http://www.w3.org/2000/svg">
<path fill-rule="evenodd" clip-rule="evenodd" d="M7.43341 27.4629C5.95746 27.4629 4.74987 27.0359 3.78379 26.1818L3.59595 26.0217V27.1159H0V10.1151H3.59595V16.4404L3.78379 16.2802C4.72303 15.4262 5.95746 14.9992 7.43341 14.9992C10.6805 14.9725 13.1494 17.6414 13.1494 21.2177C13.1494 22.9791 12.559 24.6072 11.4587 25.7548C10.3853 26.849 8.96303 27.4629 7.43341 27.4629ZM6.62835 17.9883C4.91088 17.9883 3.56911 19.4028 3.56911 21.2177C3.56911 23.0325 4.91088 24.447 6.62835 24.447C8.39948 24.447 9.63391 23.1126 9.63391 21.2177C9.63391 19.3228 8.39948 17.9883 6.62835 17.9883ZM30.5924 27.4629C29.3579 27.4629 28.4455 26.6889 28.4455 25.5947C28.4455 25.1143 28.6602 24.6339 29.0359 24.2869C29.4384 23.9133 29.9752 23.7264 30.5655 23.7264C31.7463 23.7264 32.7124 24.5538 32.7124 25.5947C32.7124 26.1018 32.4977 26.5822 32.0952 26.9291C31.7195 27.2761 31.1827 27.4629 30.5924 27.4629ZM38.5357 18.4954C38.5088 17.8015 38.482 17.0809 38.482 16.3603C38.482 13.7982 38.5625 11.1026 39.126 8.59383V8.56714C39.1529 8.48707 39.1529 8.38032 39.1797 8.27356C39.2065 8.11343 39.2334 7.95329 39.287 7.81985L39.3139 7.68641C39.3944 7.33945 39.4481 6.99249 39.5554 6.67223C39.9311 6.43203 40.2263 6.005 40.3336 5.55129C40.441 5.09758 40.3605 4.64387 40.0921 4.27022L40.0653 4.24354C39.6359 3.68307 39.0724 3.3628 38.4283 3.3628C38.321 3.3628 38.2136 3.3628 38.1063 3.38949C37.4086 3.46956 37.006 3.94996 36.7914 4.21685L36.684 4.35029C36.362 4.83069 36.201 5.39116 36.0936 5.81818L36.0668 5.92494C35.7984 6.80567 35.6106 7.6864 35.4764 8.59383C35.1544 10.5421 34.9397 12.5972 34.886 14.759C34.8592 16.2535 34.8592 17.8282 35.0202 19.4295C35.1276 20.7907 35.3422 22.5521 35.9863 24.1535C36.2546 24.9007 36.5498 25.5146 36.9524 26.0217C37.2207 26.3953 37.6232 26.8757 38.2405 27.1693H38.2673C38.7235 27.3828 39.1797 27.4896 39.6091 27.4896C40.924 27.4896 42.2389 26.5822 43.5002 24.7673C44.3858 23.5129 45.1103 22.1251 45.647 20.9508C45.6739 21.6447 45.7275 22.3386 45.7812 23.1393C46.1301 27.1159 46.5863 28.4771 46.5863 28.5304C46.8278 29.1977 47.1498 29.945 47.767 30.4787L47.7939 30.5054C48.1427 30.7723 48.5721 30.9324 49.0015 30.9324C49.4577 30.9324 49.9139 30.7456 50.2627 30.4254C50.6384 30.0517 50.7994 29.6781 50.7994 29.2244C50.7994 28.9041 50.6921 28.5838 50.5311 28.2369L50.0749 27.4362H50.048C49.9944 27.3828 49.6723 26.849 49.4577 23.8599C49.4308 23.5663 49.404 23.246 49.3772 22.9525C49.3235 22.3119 49.2698 21.6447 49.243 21.0042C49.1893 19.3228 49.1893 17.5346 49.2698 15.2127C49.2967 14.5988 49.3235 13.9316 49.3772 13.3178C49.404 12.9975 49.4308 12.6772 49.4308 12.3837L49.6187 10.9425C49.6723 10.7556 49.7529 10.5688 49.8065 10.3553C49.887 10.1151 49.9675 9.84821 50.048 9.60801C50.2896 8.91409 50.6384 7.84654 50.9336 6.77898C51.0141 6.51209 51.0946 6.27189 51.202 6.005V5.97831C51.3361 5.57798 51.4972 5.15096 51.6045 4.69725C51.9265 3.70976 52.2217 2.42869 51.7655 1.22769C51.5777 0.667223 51.1215 0.2402 50.5848 0.0800665C50.4237 0.0266887 50.2627 0 50.1017 0C49.6723 0 49.2161 0.160133 48.8673 0.453711C48.0086 1.17431 47.6597 2.1618 47.4718 2.96247C47.3645 3.33611 47.3108 3.70976 47.2303 4.03002C47.1767 4.21685 47.123 4.43036 47.0693 4.64387C47.0156 4.804 46.962 4.99083 46.9351 5.15096C46.5594 6.64554 46.2911 8.27356 46.0227 10.1151C45.9691 10.3019 45.8886 10.4887 45.808 10.7023L45.7275 10.9425C45.4324 11.7431 45.1372 12.5705 44.8151 13.3445L44.7883 13.4512C44.5736 14.0117 44.3589 14.5455 44.1443 15.1059C43.1245 17.8549 42.2121 19.8565 41.1655 21.618L41.1387 21.6447C40.9508 22.0183 40.7093 22.3653 40.4678 22.7123C40.0653 23.2727 39.7701 23.5129 39.6359 23.6197C39.6896 23.6464 38.6162 22.2319 38.5357 18.4954ZM20.4754 27.6764L15.5645 16.2535H19.402L22.3002 23.3795L25.3863 16.2535H29.2238L22.4344 32H18.5701L20.4754 27.6764Z" fill="#00BCF1"/>
</svg>
