<svg width="140" height="24" viewBox="0 0 140 24" fill="none" xmlns="http://www.w3.org/2000/svg">
<path fill-rule="evenodd" clip-rule="evenodd" d="M67.649 15.3249C67.649 18.1245 65.9046 20.0128 63.5006 20.0128C61.0966 20.0128 59.2825 18.212 59.2825 15.3249C59.2825 12.4379 61.0385 10.637 63.5006 10.637C65.9627 10.637 67.649 12.5253 67.649 15.3249ZM63.5007 6.68467C58.3423 6.6767 54.7289 10.3744 54.7359 15.3251C54.7429 20.2757 58.2837 24.002 63.5007 24C68.7178 23.9979 72.1835 20.2199 72.1838 15.3251C72.1842 10.4302 68.6592 6.69263 63.5007 6.68467Z" fill="#FF0025"/>
<path fill-rule="evenodd" clip-rule="evenodd" d="M22.4139 6.68467C19.9293 6.68001 18.062 7.45237 16.4597 8.99796C14.8574 10.5435 13.9515 12.6605 13.9551 15.5818C13.9587 18.5032 15.1877 20.7145 16.7824 22.0056C18.3772 23.2968 20.2831 24.0003 22.9666 24C25.6501 23.9996 27.7246 23.0235 28.7853 22.3597V18.4004C28.0493 19.0265 25.8013 20.252 23.5482 20.252C21.2952 20.252 18.9689 19.4975 18.3968 16.7003H29.801C29.8561 16.2611 29.9566 15.5997 29.9543 14.9051C29.9467 12.6463 29.4589 11.1468 28.3044 9.54098C27.1499 7.93514 24.8985 6.68931 22.4139 6.68467ZM22.1984 10.1237C23.2487 10.1237 23.9772 10.4566 24.5392 11.0483C25.1012 11.6401 25.4841 12.5224 25.5455 13.4712H18.4786C18.6718 12.6404 18.895 12.0441 19.5174 11.3159C20.1398 10.5876 21.1481 10.1237 22.1984 10.1237Z" fill="#FF0025"/>
<path fill-rule="evenodd" clip-rule="evenodd" d="M32.2369 1.89132e-05V20.8592C32.2369 23.0161 33.7697 24 35.2711 24C36.7725 24 37.7248 23.4987 37.7248 23.4987C37.7248 23.4987 36.8092 22.7554 36.8053 19.4519C36.8014 16.248 36.8049 4.20205 36.8053 2.77708C36.8056 1.35211 35.8989 1.89132e-05 34.2268 1.89132e-05H32.2369Z" fill="#FF0025"/>
<path fill-rule="evenodd" clip-rule="evenodd" d="M0 3.14043V5.49579H6.63613V20.8592C6.63613 23.0161 8.16892 24 9.67032 24C11.1717 24 12.124 23.4987 12.124 23.4987C12.124 23.4987 11.2084 22.7554 11.2045 19.4519C11.2006 16.248 11.2041 6.14517 11.2045 4.7202C11.2048 3.29523 9.54818 0.729489 6.82227 0.729497L2.60931 0.72951C1.22852 0.729514 0 1.85719 0 3.14043ZM9.74601 0.729497C9.65897 0.729497 9.58895 0.799706 9.58895 0.886974C9.58895 0.974241 9.67626 1.03898 9.74601 1.09117C10.035 1.30745 10.9358 1.94779 11.366 2.82387C11.7961 3.69994 11.8064 4.49499 12.0859 4.95425C12.3653 5.4135 12.8214 5.49579 13.3038 5.49579H16.7721C17.5385 5.49579 17.8397 4.97932 17.8397 4.36673V0.729497H9.74601Z" fill="#FF0025"/>
<path fill-rule="evenodd" clip-rule="evenodd" d="M39.8008 0V23.7259H44.3691C44.369 21.2639 44.3692 18.7978 44.3691 16.2246C45.3565 17.3687 48.0551 20.5494 48.3981 20.9489C49.6215 22.3739 50.499 23.7259 52.5003 23.7259H56.1541C56.1541 23.7259 51.7354 18.6062 51.3294 18.1333C50.2328 16.856 49.3949 15.6381 47.7918 15.3992V15.2331C49.1734 14.9186 49.9765 13.7562 50.973 12.5398C51.3604 12.0669 55.4963 6.9472 55.4963 6.9472H50.3227L44.3691 14.2322C44.3691 14.2322 44.3688 4.33196 44.3691 0H39.8008Z" fill="#FF0025"/>
<path fill-rule="evenodd" clip-rule="evenodd" d="M83.1449 6.68466C81.3239 6.68466 80.1227 7.49474 79.5801 8.12111C79.0374 8.74748 79.126 8.92005 78.9631 9.04015C78.6523 7.81475 77.8233 6.94947 76.4006 6.94947H74.4108V23.7259H78.9791V15.0637C78.9791 12.3466 80.2284 10.5893 81.9992 10.5945C83.7699 10.5996 84.7509 11.5046 84.7509 13.6043V23.7259H89.3192V15.1353C89.3192 12.6934 90.3045 10.5827 92.4093 10.5945C94.5141 10.6062 95.1842 11.99 95.1842 13.8028V23.7259H99.7177V12.5968C99.7177 10.6999 99.1583 9.29634 98.0152 8.24028C96.872 7.18422 95.6223 6.68466 93.5666 6.68466C91.5109 6.68466 90.0577 7.53784 88.9403 8.75487C88.7453 8.96726 88.5612 9.2545 88.3896 9.49348C88.1044 8.88519 87.6037 8.21906 87.1746 7.86106C86.0981 6.96293 84.9659 6.68466 83.1449 6.68466Z" fill="#FF0025"/>
<path fill-rule="evenodd" clip-rule="evenodd" d="M108.771 6.68467C106.007 6.6797 104.517 7.54582 103.678 8.28654C102.838 9.02727 102.072 9.96565 102.065 11.9966C102.059 14.0275 103.541 15.703 106.466 16.6042C109.392 17.5054 110.604 17.8162 110.595 18.8064C110.585 19.7966 109.856 20.427 107.8 20.427C105.743 20.427 103.664 19.5107 102.167 18.1553V22.313C103.286 23.1518 105.449 23.9997 108.032 24C110.615 24.0004 112.173 23.3667 113.071 22.6525C113.97 21.9382 115.003 20.8049 114.996 18.5397C114.988 16.2744 113.474 14.7842 111.167 13.9744C108.86 13.1647 106.7 12.8917 106.521 11.9458C106.343 10.9999 106.879 10.3597 108.579 10.2053C110.28 10.051 113.041 10.9296 113.977 11.8596V8.01311C113.104 7.50672 111.535 6.68965 108.771 6.68467Z" fill="#FF0025"/>
<path fill-rule="evenodd" clip-rule="evenodd" d="M124.689 6.68466C122.204 6.68001 120.337 7.45236 118.735 8.99795C117.133 10.5435 116.227 12.6605 116.23 15.5818C116.234 18.5032 117.463 20.7145 119.058 22.0056C120.652 23.2968 122.558 24.0003 125.242 24C127.925 23.9996 130 23.0235 131.06 22.3596V18.4004C130.324 19.0265 128.076 20.252 125.823 20.252C123.57 20.252 121.244 19.4975 120.672 16.7003H132.076C132.131 16.2611 132.232 15.5997 132.229 14.9051C132.222 12.6463 131.734 11.1468 130.58 9.54098C129.425 7.93513 127.174 6.68931 124.689 6.68466ZM124.474 10.1237C125.524 10.1237 126.252 10.4566 126.814 11.0483C127.376 11.6401 127.759 12.5224 127.821 13.4712H120.754C120.947 12.6404 121.17 12.0441 121.793 11.3159C122.415 10.5876 123.423 10.1237 124.474 10.1237Z" fill="#FF0025"/>
<path fill-rule="evenodd" clip-rule="evenodd" d="M134.512 1.89132e-05V20.8592C134.512 23.0161 136.045 24 137.546 24C139.048 24 140 23.4987 140 23.4987C140 23.4987 139.084 22.7554 139.08 19.4519C139.077 16.248 139.08 4.20205 139.08 2.77708C139.08 1.35211 138.174 1.89132e-05 136.502 1.89132e-05H134.512Z" fill="#FF0025"/>
</svg>
