<svg width="26" height="32" viewBox="0 0 26 32" fill="none" xmlns="http://www.w3.org/2000/svg">
<path d="M20.6048 28.4578C18.3772 30.1366 15.4184 31.0991 12.4892 31.0991C5.19069 31.0991 1.37285 27.0252 1.37285 23.0031C1.37285 20.6129 3.15746 18.1218 6.13346 18.1218C7.891 18.1218 10.6307 18.9883 10.2885 22.4074C10.2368 22.0628 9.78392 20.8418 8.45223 20.8418C7.71131 20.8418 7.08608 21.4548 7.08608 22.176C7.08608 22.4714 7.01715 22.5551 6.96054 22.5551C6.46823 22.5551 5.85531 21.8314 5.98085 20.6178C4.06823 22.7495 5.43192 24.2609 6.099 24.8788C6.24669 25.0191 6.47315 25.2283 6.47562 25.3022C6.47562 25.5114 5.92915 25.856 4.55315 25.7305C6.94823 28.5858 9.73962 27.8129 11.219 27.3994C11.5882 27.296 12.0288 27.1065 12.1445 27.2763C12.339 27.5422 11.8172 28.768 11.1132 29.4105C15.1476 28.8837 16.4744 26.5649 17.1439 25.3538C17.3679 24.9477 17.5648 24.5957 17.7248 24.5957C18.1458 24.5957 18.5199 26.3138 18.2368 27.6332C20.9125 25.1397 20.1421 22.464 19.7532 21.2677C19.6596 20.9748 19.5759 20.7212 19.5759 20.576C19.5759 20.3545 19.6473 20.2929 19.7999 20.2535C20.4695 20.2535 21.2498 20.4923 22.1827 20.9354C19.7064 15.1409 11.1427 15.936 9.06023 14.6511C10.6356 14.5674 12.6319 13.4129 14.3919 12.2806C15.0122 11.8794 15.4947 11.4782 15.8836 11.1582C16.2898 10.8209 16.6393 10.528 16.8288 10.528C17.3482 10.528 17.4221 12.0566 17.1538 12.9945C18.4559 12.1551 19.0688 10.8923 19.0688 9.70585C19.0688 8.52923 18.419 7.79569 17.9882 7.30831C17.8553 7.15815 17.6732 6.95385 17.6658 6.88246C17.6658 6.816 17.7175 6.73723 17.8135 6.66585C18.2615 6.336 19.1378 6.21292 20.051 6.42215C18.0424 3.84 15.5464 4.57354 14.1778 5.02154C13.7618 5.15692 13.1488 5.34892 13.1488 5.17908C13.1488 4.69169 13.7938 3.69477 14.9384 3.00062C12.5999 2.84308 9.39008 4.59815 7.07869 5.83385C5.18823 6.84554 3.411 7.79323 2.387 7.79323C1.75439 7.79323 1.53531 7.56431 1.53531 7.33292C1.53531 5.58031 7.73839 0.900923 14.2885 0.900923C16.7722 0.900923 18.803 1.51385 20.1593 2.67323C21.3359 3.68 21.9833 5.10031 21.9833 6.67323C21.9833 9.088 20.8412 10.7545 20.1568 11.7489C19.8073 12.2609 19.6128 12.544 19.6128 12.8418C19.6128 13.3095 20.0485 13.632 20.7722 14.1637C22.1901 15.2123 24.5655 16.9625 24.5655 20.5514C24.5655 24.6178 22.4116 27.0942 20.6048 28.4578ZM14.3328 0H14.2147C11.2313 0.0172308 7.86392 1.00677 4.96177 2.72246C2.33285 4.27569 0.634385 6.08492 0.634385 7.33292C0.634385 7.63077 0.750078 7.904 0.966693 8.12062C1.78885 8.94031 4.08054 8.92062 6.73408 8.92062C10.6775 8.92062 12.3045 9.13477 12.3045 9.76492C12.3045 10.5231 7.65469 12.3963 7.65469 14.0308C7.65469 15.9212 11.5562 16.2732 13.3236 16.5883C14.9901 16.8862 15.1575 17.7871 15.1575 18.4074C15.1575 19.5618 14.7316 20.5883 13.9587 21.2948C13.2252 21.9643 12.3193 22.3877 10.9925 22.3286C11.4135 19.2886 9.26208 17.2382 6.12854 17.2382C2.58639 17.2382 0.471924 20.1698 0.471924 23.0031C0.471924 27.4732 4.59992 32 12.4892 32C15.6104 32 18.7661 30.9711 21.1464 29.1766C23.1181 27.6898 25.4664 24.9871 25.4664 20.5514C25.4664 16.5071 22.7612 14.5108 21.3064 13.44C21.0159 13.2234 20.6615 12.9625 20.5384 12.8197C20.6048 12.6917 20.7648 12.4578 20.9002 12.2585C21.5944 11.2492 22.8842 9.36615 22.8842 6.67323C22.8842 3.60123 20.6442 0.0172308 14.3328 0ZM10.7612 23.1828C12.3193 23.2665 13.5968 22.8455 14.5667 21.9594C15.5144 21.0929 16.0584 19.7982 16.0584 18.4074C16.0584 17.6172 15.7802 17.0535 15.1648 16.5637C17.4738 17.0363 19.9501 18.2178 21.2252 20.0665C20.5605 19.8351 20.1495 19.7735 19.7162 19.7735C19.3839 19.7735 19.091 20.1378 19.091 20.576C19.091 20.7975 19.1796 21.0708 19.2904 21.4178C19.6399 22.4886 20.1987 24.2092 18.7488 26.3778C18.7784 25.4818 18.5495 24.7631 18.2615 24.4086C18.0621 24.16 17.8602 24.1083 17.7248 24.1083C17.2768 24.1083 17.043 24.5317 16.7181 25.12C16.1322 26.1785 15.1772 27.904 12.1642 28.7458C12.595 28.0911 12.7402 27.3846 12.5852 27.0006C12.5088 26.8135 12.3513 26.7003 12.1667 26.7003C12.1618 26.7003 12.1593 26.7003 12.1568 26.7003C11.8664 26.7126 11.507 26.8135 11.0885 26.9317C9.72977 27.3108 7.72608 27.872 5.65592 26.2055C6.07685 26.1711 6.44115 26.0431 6.68731 25.8314C6.86454 25.6788 6.963 25.4917 6.963 25.3022C6.963 25.0166 6.72669 24.8 6.42885 24.5243C5.83808 23.9754 5.05777 23.2517 5.683 21.7428C5.76669 22.0726 5.91685 22.368 6.131 22.6043C6.38208 22.8825 6.68485 23.04 6.96054 23.04C7.571 23.04 7.571 22.5206 7.571 22.176C7.571 21.7255 7.98454 21.3292 8.45223 21.3292C9.78392 21.3292 10.2885 23.2935 9.84546 24.3618C10.2885 24.0197 10.6307 23.5151 10.7612 23.1828ZM8.563 14.0308H8.55562C8.57285 13.5335 9.93162 12.6671 10.8325 12.0911C12.1568 11.2443 13.2055 10.5748 13.2055 9.76492C13.2055 9.43508 13.0775 9.13477 12.8387 8.896C11.9378 7.99754 9.40977 8.00738 6.73162 8.01969C5.75685 8.02215 4.72054 8.05415 3.73592 7.97046C4.74023 7.63569 5.96115 6.98338 7.30762 6.26215C9.28177 5.20862 11.4824 4.032 13.5476 3.56185C12.9987 4.10831 12.6393 4.768 12.6393 5.30708C12.6393 5.52615 12.7747 5.76 13.1513 5.76C13.4812 5.76 13.875 5.632 14.3279 5.48431C15.5267 5.09292 17.1242 4.57108 18.9212 5.89046C18.3082 5.888 17.8012 6.05785 17.5156 6.28185C17.2375 6.496 17.1808 6.72738 17.1808 6.88246C17.1808 7.13108 17.3655 7.34031 17.6239 7.63077C18.0301 8.08862 18.5839 8.71385 18.5839 9.70585C18.5839 10.5305 18.2368 11.3871 17.7372 11.9951C17.811 11.4609 17.7175 10.6658 17.3999 10.304C17.2498 10.1317 17.0528 10.0431 16.8288 10.0431C16.4645 10.0431 16.1101 10.3385 15.5735 10.784C15.1944 11.0966 14.7242 11.4855 14.1285 11.872C12.3612 13.0092 10.355 14.1711 8.88054 14.1711C8.79192 14.1711 8.563 14.1465 8.563 14.0308Z" fill="#1F1F1F"/>
</svg>
