<svg width="24" height="24" viewBox="0 0 24 24" fill="none" xmlns="http://www.w3.org/2000/svg">
<path fill-rule="evenodd" clip-rule="evenodd" d="M22.1545 9.15951e-07H1.84985C1.60707 -0.000204541 1.36661 0.0474257 1.14224 0.140172C0.91786 0.232918 0.713954 0.368961 0.542169 0.540532C0.370383 0.712102 0.234084 0.915837 0.141057 1.1401C0.0480295 1.36436 9.78708e-05 1.60475 0 1.84754V22.1501C0.00010407 22.6407 0.195032 23.1112 0.541925 23.4581C0.888817 23.805 1.35927 23.9999 1.84985 24H22.1522C22.3952 24.0001 22.6358 23.9524 22.8604 23.8594C23.0849 23.7665 23.2889 23.6302 23.4607 23.4584C23.6325 23.2866 23.7687 23.0826 23.8616 22.858C23.9545 22.6335 24.0023 22.3929 24.0021 22.1499V1.84526C24.002 1.60276 23.9542 1.36265 23.8613 1.13865C23.7684 0.914652 23.6323 0.711153 23.4607 0.539786C23.2891 0.36842 23.0854 0.232544 22.8613 0.139925C22.6372 0.0473063 22.397 -0.000240662 22.1545 9.15951e-07ZM9.55192 13.2083V9.66921C9.55192 9.55777 9.50765 9.4509 9.42885 9.3721C9.35005 9.29329 9.24318 9.24902 9.13173 9.24902H5.59272C5.48107 9.24899 5.37396 9.29318 5.29482 9.37193C5.21567 9.45068 5.17094 9.55757 5.17041 9.66921V13.2083C5.17098 13.3199 5.21573 13.4267 5.29487 13.5054C5.37401 13.5841 5.4811 13.6283 5.59272 13.6283H9.13173C9.24314 13.6283 9.34999 13.584 9.42878 13.5053C9.50758 13.4265 9.55187 13.3197 9.55192 13.2083ZM9.55222 18.6756V15.1386C9.55226 15.027 9.5081 14.9199 9.42939 14.8408C9.35068 14.7616 9.24384 14.7169 9.13222 14.7163H5.59321C5.48135 14.7168 5.37421 14.7614 5.29512 14.8405C5.21602 14.9196 5.17137 15.0268 5.1709 15.1386V18.6756C5.17147 18.7871 5.21619 18.8939 5.29529 18.9727C5.37439 19.0514 5.48143 19.0955 5.59301 19.0955H9.13203C9.24343 19.0955 9.35028 19.0513 9.42908 18.9725C9.50787 18.8938 9.55216 18.787 9.55222 18.6756ZM15.0187 15.1386V18.6756C15.0186 18.787 14.9743 18.8938 14.8955 18.9725C14.8168 19.0513 14.7099 19.0955 14.5985 19.0955H11.062C11.0066 19.0958 10.9518 19.0851 10.9006 19.0641C10.8494 19.0431 10.8029 19.0122 10.7637 18.9732C10.7244 18.9341 10.6933 18.8878 10.672 18.8367C10.6507 18.7856 10.6397 18.7309 10.6396 18.6756V15.1386C10.6397 15.0266 10.6843 14.9193 10.7634 14.8401C10.8426 14.7609 10.95 14.7164 11.062 14.7163H14.5987C14.7103 14.7169 14.8172 14.7616 14.8959 14.8408C14.9746 14.9199 15.0187 15.027 15.0187 15.1386Z" fill="white"/>
</svg>
