<svg width="41" height="32" viewBox="0 0 41 32" fill="none" xmlns="http://www.w3.org/2000/svg">
<g clip-path="url(#clip0_5727_26150)">
<path d="M24.4862 0.340779C24.8452 0.111352 25.284 -0.0866353 25.7151 0.0391246C26.0979 0.184428 26.2303 0.633086 26.221 1.00867C26.2227 5.69407 26.2218 10.3795 26.221 15.0649C30.6479 15.0649 35.0747 15.0623 39.5016 15.0657C39.8547 15.064 40.2799 15.183 40.4191 15.545C40.5651 15.975 40.3435 16.4126 40.1483 16.7873C38.989 18.9235 37.7779 21.0317 36.549 23.128C36.184 23.6149 35.7028 24.0686 35.096 24.2156C34.591 24.3371 34.0682 24.3329 33.553 24.3405C32.0839 24.3456 30.6156 24.3422 29.1465 24.3431C28.5074 24.3405 27.7885 24.3703 27.2844 24.8164C26.8651 25.2175 26.9169 25.8658 27.0807 26.3739C27.438 27.459 28.1195 28.3929 28.6237 29.4083C28.1043 29.0599 27.6018 28.6861 27.1223 28.285C25.6303 26.9637 24.2647 25.4962 23.1104 23.8681C19.6485 19.0646 17.8578 13.187 17.5319 7.30516C17.475 6.01527 18.002 4.60387 19.1546 3.92664C20.9326 2.73192 22.7099 1.5372 24.4862 0.340779Z" fill="#00C89F"/>
<path d="M0.519439 9.73565C0.702761 9.35072 1.16531 9.23176 1.55657 9.23855C4.24444 9.2394 6.93231 9.23855 9.62018 9.2394C10.0861 9.24875 10.5767 9.26745 10.9959 9.49517C11.4228 9.7263 11.7445 10.0993 12.0713 10.4486C13.0524 11.566 14.0309 12.6851 15.0112 13.8025C15.0672 13.8611 15.1674 13.9919 15.2454 13.8789C15.7852 13.2935 16.2962 12.6808 16.8325 12.0911C17.2807 14.9496 18.3848 17.6798 19.8777 20.1474C21.7797 23.2659 24.2791 26.0029 27.1223 28.2852C27.6018 28.6863 28.1043 29.0602 28.6237 29.4086C28.9479 29.7629 29.2577 30.1317 29.5692 30.4971C29.8034 30.769 29.963 31.1624 29.8161 31.5134C29.6557 31.8618 29.2458 32.0037 28.8859 31.9986C26.1709 32.0011 23.4559 31.9986 20.7417 32.0003C20.2859 32.0003 19.8081 31.9875 19.3923 31.7785C18.956 31.5525 18.6208 31.1828 18.2923 30.8259C17.3273 29.7255 16.3615 28.6251 15.3991 27.5222C15.3261 27.4347 15.2378 27.3624 15.1436 27.3004C14.1201 28.4475 13.1177 29.6142 12.0976 30.7648C11.7632 31.1369 11.4203 31.521 10.9756 31.764C10.5614 31.9816 10.0827 32.0003 9.62612 32.0003C6.90855 31.9986 4.19097 32.0011 1.47424 31.9994C1.08383 32.0105 0.619587 31.8439 0.496524 31.4369C0.377704 31.0214 0.629772 30.6356 0.896268 30.3433C3.71484 27.0982 6.53766 23.8564 9.37151 20.6249C6.53341 17.3526 3.66731 14.105 0.834312 10.8284C0.569513 10.5412 0.36752 10.1265 0.519439 9.73565Z" fill="#002CBA"/>
</g>
<defs>
<clipPath id="clip0_5727_26150">
<rect width="40" height="32" fill="white" transform="translate(0.466309)"/>
</clipPath>
</defs>
</svg>
