<svg width="143" height="24" viewBox="0 0 143 24" fill="none" xmlns="http://www.w3.org/2000/svg">
<g clip-path="url(#clip0_5727_26160)">
<path d="M48.3064 23.8604C45.7284 23.5924 44.0513 22.7013 43.3327 21.2178C43.0557 20.646 42.828 19.5518 42.8258 18.782C42.8194 16.5306 43.9296 14.9718 46.0934 14.194C47.3213 13.7526 48.4665 13.6161 50.9396 13.6161H53.1852V12.9824C53.1852 11.3418 51.966 10.3518 49.9655 10.368C48.8678 10.3769 48.1079 10.5759 46.7325 11.2146C45.4843 11.7943 45.179 11.8141 44.5758 11.3543C44.2044 11.0712 43.4628 9.66901 43.4083 9.14687C43.3806 8.88047 43.4489 8.80026 44.0689 8.3719C46.2794 6.84474 50.2175 6.1784 52.9179 6.87466C54.7347 7.34309 56.0867 8.37078 56.8128 9.83537C57.4766 11.1741 57.5033 11.4818 57.5073 17.8526L57.5108 23.4463L57.2844 23.5023C55.9035 23.8438 50.2978 24.0674 48.3064 23.8604ZM52.8709 20.3894L53.1852 20.3265V18.4793V16.632L51.45 16.6329C48.8051 16.6341 47.9002 16.8551 47.3798 17.6272C47.2023 17.8906 47.1497 18.1091 47.15 18.5822C47.1505 19.5854 47.5459 20.0238 48.7088 20.311C49.2373 20.4415 52.3198 20.4995 52.8709 20.3894ZM108.874 23.8563C106.03 23.4917 103.976 22.1607 102.828 19.9382C101.446 17.2645 101.481 13.3154 102.909 10.6751C104.398 7.92412 107.24 6.39905 110.482 6.61186C113.78 6.8284 115.82 8.34618 116.765 11.287C117.135 12.4361 117.263 13.431 117.263 15.1313V16.5315H111.767H106.271L106.329 17.0221C106.452 18.0579 107.121 19.013 108.085 19.5262C108.929 19.9757 109.704 20.1506 110.852 20.1506C112.516 20.1506 113.98 19.6985 115.134 18.8274L115.682 18.4137L115.866 18.6538C115.967 18.7859 116.187 19.1709 116.355 19.5095C116.901 20.612 116.703 21.6861 115.821 22.4019C114.332 23.6094 111.527 24.1966 108.874 23.8563ZM113.157 13.4639C113.251 13.3702 113.033 12.2747 112.828 11.8103C112.558 11.2006 112.016 10.6625 111.39 10.3844C110.654 10.0579 109.208 10.0573 108.389 10.3832C107.342 10.8002 106.458 11.9312 106.329 13.0207L106.271 13.5155H109.688C111.568 13.5155 113.129 13.4923 113.157 13.4639ZM3.9949 23.8072C2.36766 23.6136 0.838253 23.0562 0.352958 22.4798C0.0128455 22.0759 -0.0840933 21.455 0.0735639 20.6904C0.236466 19.9003 0.735535 18.805 0.900425 18.8756C0.970252 18.9055 1.38952 19.0851 1.83213 19.2746C3.31144 19.9081 5.02462 20.2118 6.6231 20.1237C8.21181 20.0363 8.88478 19.5997 8.864 18.6699C8.84499 17.8196 8.31914 17.5123 6.06446 17.034C3.63608 16.5188 2.68504 16.1154 1.69544 15.181C0.82368 14.3579 0.373521 13.2259 0.373521 11.8568C0.373521 10.4248 0.837413 9.33335 1.84726 8.38927C3.66003 6.69457 6.85242 6.1677 10.6228 6.94097C11.7085 7.16363 12.9567 7.59118 13.0227 7.76297C13.1101 7.9907 12.7729 9.38794 12.492 9.96193C12.3525 10.2468 12.1151 10.5617 11.9644 10.6618C11.6026 10.9019 10.8384 10.8806 9.72874 10.5994C8.53437 10.2967 6.54735 10.2149 5.78301 10.437C5.05507 10.6484 4.69905 11.0439 4.69905 11.6411C4.69905 12.4957 5.14462 12.7696 7.23855 13.2019C10.5468 13.885 12.1035 14.7609 12.8527 16.3611C13.3757 17.4779 13.4849 19.5403 13.0467 20.7766C11.4942 23.9591 7.48155 24.3232 3.9949 23.8072ZM74.5013 23.7259C72.8165 23.3734 71.7952 22.4454 71.2302 20.7538C71.0589 20.2407 71.0432 19.6547 71.0126 12.6108C70.9945 8.4362 71.0065 4.87496 71.0393 4.69689C71.1844 3.90925 72.0795 3.37003 74.0777 2.86661C74.7522 2.69668 75.3294 2.55764 75.3603 2.55764C75.3912 2.55764 75.4165 3.53028 75.4165 4.71906V6.88048H77.6414H79.8664L79.8239 8.16225C79.7914 9.14284 79.7373 9.53552 79.5935 9.83339C79.3082 10.4244 79.0244 10.4996 77.0795 10.4996H75.4165V14.6504C75.4165 18.7549 75.419 18.8061 75.6428 19.2497C75.8071 19.5752 75.9933 19.7623 76.3218 19.9317C76.7478 20.1515 76.8624 20.163 78.2682 20.1273L79.762 20.0892L79.7268 21.2509C79.6981 22.1992 79.6537 22.4771 79.485 22.7641C79.2478 23.1677 78.7706 23.5183 78.2449 23.6752C77.6511 23.8524 75.2606 23.8847 74.5013 23.7259ZM35.995 20.9434C35.9834 20.1526 35.9837 19.0772 35.9837 17.6019C35.9837 14.4376 35.9444 12.4374 35.8759 12.1181C35.6269 10.9581 34.809 10.3736 33.3519 10.3145C30.8848 10.4053 30.207 11.9296 30.1493 13.1983L30.1961 23.6189C28.7218 23.6584 27.2478 23.6372 25.7734 23.6189L25.7231 17.7881C25.6737 12.0593 25.6691 11.9503 25.4563 11.5552C24.9928 10.6945 24.3998 10.3769 23.1474 10.3185C21.9168 10.2612 21.2328 10.4574 20.6593 11.0324C19.934 11.7597 19.9521 11.5908 19.9167 17.9389L19.8851 23.6189C18.4444 23.637 17.0038 23.6551 15.5632 23.6731L15.5649 17.8152C15.5669 11.2354 15.5762 11.1281 16.264 9.73348C16.9713 8.29922 18.3066 7.29504 20.1402 6.81847C21.1765 6.54914 23.7644 6.57226 24.8322 6.86039C25.9424 7.15992 26.792 7.62372 27.4258 8.27627L27.9742 8.84084L28.5363 8.28792C29.2153 7.62006 30.0689 7.1498 31.1236 6.86249C32.2608 6.55272 34.7789 6.5531 35.9175 6.86319C38.2925 7.50999 39.7836 9.01935 40.2578 11.2565C40.3788 11.8275 40.4067 13.0303 40.4081 17.7522C40.4097 23.1227 40.3973 23.552 40.2382 23.613C37.7881 24.1073 35.9398 23.9091 35.995 20.9434ZM131.17 23.6702C130.572 23.5427 130.242 23.3638 129.998 23.0337C129.792 22.7563 129.786 22.6297 129.737 17.3536C129.722 15.6876 129.706 14.5776 129.69 12.9116C129.781 11.2379 128.928 10.2532 126.808 10.2985C124.728 10.2548 123.909 11.4014 123.975 12.3849L123.953 23.6189H121.74H119.527V17.8887C119.527 12.7406 119.545 12.0807 119.706 11.3942C120.222 9.20135 121.538 7.76713 123.662 7.08433C125.24 6.5772 126.881 6.46043 128.661 6.72859C131.639 7.17714 133.351 8.57515 134.028 11.1117C134.18 11.677 134.205 12.4808 134.237 17.6494L134.274 23.5425L134.043 23.6094C133.648 23.7235 131.621 23.7664 131.17 23.6702ZM60.3373 23.6189C60.3854 22.0584 60.3415 19.3806 60.3514 17.6713C60.3887 12.1639 60.3981 11.9282 60.6108 11.1531C61.2273 8.90688 62.4796 7.63254 64.6213 7.07192C65.5297 6.83416 67.4452 6.71636 68.6176 6.82616L69.4045 6.89985L69.3612 8.12167C69.3279 9.06441 69.2715 9.44683 69.1143 9.79588C68.8018 10.4897 68.7124 10.5301 67.3357 10.5985C66.0417 10.6627 65.8713 10.7141 65.4364 11.171C64.8115 11.8275 64.814 11.8053 64.7758 18.0143L64.7414 23.6189C63.2412 23.6351 61.7493 23.6236 60.3373 23.6189ZM82.0796 14.3952C82.1129 4.12616 82.0735 4.75202 82.779 3.26869C83.2112 2.35997 84.2768 1.30043 85.2518 0.809769C86.5414 0.160857 87.4411 -0.00289953 89.7008 3.86256e-05C90.7796 0.00143967 91.7936 0.0371543 91.9539 0.0794011L92.2455 0.156214L92.1825 1.181C92.1069 2.41152 91.908 3.13728 91.5556 3.46832C91.3078 3.70114 91.2134 3.71657 89.718 3.76872C88.3648 3.8159 88.0828 3.85443 87.7267 4.04077C86.9376 4.45369 86.4818 5.31602 86.4818 6.39607V6.88048H88.7349H90.9881L91.054 7.55907C91.1203 8.24119 90.9844 9.56564 90.8158 9.88048C90.7661 9.97342 90.626 10.1394 90.5045 10.2494C90.3036 10.4313 90.1125 10.4523 88.3827 10.4823L86.4818 10.5153V17.0922V23.6692H82.0496L82.0796 14.3952ZM92.1377 17.7127L92.1682 12.2062C92.2053 11.2905 92.5682 10.3667 92.9936 9.62563C93.7418 8.33593 94.9197 7.50632 96.5914 7.07722C97.5335 6.83541 99.4205 6.71939 100.691 6.8252L101.571 6.89853L101.57 7.66862C101.569 8.60998 101.413 9.62116 101.207 10.0183C100.978 10.4614 100.529 10.6001 99.322 10.6001C98.83 10.6001 98.5535 10.607 98.3336 10.6489C97.714 10.7924 97.1549 11.3392 96.8446 11.9143C96.624 12.319 96.5898 12.6647 96.5876 13.0997L96.5623 18.007L96.5333 23.6692H94.319H92.1047L92.1377 17.7127Z" fill="#050708"/>
<path fill-rule="evenodd" clip-rule="evenodd" d="M136.906 17.6992H143V23.6568H136.906V17.6992Z" fill="#ED1D61"/>
</g>
<defs>
<clipPath id="clip0_5727_26160">
<rect width="143" height="24" fill="white"/>
</clipPath>
</defs>
</svg>
