<svg width="24" height="21" viewBox="0 0 24 21" fill="none" xmlns="http://www.w3.org/2000/svg">
<path d="M21.4286 3.76256H14.8571V4.90541C14.8571 5.85398 14.0914 6.6197 13.1429 6.6197H10.8571C9.90857 6.6197 9.14286 5.85398 9.14286 4.90541V3.76256H2.57143C1.14857 3.76256 0 4.91684 0 6.33398V18.3397C0 19.7568 1.15429 20.9111 2.57143 20.9111H21.4286C22.8514 20.9111 24 19.7568 24 18.3397V6.33398C24 4.91684 22.8514 3.76256 21.4286 3.76256ZM6.28571 8.90541C7.23429 8.90541 8 9.67684 8 10.6197C8 11.5683 7.23429 12.334 6.28571 12.334C5.33714 12.334 4.57143 11.5683 4.57143 10.6197C4.57143 9.67684 5.33714 8.90541 6.28571 8.90541ZM9.14286 14.8997L9.13143 15.0197L9.10286 15.1968C8.84571 16.3511 7.80571 16.9054 6.28571 16.9054C4.68571 16.9054 3.62286 16.294 3.44 15.0197L3.42857 14.894V14.334L3.43429 14.2197C3.49143 13.7968 3.85143 13.4768 4.28571 13.4768H8.28572L8.4 13.4826C8.82286 13.5397 9.14286 13.8997 9.14286 14.334V14.8997ZM19.8286 15.7511L19.7143 15.7568H14.0057L13.8857 15.7511C13.4686 15.694 13.1486 15.334 13.1486 14.8997C13.1486 14.4654 13.4686 14.1111 13.8857 14.054L14.0057 14.0426H19.7143L19.8286 14.054C20.2514 14.1111 20.5714 14.4654 20.5714 14.8997C20.5714 15.334 20.2514 15.694 19.8286 15.7511ZM19.8286 11.7568L19.7143 11.7626H14L13.8857 11.7568C13.4686 11.6997 13.1486 11.3397 13.1486 10.9054C13.1486 10.4711 13.4686 10.1111 13.8857 10.054L14.0057 10.0483H19.7143L19.8286 10.054C20.2514 10.1111 20.5714 10.4711 20.5714 10.9054C20.5714 11.3397 20.2514 11.6997 19.8286 11.7568ZM12 0.333984C10.4223 0.333984 9.14286 1.61341 9.14286 3.19113V3.76256H14.8571V3.19113C14.8571 1.61341 13.5777 0.333984 12 0.333984Z" fill="#6C68BB"/>
</svg>
