<svg width="25" height="23" viewBox="0 0 25 23" fill="none" xmlns="http://www.w3.org/2000/svg">
<path d="M4.68579 0.333984C2.99349 0.333984 1.61598 1.71149 1.61598 3.40379V6.4736H22.8256V3.40379C22.8256 1.71149 21.4481 0.333984 19.7558 0.333984H4.68579ZM4.68579 2.56657C5.14794 2.56657 5.52301 2.94165 5.52301 3.40379C5.52301 3.86594 5.14794 4.24101 4.68579 4.24101C4.22365 4.24101 3.84857 3.86594 3.84857 3.40379C3.84857 2.94165 4.22365 2.56657 4.68579 2.56657ZM7.47652 2.56657C7.93867 2.56657 8.31374 2.94165 8.31374 3.40379C8.31374 3.86594 7.93867 4.24101 7.47652 4.24101C7.01438 4.24101 6.6393 3.86594 6.6393 3.40379C6.6393 2.94165 7.01438 2.56657 7.47652 2.56657ZM10.8254 2.56657H19.7558C20.2179 2.56657 20.593 2.94165 20.593 3.40379C20.593 3.86594 20.2179 4.25736 19.7558 4.25736H10.8254C10.3633 4.25736 9.98819 3.8665 9.98819 3.40379C9.98819 2.94109 10.3633 2.56657 10.8254 2.56657ZM1.61598 7.58989L0.559647 8.95364C0.513321 9.06974 0.493498 9.19437 0.50187 9.31884C0.567731 10.3146 0.989743 11.0896 1.61598 11.6779V17.0784C1.61598 18.9253 3.11796 20.4273 4.96486 20.4273H12.8116C12.3779 19.7514 12.0546 18.999 11.8643 18.1947H4.96486C4.34923 18.1947 3.84857 17.694 3.84857 17.0784V12.8683C4.57528 13.0731 5.34552 13.1714 6.08116 13.1714C7.17122 13.1714 8.29198 12.693 9.15096 12.0551C10.0775 12.6925 11.0894 13.1714 12.2208 13.1714C12.3123 13.1714 12.4018 13.1633 12.4922 13.1572C13.7051 10.8442 16.1256 9.26433 18.9185 9.26433C20.6432 9.26433 22.2246 9.8687 23.4698 10.8734C23.731 10.4285 23.9 9.91436 23.9397 9.31993C23.948 9.1949 23.9282 9.06974 23.8819 8.95364L22.8256 7.58989H1.61598ZM18.9185 10.3806C18.5909 10.3806 18.2702 10.4083 17.957 10.4613L17.7641 11.2604C17.4644 12.5022 16.1865 13.2404 14.9614 12.8781L14.2887 12.6786C13.8847 13.1994 13.5609 13.7914 13.3371 14.4316L13.8363 14.9112C14.7489 15.7897 14.7489 17.2507 13.8363 18.1293L13.3371 18.6089C13.5609 19.2491 13.8841 19.8406 14.2887 20.3619L14.9614 20.1624C16.1865 19.8001 17.4644 20.5382 17.7641 21.7801L17.957 22.5792C18.2702 22.6322 18.5915 22.6599 18.9185 22.6599C19.2462 22.6599 19.5669 22.6322 19.88 22.5792L20.073 21.7801C20.3727 20.5382 21.6506 19.8001 22.8757 20.1624L23.5483 20.3619C23.9524 19.8411 24.2762 19.2491 24.5 18.6089L24.0007 18.1293C23.0882 17.2513 23.0882 15.7892 24.0007 14.9112L24.5 14.4316C24.2762 13.7914 23.953 13.1999 23.5483 12.6786L22.8757 12.8781C21.6506 13.2404 20.3727 12.5022 20.073 11.2604L19.88 10.4613C19.5669 10.4083 19.2462 10.3806 18.9185 10.3806ZM18.9185 14.8458C19.8434 14.8458 20.593 15.5954 20.593 16.5202C20.593 17.4451 19.8434 18.1947 18.9185 18.1947C17.9937 18.1947 17.2441 17.4451 17.2441 16.5202C17.2441 15.5954 17.9937 14.8458 18.9185 14.8458Z" fill="#6C68BB"/>
</svg>
