<svg width="21" height="22" viewBox="0 0 21 22" fill="none" xmlns="http://www.w3.org/2000/svg">
<path d="M4.48933 0.673229C3.65467 0.211895 2.67467 0.222562 1.84533 0.679895L11.5653 9.64656L14.8307 6.38123L4.48933 0.673229Z" fill="#6C68BB"/>
<path d="M0.873333 1.59723C0.636 1.98523 0.5 2.42923 0.5 2.8999V19.0946C0.5 19.5506 0.624 19.9852 0.848 20.3652L10.6227 10.5906L0.873333 1.59723Z" fill="#6C68BB"/>
<path d="M19.16 8.77056L16.0453 7.05189L12.5453 10.5506L16.8347 14.5066L19.1613 13.2226C19.9987 12.7586 20.5 11.9266 20.5 10.9959C20.4987 10.0652 19.9987 9.23323 19.16 8.77056Z" fill="#6C68BB"/>
<path d="M11.6027 11.4946L1.80133 21.2959C2.22667 21.5386 2.69333 21.6666 3.16267 21.6666C3.616 21.6666 4.072 21.5519 4.48933 21.3212L15.6053 15.1866L11.6027 11.4946Z" fill="#6C68BB"/>
</svg>
