<svg width="20" height="24" viewBox="0 0 20 24" fill="none" xmlns="http://www.w3.org/2000/svg">
<path fill-rule="evenodd" clip-rule="evenodd" d="M13.1112 12.6316C16.5476 12.6316 19.3334 9.8039 19.3334 6.31579C19.3334 2.82768 16.5476 0 13.1112 0C9.67475 0 6.88897 2.82768 6.88897 6.31579C6.88897 9.8039 9.67475 12.6316 13.1112 12.6316ZM13.1112 13.8947C13.9839 13.8947 14.8216 13.7428 15.6001 13.4635V21.7272C15.6001 22.9824 14.6884 24 13.5637 24H2.70315C1.57845 24 0.666748 22.9824 0.666748 21.7272V4.79916C0.666748 3.5439 1.57845 2.52632 2.70315 2.52632H6.64343C6.00813 3.64108 5.64453 4.93533 5.64453 6.31579C5.64453 10.5015 8.98747 13.8947 13.1112 13.8947ZM7.04453 18.9474C6.61497 18.9474 6.26675 19.3008 6.26675 19.7368C6.26675 20.1729 6.61497 20.5263 7.04453 20.5263H9.2223C9.65186 20.5263 10.0001 20.1729 10.0001 19.7368C10.0001 19.3008 9.65186 18.9474 9.2223 18.9474H7.04453ZM9.33341 4.47421V7.87375C9.33341 8.13857 9.54765 8.34796 9.81858 8.34796C10.0895 8.34796 10.3038 8.13857 10.3038 7.87375V6.93149H11.0788L12.0239 8.10162C12.1373 8.24326 12.2822 8.34796 12.5028 8.34796C12.7359 8.34796 12.9627 8.17552 12.9627 7.9107C12.9627 7.76289 12.8997 7.66436 12.8052 7.54734L12.131 6.74673C12.6666 6.53118 13.0132 6.11239 13.0132 5.43495V5.42263C13.0132 5.01617 12.8808 4.67744 12.6351 4.43726C12.3453 4.15396 11.9105 4 11.3497 4H9.81858C9.54765 4 9.33341 4.20939 9.33341 4.47421ZM11.2867 6.09392H10.3038V4.85604H11.2678C11.7404 4.85604 12.0302 5.06543 12.0302 5.4719V5.48422C12.0302 5.84758 11.7593 6.09392 11.2867 6.09392ZM13.786 5.44111V8.86528C13.786 9.12394 14.0002 9.33333 14.2649 9.33333C14.5295 9.33333 14.7437 9.12394 14.7437 8.86528V7.87991C14.9706 8.14473 15.2856 8.37259 15.796 8.37259C16.5962 8.37259 17.3334 7.76905 17.3334 6.66667V6.65435C17.3334 5.55196 16.5836 4.94842 15.796 4.94842C15.2982 4.94842 14.9769 5.17629 14.7437 5.48422V5.44111C14.7437 5.18245 14.5295 4.97306 14.2649 4.97306C14.0002 4.97306 13.786 5.18245 13.786 5.44111ZM16.3757 6.66667C16.3757 7.22094 15.9976 7.57814 15.5503 7.57814C15.1029 7.57814 14.7311 7.21478 14.7311 6.66667V6.65435C14.7311 6.10624 15.1029 5.74288 15.5503 5.74288C15.9976 5.74288 16.3757 6.10624 16.3757 6.65435V6.66667Z" fill="#6C68BB"/>
</svg>
