<svg width="23" height="24" viewBox="0 0 23 24" fill="none" xmlns="http://www.w3.org/2000/svg">
<path d="M1.26316 6.94737V19.8947C1.26316 22.1583 3.10484 24 5.36842 24H17.3684C19.632 24 21.4737 22.1583 21.4737 19.8947V6.94737H1.26316ZM14.2105 12.6316H8.52632C8.00274 12.6316 7.57895 12.2072 7.57895 11.6842C7.57895 11.1613 8.00274 10.7368 8.52632 10.7368H14.2105C14.7341 10.7368 15.1579 11.1613 15.1579 11.6842C15.1579 12.2072 14.7341 12.6316 14.2105 12.6316ZM21.1579 5.68421H1.57895C0.708632 5.68421 0 4.97621 0 4.10526V1.57895C0 0.708 0.708632 0 1.57895 0H21.1579C22.0282 0 22.7368 0.708 22.7368 1.57895V4.10526C22.7368 4.97621 22.0282 5.68421 21.1579 5.68421Z" fill="#6C68BB"/>
</svg>
