<svg width="32" height="32" viewBox="0 0 32 32" fill="none" xmlns="http://www.w3.org/2000/svg">
<path d="M8.8 5.33203H23.2C25.84 5.33203 28 7.46536 28 10.0728C28 12.0876 26.8 13.7468 25 14.458V10.0728C25 9.5987 24.76 9.12462 24.52 8.76907C24.28 8.41351 23.68 8.29499 23.2 8.29499H8.8C8.32 8.29499 7.84 8.53203 7.48 8.76907C7.12 9.00611 7 9.5987 7 10.0728V14.458C5.2 13.7468 4 12.0876 4 10.0728C4 7.46536 6.16 5.33203 8.8 5.33203Z" fill="#6C68BB"/>
<path fill-rule="evenodd" clip-rule="evenodd" d="M23.2 10.0728V24.295C23.2 25.5987 22.12 26.6654 20.8 26.6654H11.2C9.87997 26.6654 8.79997 25.5987 8.79997 24.295V10.0728H23.2ZM14.2 18.9617L15.04 19.7913V14.8135C15.04 14.3394 15.4 13.8654 16 13.8654C16.6 13.8654 16.96 14.2209 16.96 14.8135V19.7913L17.8 18.9617C18.16 18.6061 18.76 18.6061 19.12 18.9617C19.48 19.3172 19.48 19.9098 19.12 20.2654L17.56 21.8061C16.72 22.6357 15.4 22.6357 14.56 21.8061L13 20.2654C12.64 19.9098 12.64 19.3172 13 18.9617C13.36 18.6061 13.84 18.6061 14.2 18.9617Z" fill="#6C68BB"/>
</svg>
