<svg width="16" height="18" viewBox="0 0 16 18" fill="none" xmlns="http://www.w3.org/2000/svg">
<path d="M4.75718 16.4176C5.50482 17.3799 6.67933 18 8.00004 18C9.32075 18 10.4952 17.3799 11.2429 16.4176C9.09017 16.713 6.9099 16.713 4.75718 16.4176Z" fill="#B8B8B8"/>
<path d="M13.9992 6.3V6.93369C13.9992 7.69419 14.2136 8.43768 14.6153 9.07038L15.5996 10.6211C16.4988 12.0374 15.8124 13.9625 14.2485 14.4104C10.1576 15.5821 5.84243 15.5821 1.75143 14.4104C0.1876 13.9625 -0.498826 12.0374 0.40032 10.6211L1.38471 9.07038C1.78642 8.43768 2.00077 7.69419 2.00077 6.93369V6.3C2.00077 2.82061 4.68672 0 8 0C11.3132 0 13.9992 2.82061 13.9992 6.3Z" fill="#B8B8B8"/>
</svg>
