<svg width="18" height="18" viewBox="0 0 18 18" fill="none" xmlns="http://www.w3.org/2000/svg">
<path d="M16.75 18.0003H12.25C11.5595 18.0003 11 17.4838 11 16.8465V13.8609C11 13.3509 10.5525 12.9378 10 12.9378H8C7.4475 12.9378 7 13.3509 7 13.8609V16.8465C7 17.4838 6.4405 18.0003 5.75 18.0003H1.25C0.5595 18.0003 0 17.4838 0 16.8465V8.03708C0 6.976 0.527 5.97354 1.4295 5.31723C2.62924 4.44456 6.05719 2.05051 7.8601 0.794022C8.54592 0.316061 9.45418 0.316055 10.14 0.794005C11.9429 2.05046 15.371 4.44449 16.571 5.31723C17.4735 5.97354 18 6.97554 18 8.03615V16.8465C18 17.4838 17.4405 18.0003 16.75 18.0003Z" fill="#B8B8B8"/>
</svg>
