<svg width="18" height="18" viewBox="0 0 18 18" fill="none" xmlns="http://www.w3.org/2000/svg">
<path fill-rule="evenodd" clip-rule="evenodd" d="M8.16149 11.7219C8.16149 11.2222 7.9631 10.7432 7.60965 10.3904C7.25682 10.0369 6.7778 9.83851 6.27807 9.83851C5.03124 9.83851 3.13024 9.83851 1.88342 9.83851C1.38369 9.83851 0.904668 10.0369 0.551841 10.3904C0.198385 10.7432 0 11.2222 0 11.7219V16.1166C0 16.6163 0.198385 17.0953 0.551841 17.4482C0.904668 17.8016 1.38369 18 1.88342 18H6.27807C6.7778 18 7.25682 17.8016 7.60965 17.4482C7.9631 17.0953 8.16149 16.6163 8.16149 16.1166V11.7219ZM17.5786 11.7219C17.5786 11.2222 17.3802 10.7432 17.0267 10.3904C16.6739 10.0369 16.1949 9.83851 15.6952 9.83851C14.4483 9.83851 12.5473 9.83851 11.3005 9.83851C10.8008 9.83851 10.3218 10.0369 9.96894 10.3904C9.61549 10.7432 9.4171 11.2222 9.4171 11.7219V16.1166C9.4171 16.6163 9.61549 17.0953 9.96894 17.4482C10.3218 17.8016 10.8008 18 11.3005 18H15.6952C16.1949 18 16.6739 17.8016 17.0267 17.4482C17.3802 17.0953 17.5786 16.6163 17.5786 16.1166V11.7219ZM14.8294 8.45294L17.4486 5.83374C18.1838 5.09858 18.1838 3.90574 17.4486 3.17058L14.8294 0.551371C14.0943 -0.18379 12.9014 -0.18379 12.1663 0.551371L9.54706 3.17058C8.81189 3.90574 8.81189 5.09858 9.54706 5.83374L12.1663 8.45294C12.9014 9.18811 14.0943 9.18811 14.8294 8.45294ZM8.16149 2.30483C8.16149 1.8051 7.9631 1.32608 7.60965 0.973255C7.25682 0.6198 6.7778 0.421415 6.27807 0.421415C5.03124 0.421415 3.13024 0.421415 1.88342 0.421415C1.38369 0.421415 0.904668 0.6198 0.551841 0.973255C0.198385 1.32608 0 1.8051 0 2.30483V6.69948C0 7.19921 0.198385 7.67823 0.551841 8.03106C0.904668 8.38452 1.38369 8.5829 1.88342 8.5829H6.27807C6.7778 8.5829 7.25682 8.38452 7.60965 8.03106C7.9631 7.67823 8.16149 7.19921 8.16149 6.69948V2.30483Z" fill="#B8B8B8"/>
</svg>
