<svg width="25" height="24" viewBox="0 0 25 24" fill="none" xmlns="http://www.w3.org/2000/svg">
<path d="M1.7 9.59961C1.0376 9.59961 0.5 10.1372 0.5 10.7996V22.7996C0.5 23.462 1.0376 23.9996 1.7 23.9996H23.3C23.9624 23.9996 24.5 23.462 24.5 22.7996V10.7996C24.5 10.1372 23.9624 9.59961 23.3 9.59961H1.7ZM3.99453 11.9996H21.0055C21.095 12.252 21.2397 12.4812 21.4291 12.6705C21.6184 12.8599 21.8476 13.0046 22.1 13.0941V20.5051C21.8476 20.5946 21.6184 20.7393 21.4291 20.9287C21.2397 21.118 21.095 21.3472 21.0055 21.5996H3.99453C3.90499 21.3472 3.76028 21.118 3.57093 20.9287C3.38158 20.7393 3.15237 20.5946 2.9 20.5051V13.0941C3.15237 13.0046 3.38158 12.8599 3.57093 12.6705C3.76028 12.4812 3.90499 12.252 3.99453 11.9996ZM12.5 13.1996C11.5452 13.1996 10.6295 13.5789 9.95442 14.254C9.27928 14.9292 8.9 15.8448 8.9 16.7996C8.9 17.7544 9.27928 18.6701 9.95442 19.3452C10.6295 20.0203 11.5452 20.3996 12.5 20.3996C13.4548 20.3996 14.3705 20.0203 15.0456 19.3452C15.7207 18.6701 16.1 17.7544 16.1 16.7996C16.1 15.8448 15.7207 14.9292 15.0456 14.254C14.3705 13.5789 13.4548 13.1996 12.5 13.1996ZM6.5 15.5996C5.8376 15.5996 5.3 16.136 5.3 16.7996C5.3 17.4632 5.8376 17.9996 6.5 17.9996C7.1624 17.9996 7.7 17.4632 7.7 16.7996C7.7 16.136 7.1624 15.5996 6.5 15.5996ZM18.5 15.5996C17.8376 15.5996 17.3 16.136 17.3 16.7996C17.3 17.4632 17.8376 17.9996 18.5 17.9996C19.1624 17.9996 19.7 17.4632 19.7 16.7996C19.7 16.136 19.1624 15.5996 18.5 15.5996Z" fill="#EB5757"/>
<path d="M11.5532 0.391406C11.8148 0.129806 12.1575 0 12.5001 0C12.8427 0 13.1854 0.129806 13.447 0.391406L16.8126 3.75703C17.1978 4.14223 16.9226 4.8 16.379 4.8H13.7001V7.2C13.7023 7.35901 13.673 7.51689 13.6137 7.66445C13.5544 7.81201 13.4663 7.94632 13.3547 8.05956C13.243 8.17281 13.11 8.26273 12.9633 8.32411C12.8166 8.38548 12.6591 8.41709 12.5001 8.41709C12.3411 8.41709 12.1836 8.38548 12.0369 8.32411C11.8902 8.26273 11.7571 8.17281 11.6455 8.05956C11.5338 7.94632 11.4458 7.81201 11.3865 7.66445C11.3272 7.51689 11.2978 7.35901 11.3001 7.2V4.8H8.62118C8.07758 4.8 7.80239 4.14223 8.18759 3.75703L11.5532 0.391406Z" fill="#EB5757"/>
</svg>
