<svg width="17" height="20" viewBox="0 0 17 20" fill="none" xmlns="http://www.w3.org/2000/svg">
<path d="M8.46595 0.000324728C8.29405 -0.00503951 8.12673 0.0562283 7.99894 0.171328C7.99894 0.171328 4.66219 3.11136 0.666651 3.11136C0.48985 3.11138 0.320295 3.18162 0.195277 3.30664C0.0702597 3.43166 1.76775e-05 3.60121 0 3.77801V9.22667C0 12.1946 1.37304 17.0783 8.18557 19.9478C8.26746 19.9822 8.3554 20 8.44425 20C8.53309 20 8.62104 19.9822 8.70292 19.9478C15.5155 17.0783 16.8885 12.1946 16.8885 9.22667V3.77801C16.8885 3.60121 16.8182 3.43166 16.6932 3.30664C16.5682 3.18162 16.3986 3.11138 16.2218 3.11136C12.2263 3.11136 8.88955 0.171328 8.88955 0.171328C8.77289 0.0662227 8.62288 0.00566482 8.46595 0.000324728ZM11.7766 7.11127C11.9472 7.11127 12.1178 7.17636 12.248 7.30658C12.5084 7.56657 12.5084 7.98927 12.248 8.24926L7.80364 12.6936C7.67431 12.8238 7.50382 12.8889 7.33316 12.8889C7.1625 12.8889 6.99204 12.8238 6.86182 12.6936L4.63965 10.4714C4.37921 10.2114 4.37921 9.78874 4.63965 9.52875C4.90009 9.26831 5.3219 9.26831 5.58233 9.52875L7.33229 11.2796L11.3053 7.30658C11.4355 7.17636 11.6061 7.11127 11.7766 7.11127Z" fill="#6C68BB"/>
</svg>
