<svg width="49" height="48" viewBox="0 0 49 48" fill="none" xmlns="http://www.w3.org/2000/svg">
<path d="M32.0469 0H28.25C27.7322 0 27.3125 0.419719 27.3125 0.9375V10.3125C27.3125 10.8303 26.8928 11.25 26.375 11.25H22.625C22.1072 11.25 21.6875 10.8303 21.6875 10.3125V0.9375C21.6875 0.419719 21.2678 0 20.75 0H16.9531C14.8821 0 13.2031 1.67897 13.2031 3.75V18.8438C13.2031 20.9148 14.8821 22.5938 16.9531 22.5938H32.0469C34.1179 22.5938 35.7969 20.9148 35.7969 18.8438V3.75C35.7969 1.67897 34.1179 0 32.0469 0Z" fill="#6C68BB"/>
<path d="M19.3438 25.4062H15.5469C15.0291 25.4062 14.6094 25.826 14.6094 26.3438V35.7188C14.6094 36.2365 14.1897 36.6562 13.6719 36.6562H9.92188C9.40409 36.6562 8.98438 36.2365 8.98438 35.7188V26.3438C8.98438 25.826 8.56466 25.4062 8.04688 25.4062H4.25C2.17897 25.4062 0.5 27.0852 0.5 29.1562V44.25C0.5 46.321 2.17897 48 4.25 48H19.3438C21.4148 48 23.0938 46.321 23.0938 44.25V29.1562C23.0938 27.0852 21.4148 25.4062 19.3438 25.4062Z" fill="#6C68BB"/>
<path d="M44.75 25.4062H40.9531C40.4353 25.4062 40.0156 25.826 40.0156 26.3438V35.7188C40.0156 36.2365 39.5959 36.6562 39.0781 36.6562H35.3281C34.8103 36.6562 34.3906 36.2365 34.3906 35.7188V26.3438C34.3906 25.826 33.9709 25.4062 33.4531 25.4062H29.6562C27.5852 25.4062 25.9062 27.0852 25.9062 29.1562V44.25C25.9062 46.321 27.5852 48 29.6562 48H44.75C46.821 48 48.5 46.321 48.5 44.25V29.1562C48.5 27.0852 46.821 25.4062 44.75 25.4062Z" fill="#6C68BB"/>
</svg>
