<svg width="25" height="24" viewBox="0 0 25 24" fill="none" xmlns="http://www.w3.org/2000/svg">
<g id="left_icon">
<path id="Vector" d="M18.4211 3C17.9481 3.00059 17.4816 3.11014 17.0578 3.32015C16.634 3.53016 16.2643 3.83497 15.9774 4.21095C15.6904 4.58693 15.4939 5.02396 15.4032 5.48814C15.3124 5.95232 15.3298 6.43117 15.4541 6.88754L15.3995 6.91437L9.06024 10.0831L9.00565 10.1099C8.71819 9.74024 8.35021 9.44103 7.92969 9.23502C7.50918 9.02901 7.04721 8.92163 6.57895 8.92105C5.76236 8.92105 4.97922 9.24544 4.4018 9.82286C3.82439 10.4003 3.5 11.1834 3.5 12C3.5 12.8166 3.82439 13.5997 4.4018 14.1771C4.97922 14.7546 5.76236 15.0789 6.57895 15.0789C7.04753 15.0786 7.50985 14.9714 7.93071 14.7654C8.35157 14.5594 8.71985 14.26 9.0075 13.8901L9.06024 13.9169L15.3995 17.0856L15.4513 17.1115C15.3268 17.5682 15.3093 18.0474 15.4002 18.5119C15.491 18.9764 15.6877 19.4137 15.975 19.7899C16.2623 20.166 16.6324 20.4709 17.0566 20.6807C17.4808 20.8906 17.9477 20.9999 18.4211 21C19.2376 21 20.0208 20.6756 20.5982 20.0982C21.1756 19.5208 21.5 18.7376 21.5 17.9211C21.5 17.1045 21.1756 16.3213 20.5982 15.7439C20.0208 15.1665 19.2376 14.8421 18.4211 14.8421C17.9895 14.8427 17.5629 14.934 17.1689 15.1102C16.7749 15.2863 16.4223 15.5432 16.134 15.8644L16.0341 15.8145L9.69583 12.6458L9.59683 12.5967C9.67425 12.203 9.67393 11.7978 9.59591 11.4042L9.69583 11.3542L16.0341 8.18555L16.1313 8.13651C16.4199 8.45786 16.773 8.71487 17.1675 8.89084C17.562 9.0668 17.9891 9.1578 18.4211 9.1579C19.2376 9.1579 20.0208 8.83351 20.5982 8.25609C21.1756 7.67868 21.5 6.89553 21.5 6.07895C21.5 5.26236 21.1756 4.47922 20.5982 3.9018C20.0208 3.32439 19.2376 3 18.4211 3Z" fill="#6C68BB"/>
</g>
</svg>
