<svg width="24" height="24" viewBox="0 0 24 24" fill="none" xmlns="http://www.w3.org/2000/svg">
<rect width="24" height="24" rx="12" fill="#079268"/>
<path d="M11.7727 10.0133C11.9035 10.1441 12.0748 10.209 12.2461 10.209C12.4174 10.209 12.5888 10.1441 12.7196 10.0133L14.4024 8.33047C14.595 8.13787 14.4574 7.80898 14.1856 7.80898H12.8461V6.60898C12.8473 6.52948 12.8326 6.45054 12.8029 6.37676C12.7733 6.30298 12.7293 6.23583 12.6734 6.1792C12.6176 6.12258 12.5511 6.07762 12.4777 6.04693C12.4044 6.01624 12.3257 6.00044 12.2461 6.00044C12.1666 6.00044 12.0879 6.01624 12.0145 6.04693C11.9412 6.07762 11.8747 6.12258 11.8188 6.1792C11.763 6.23583 11.719 6.30298 11.6893 6.37676C11.6597 6.45054 11.645 6.52948 11.6461 6.60898V7.80898H10.3067C10.0349 7.80898 9.89729 8.13787 10.0899 8.33047L11.7727 10.0133Z" fill="white"/>
<path d="M6.6 10.875C6.2688 10.875 6 11.1438 6 11.475V17.475C6 17.8062 6.2688 18.075 6.6 18.075H17.4C17.7312 18.075 18 17.8062 18 17.475V11.475C18 11.1438 17.7312 10.875 17.4 10.875H6.6ZM7.74727 12.075H16.2527C16.2975 12.2012 16.3699 12.3158 16.4645 12.4105C16.5592 12.5051 16.6738 12.5775 16.8 12.6223V16.3277C16.6738 16.3725 16.5592 16.4449 16.4645 16.5395C16.3699 16.6342 16.2975 16.7488 16.2527 16.875H7.74727C7.7025 16.7488 7.63014 16.6342 7.53546 16.5395C7.44079 16.4449 7.32618 16.3725 7.2 16.3277V12.6223C7.32618 12.5775 7.44079 12.5051 7.53546 12.4105C7.63014 12.3158 7.7025 12.2012 7.74727 12.075ZM12 12.675C11.5226 12.675 11.0648 12.8646 10.7272 13.2022C10.3896 13.5398 10.2 13.9976 10.2 14.475C10.2 14.9524 10.3896 15.4102 10.7272 15.7478C11.0648 16.0854 11.5226 16.275 12 16.275C12.4774 16.275 12.9352 16.0854 13.2728 15.7478C13.6104 15.4102 13.8 14.9524 13.8 14.475C13.8 13.9976 13.6104 13.5398 13.2728 13.2022C12.9352 12.8646 12.4774 12.675 12 12.675ZM9 13.875C8.6688 13.875 8.4 14.1432 8.4 14.475C8.4 14.8068 8.6688 15.075 9 15.075C9.3312 15.075 9.6 14.8068 9.6 14.475C9.6 14.1432 9.3312 13.875 9 13.875ZM15 13.875C14.6688 13.875 14.4 14.1432 14.4 14.475C14.4 14.8068 14.6688 15.075 15 15.075C15.3312 15.075 15.6 14.8068 15.6 14.475C15.6 14.1432 15.3312 13.875 15 13.875Z" fill="white"/>
</svg>
