<svg width="24" height="24" viewBox="0 0 24 24" fill="none" xmlns="http://www.w3.org/2000/svg">
<rect width="24" height="24" rx="12" fill="#EB5757"/>
<path d="M6.6 10.7998C6.2688 10.7998 6 11.0686 6 11.3998V17.3998C6 17.731 6.2688 17.9998 6.6 17.9998H17.4C17.7312 17.9998 18 17.731 18 17.3998V11.3998C18 11.0686 17.7312 10.7998 17.4 10.7998H6.6ZM7.74727 11.9998H16.2527C16.2975 12.126 16.3699 12.2406 16.4645 12.3353C16.5592 12.4299 16.6738 12.5023 16.8 12.5471V16.2525C16.6738 16.2973 16.5592 16.3697 16.4645 16.4643C16.3699 16.559 16.2975 16.6736 16.2527 16.7998H7.74727C7.7025 16.6736 7.63014 16.559 7.53546 16.4643C7.44079 16.3697 7.32618 16.2973 7.2 16.2525V12.5471C7.32618 12.5023 7.44079 12.4299 7.53546 12.3353C7.63014 12.2406 7.7025 12.126 7.74727 11.9998ZM12 12.5998C11.5226 12.5998 11.0648 12.7894 10.7272 13.127C10.3896 13.4646 10.2 13.9224 10.2 14.3998C10.2 14.8772 10.3896 15.335 10.7272 15.6726C11.0648 16.0102 11.5226 16.1998 12 16.1998C12.4774 16.1998 12.9352 16.0102 13.2728 15.6726C13.6104 15.335 13.8 14.8772 13.8 14.3998C13.8 13.9224 13.6104 13.4646 13.2728 13.127C12.9352 12.7894 12.4774 12.5998 12 12.5998ZM9 13.7998C8.6688 13.7998 8.4 14.068 8.4 14.3998C8.4 14.7316 8.6688 14.9998 9 14.9998C9.3312 14.9998 9.6 14.7316 9.6 14.3998C9.6 14.068 9.3312 13.7998 9 13.7998ZM15 13.7998C14.6688 13.7998 14.4 14.068 14.4 14.3998C14.4 14.7316 14.6688 14.9998 15 14.9998C15.3312 14.9998 15.6 14.7316 15.6 14.3998C15.6 14.068 15.3312 13.7998 15 13.7998Z" fill="white"/>
<path d="M11.5266 6.1957C11.6574 6.0649 11.8287 6 12 6C12.1713 6 12.3427 6.0649 12.4735 6.1957L14.1563 7.87852C14.3489 8.07112 14.2113 8.4 13.9395 8.4H12.6V9.6C12.6012 9.67951 12.5865 9.75845 12.5568 9.83223C12.5272 9.90601 12.4832 9.97316 12.4273 10.0298C12.3715 10.0864 12.305 10.1314 12.2316 10.1621C12.1583 10.1927 12.0796 10.2085 12 10.2085C11.9205 10.2085 11.8418 10.1927 11.7685 10.1621C11.6951 10.1314 11.6286 10.0864 11.5727 10.0298C11.5169 9.97316 11.4729 9.90601 11.4433 9.83223C11.4136 9.75845 11.3989 9.67951 11.4 9.6V8.4H10.0606C9.78879 8.4 9.65119 8.07112 9.84379 7.87852L11.5266 6.1957Z" fill="white"/>
</svg>
