<svg width="65" height="64" viewBox="0 0 65 64" fill="none" xmlns="http://www.w3.org/2000/svg">
<path d="M32.5 5.33203C47.2276 5.33203 59.167 17.2714 59.167 31.999C59.167 46.7266 47.2276 58.666 32.5 58.666C17.7724 58.666 5.83301 46.7266 5.83301 31.999C5.83301 17.2714 17.7724 5.33203 32.5 5.33203Z" fill="#EB5757"/>
<path d="M32.4999 39.6504C34.2288 39.6504 35.6307 41.0524 35.6307 42.7812C35.6307 44.5101 34.2288 45.9121 32.4999 45.9121C30.771 45.9121 29.37 44.5101 29.37 42.7812C29.37 41.0524 30.771 39.6504 32.4999 39.6504ZM32.6307 18.0859C34.2874 18.0861 35.6307 19.4292 35.6307 21.0859V34.5635C35.6307 36.2202 34.2874 37.5633 32.6307 37.5635H32.37C30.7131 37.5635 29.37 36.2203 29.37 34.5635V21.0859C29.37 19.4291 30.7131 18.0859 32.37 18.0859H32.6307Z" fill="white"/>
</svg>
