<svg width="65" height="64" viewBox="0 0 65 64" fill="none" xmlns="http://www.w3.org/2000/svg">
<path d="M32.5 5.33203C47.2276 5.33203 59.167 17.2714 59.167 31.999C59.167 46.7266 47.2276 58.666 32.5 58.666C17.7724 58.666 5.83301 46.7266 5.83301 31.999C5.83301 17.2714 17.7724 5.33203 32.5 5.33203Z" fill="#FF7200"/>
<path d="M32.5 39.6504C34.2289 39.6504 35.6309 41.0524 35.6309 42.7812C35.6309 44.5101 34.2289 45.9121 32.5 45.9121C30.7711 45.9121 29.3701 44.5101 29.3701 42.7812C29.3701 41.0524 30.7711 39.6504 32.5 39.6504ZM32.6309 18.0859C34.2876 18.0861 35.6309 19.4292 35.6309 21.0859V34.5635C35.6309 36.2202 34.2876 37.5633 32.6309 37.5635H32.3701C30.7133 37.5635 29.3701 36.2203 29.3701 34.5635V21.0859C29.3701 19.4291 30.7133 18.0859 32.3701 18.0859H32.6309Z" fill="white"/>
</svg>
