<svg width="18" height="18" viewBox="0 0 18 18" fill="none" xmlns="http://www.w3.org/2000/svg">
<path fill-rule="evenodd" clip-rule="evenodd" d="M15.3776 2.6158C13.6855 0.9298 11.4352 0.001 9.03768 0C4.09762 0 0.0771696 4.001 0.0751599 8.9188C0.074557 10.4908 0.487133 12.0252 1.27149 13.378L0 18L4.75115 16.7596C6.06022 17.4702 7.53408 17.8448 9.03406 17.8452H9.03768C9.03748 17.8452 9.03788 17.8452 9.03768 17.8452C13.9771 17.8452 17.998 13.8438 18 8.9258C18.001 6.5426 17.0697 4.3018 15.3776 2.6158ZM5.39805 9.2434C5.28611 9.0946 4.48367 8.035 4.48367 6.938C4.48367 5.841 5.06224 5.3018 5.26743 5.0788C5.47261 4.8558 5.71537 4.8 5.86469 4.8C6.014 4.8 6.16352 4.8014 6.29394 4.8078C6.4314 4.8148 6.61608 4.7558 6.79775 5.1904C6.98445 5.6366 7.43219 6.7338 7.48826 6.8452C7.54433 6.9568 7.58151 7.0868 7.50695 7.2356C7.43239 7.3842 7.39501 7.4772 7.28308 7.6074C7.17114 7.7376 7.04795 7.898 6.94707 7.9978C6.83493 8.109 6.71817 8.2296 6.8488 8.4526C6.97942 8.6758 7.42878 9.4056 8.09456 9.9966C8.94986 10.756 9.67152 10.9912 9.89539 11.1028C10.1193 11.2144 10.2499 11.1958 10.3805 11.047C10.5111 10.8982 10.9404 10.3962 11.0897 10.1732C11.239 9.9502 11.3883 9.9874 11.5935 10.0616C11.7989 10.136 12.8998 10.6752 13.1236 10.7866C13.3475 10.8982 13.4968 10.954 13.5529 11.047C13.609 11.14 13.609 11.5862 13.4223 12.1068C13.2356 12.6274 12.3409 13.1026 11.9106 13.1664C11.5248 13.2238 11.0367 13.2478 10.5001 13.078C10.1749 12.9754 9.75773 12.8382 9.22337 12.6086C6.97721 11.6432 5.51019 9.3922 5.39805 9.2434Z" fill="#6C68BB"/>
</svg>
