<svg width="160" height="200" viewBox="0 0 160 200" fill="none" xmlns="http://www.w3.org/2000/svg">
<path d="M209.221 -24H46.7975C44.8555 -24.0017 42.9322 -23.6207 41.1375 -22.8789C39.3428 -22.137 37.7117 -21.0488 36.3376 -19.6765C34.9635 -18.3041 33.8731 -16.6744 33.1289 -14.8806C32.3846 -13.0867 32.001 -11.1638 32 -9.2216V153.201C32.0009 157.126 33.5603 160.889 36.3351 163.664C39.11 166.44 42.8733 167.999 46.7975 168H209.202C211.146 168.001 213.071 167.619 214.867 166.876C216.662 166.132 218.294 165.042 219.668 163.668C221.043 162.294 222.133 160.662 222.876 158.866C223.619 157.07 224.001 155.145 224 153.201V-9.23783C223.999 -11.1778 223.617 -13.0986 222.873 -14.8905C222.13 -16.6825 221.041 -18.3104 219.669 -19.6813C218.296 -21.0522 216.667 -22.1392 214.874 -22.8802C213.082 -23.6213 211.161 -24.0018 209.221 -24ZM198.993 140.186C198.993 140.931 198.697 141.645 198.171 142.172C197.644 142.699 196.929 142.995 196.184 142.995H59.8139C59.0668 142.996 58.3498 142.701 57.8199 142.175C57.29 141.648 56.9904 140.933 56.9869 140.186V3.81643C56.9904 3.06769 57.2894 2.35061 57.8188 1.82117C58.3482 1.29172 59.0652 0.992722 59.8139 0.989195H196.186C196.933 0.992744 197.648 1.29232 198.175 1.82227C198.702 2.35221 198.997 3.06931 198.995 3.81643L198.993 140.186Z" fill="white" fill-opacity="0.05"/>
<path d="M108.411 53.3523V81.6648C108.41 82.5559 108.056 83.4103 107.426 84.0403C106.796 84.6704 105.942 85.0245 105.051 85.0249H76.7409C75.848 85.0253 74.9913 84.672 74.3583 84.0423C73.7252 83.4126 73.3673 82.5578 73.3628 81.6648V53.3523C73.3675 52.4594 73.7254 51.6047 74.3585 50.975C74.9915 50.3454 75.8481 49.992 76.7409 49.9922H105.051C105.942 49.9926 106.796 50.3467 107.426 50.9767C108.056 51.6068 108.41 52.4612 108.411 53.3523Z" fill="white" fill-opacity="0.05"/>
<path d="M108.41 97.105V125.399C108.41 126.29 108.056 127.145 107.426 127.775C106.796 128.405 105.941 128.759 105.05 128.759H76.7404C75.8475 128.76 74.9909 128.406 74.3578 127.777C73.7247 127.147 73.3668 126.292 73.3623 125.399V97.105C73.3662 96.2102 73.7234 95.3531 74.356 94.7204C74.9887 94.0877 75.8457 93.7305 76.7404 93.7266H105.05C105.943 93.731 106.798 94.089 107.428 94.7221C108.057 95.3553 108.411 96.212 108.41 97.105Z" fill="white" fill-opacity="0.05"/>
<path d="M152.142 97.105V125.399C152.142 126.29 151.788 127.145 151.158 127.775C150.528 128.405 149.673 128.759 148.783 128.759H120.491C120.048 128.761 119.61 128.675 119.2 128.507C118.791 128.339 118.419 128.092 118.105 127.78C117.791 127.468 117.542 127.097 117.372 126.688C117.202 126.28 117.114 125.842 117.113 125.399V97.105C117.114 96.2092 117.47 95.3503 118.103 94.7169C118.736 94.0835 119.595 93.7273 120.491 93.7266H148.784C149.677 93.7314 150.531 94.0895 151.16 94.7226C151.79 95.3557 152.143 96.2123 152.142 97.105Z" fill="white" fill-opacity="0.05"/>
</svg>
