<svg width="84" height="12" viewBox="0 0 84 12" fill="none" xmlns="http://www.w3.org/2000/svg">
<path d="M5.04116 11.9995C4.16957 11.9995 3.43023 11.9198 2.82313 11.7602C2.21378 11.6005 1.71746 11.3405 1.33407 10.9801C0.949154 10.621 0.669376 10.1516 0.490875 9.57576C0.31334 8.99739 0.224693 8.29731 0.224854 7.47542V0.37871C0.224854 0.12605 0.357905 0 0.620226 0H2.47844C2.7299 0 2.85563 0.12629 2.85579 0.37871V7.21827C2.85579 7.6746 2.89416 8.05555 2.96704 8.35728C3.04282 8.66086 3.16453 8.90005 3.33828 9.07694C3.50962 9.25447 3.74258 9.38108 4.0337 9.45621C4.32732 9.52926 4.69606 9.56694 5.143 9.56694H12.1088C12.3607 9.56694 12.4868 9.69251 12.4871 9.94357V11.6229C12.4871 11.8754 12.3607 11.9996 12.1088 11.9996L5.04116 11.9995Z" fill="white"/>
<path d="M19.1254 11.9995C18.2538 11.9995 17.5142 11.9198 16.9068 11.7602C16.2974 11.6005 15.8017 11.3405 15.4196 10.9801C15.0357 10.621 14.7526 10.1516 14.5756 9.57576C14.3977 8.99739 14.3113 8.29747 14.3113 7.4755V0.37871C14.3113 0.12605 14.442 1.69336e-09 14.7067 1.69336e-09H16.5628C16.8165 1.69336e-09 16.9401 0.12605 16.9401 0.37871V7.21827C16.9401 7.6746 16.978 8.05555 17.0538 8.35728C17.1272 8.66086 17.2517 8.90005 17.4226 9.07694C17.594 9.25447 17.8273 9.38108 18.1185 9.45621C18.4122 9.52926 18.7809 9.56694 19.2274 9.56694H23.9931C24.4405 9.56694 24.8094 9.52926 25.1019 9.45621C25.3931 9.38108 25.6269 9.25447 25.7979 9.07694C25.9688 8.90005 26.0914 8.66078 26.1605 8.35728C26.2345 7.98226 26.2686 7.60043 26.2623 7.21827V0.37871C26.2623 0.12605 26.3892 1.69336e-09 26.6396 1.69336e-09H28.5164C28.7668 1.69336e-09 28.8946 0.12605 28.8946 0.37871V7.47542C28.8946 8.29747 28.807 8.9974 28.6362 9.57568C28.4629 10.1516 28.185 10.6212 27.802 10.98C27.4184 11.3415 26.9181 11.6003 26.305 11.7601C25.6908 11.9199 24.9482 11.9996 24.0774 11.9994L19.1254 11.9995Z" fill="white"/>
<path d="M42.2255 11.9997C42.0043 12.0021 41.7831 11.991 41.5631 11.9665C41.3986 11.9479 41.2385 11.9015 41.0897 11.8291C40.9397 11.7517 40.8032 11.6507 40.6854 11.5299C40.5212 11.3602 40.3688 11.1794 40.2293 10.9889L33.8148 2.62371C33.7617 2.55194 33.6788 2.508 33.5894 2.50415H33.437C33.3437 2.50415 33.2988 2.56133 33.2988 2.67463V11.6229C33.2988 11.8755 33.1728 11.9997 32.9209 11.9997H31.1142C30.8524 11.9997 30.7189 11.8755 30.7189 11.6229V1.78378C30.7189 1.08578 30.8448 0.616136 31.0981 0.36997C31.35 0.124286 31.7387 0.000160367 32.2675 0.000160367H33.7816C34.011 -0.00144332 34.2402 0.010424 34.4681 0.0358424C34.6366 0.0528414 34.8001 0.102315 34.9496 0.181537C35.0972 0.263004 35.231 0.366923 35.3463 0.489525C35.4996 0.655186 35.6429 0.829747 35.7753 1.01233L42.1721 9.37843C42.2179 9.45749 42.3051 9.50392 42.3965 9.49815H42.5522C42.6427 9.49815 42.6877 9.44089 42.6877 9.32511V0.378871C42.6877 0.12621 42.8144 -1.42609e-09 43.0679 0.000160367H44.8724C45.1257 0.000160367 45.2502 0.12621 45.2502 0.378871V10.2186C45.2502 10.9141 45.1257 11.3862 44.8724 11.6319C44.6216 11.8782 44.2299 11.9997 43.703 11.9997L42.2255 11.9997Z" fill="white"/>
<path d="M60.8736 12C60.6781 12 60.547 11.9268 60.4778 11.7784L59.2577 9.56734L55.4394 2.55531C55.4047 2.48274 55.3312 2.43616 55.2505 2.43576H55.1459C55.0652 2.43616 54.9915 2.48274 54.9566 2.55531L51.1742 9.56742L49.9864 11.7785C49.9063 11.9268 49.7756 12 49.5915 12H47.3549C47.2072 12 47.1178 11.9643 47.0888 11.8892C47.0595 11.816 47.0752 11.7206 47.1334 11.6055L52.7747 1.30299C53.0593 0.789334 53.3414 0.443339 53.617 0.266532C53.9045 0.0853963 54.2392 -0.00721658 54.5792 0.000481105H55.5929C56.028 0.000481105 56.3953 0.0891649 56.695 0.266452C56.9933 0.443259 57.284 0.789494 57.5709 1.30291L63.2627 11.6054C63.3214 11.7205 63.3342 11.816 63.3076 11.8892C63.2788 11.9641 63.1937 11.9999 63.0568 11.9999L60.8736 12ZM53.1876 12L54.3391 9.83773C54.4857 9.56133 54.7746 9.38781 55.0882 9.38781C55.3981 9.38781 55.6842 9.55732 55.8323 9.82858L57.0264 11.9997L53.1876 12Z" fill="white"/>
<path d="M68.9117 5.99532V7.5341H70.1624C70.3127 7.5341 70.4448 7.50247 70.5587 7.43913C70.6726 7.3758 70.7609 7.28584 70.8235 7.16933C70.8861 7.05291 70.9175 6.919 70.9175 6.76777C70.9175 6.61455 70.8861 6.47961 70.8235 6.36319C70.7609 6.24669 70.6726 6.15625 70.5587 6.09188C70.4448 6.02751 70.3127 5.99532 70.1624 5.99532H68.9117Z" fill="white"/>
<path d="M74.1465 9.28753C74.3515 9.28753 74.532 9.24612 74.6881 9.16339C74.8441 9.08059 74.9648 8.96313 75.0503 8.81087C75.1357 8.6586 75.1784 8.48234 75.1784 8.28207V6.97622C75.1784 6.77596 75.1357 6.59969 75.0503 6.44743C74.9648 6.29524 74.8441 6.17771 74.6881 6.09498C74.532 6.01217 74.3515 5.97077 74.1465 5.97077C73.9414 5.97077 73.7609 6.01217 73.6049 6.09498C73.4488 6.17771 73.3281 6.29524 73.2427 6.44743C73.1573 6.59969 73.1145 6.77596 73.1145 6.97622V8.28207C73.1145 8.48234 73.1573 8.6586 73.2427 8.81087C73.3281 8.96313 73.4488 9.08059 73.6049 9.16339C73.7609 9.24612 73.9414 9.28753 74.1465 9.28753Z" fill="white"/>
<path fill-rule="evenodd" clip-rule="evenodd" d="M78.84 3.25829C81.26 3.25829 83.2249 5.21683 83.2249 7.62915C83.2249 10.0415 81.26 12 78.84 12H69.7122C67.2921 12 65.3273 10.0415 65.3273 7.62915C65.3273 5.21683 67.2921 3.25829 69.7122 3.25829H78.84ZM68.9117 8.12885V9.85772H68.2147V5.40065H70.1385C70.4346 5.40065 70.6954 5.45731 70.9209 5.57079C71.1464 5.6842 71.3213 5.84409 71.4454 6.05047C71.5695 6.25686 71.6316 6.49598 71.6316 6.76777C71.6316 7.03956 71.5695 7.27821 71.4454 7.48356C71.3213 7.68891 71.1464 7.84785 70.9209 7.96022C70.6954 8.07259 70.4346 8.12885 70.1385 8.12885H68.9117ZM74.1465 9.90366C73.8003 9.90366 73.495 9.83571 73.2307 9.69982C72.9665 9.56392 72.7621 9.37185 72.6174 9.1235C72.4727 8.87524 72.4004 8.58763 72.4004 8.26062V6.99768C72.4004 6.67074 72.4727 6.38306 72.6174 6.13479C72.7621 5.88653 72.9665 5.69437 73.2307 5.55847C73.495 5.42258 73.8003 5.35463 74.1465 5.35463C74.4927 5.35463 74.7979 5.42258 75.0622 5.55847C75.3264 5.69437 75.5309 5.88653 75.6756 6.13479C75.8202 6.38306 75.8925 6.67074 75.8925 6.99768V8.26062C75.8925 8.58763 75.8202 8.87524 75.6756 9.1235C75.5309 9.37185 75.3264 9.56392 75.0622 9.69982C74.7979 9.83571 74.4927 9.90366 74.1465 9.90366ZM77.8333 9.84239C78.0475 9.88323 78.2741 9.90366 78.5133 9.90366C78.8983 9.90366 79.2269 9.85312 79.4991 9.75195C79.7713 9.65078 79.9791 9.50361 80.1227 9.31049C80.2662 9.11738 80.3379 8.88493 80.3379 8.61314V8.60703C80.3379 8.31481 80.2701 8.08435 80.1346 7.91579C79.9991 7.74716 79.8305 7.62509 79.6289 7.54944C79.4273 7.47386 79.1761 7.40846 78.8755 7.35331C78.8641 7.35124 78.8516 7.34917 78.8379 7.34719C78.8242 7.34512 78.8117 7.34305 78.8003 7.34099C78.7912 7.339 78.7827 7.33741 78.7747 7.33646C78.7667 7.33542 78.7581 7.33384 78.7491 7.33185C78.4916 7.28687 78.2906 7.2434 78.146 7.20152C78.0013 7.15964 77.8806 7.09479 77.7838 7.0069C77.687 6.919 77.6386 6.79845 77.6386 6.64515V6.64213C77.6386 6.41937 77.7326 6.24716 77.9205 6.12557C78.1084 6.00398 78.372 5.94319 78.7115 5.94319C78.9005 5.94319 79.089 5.97434 79.277 6.03673C79.4649 6.09903 79.6534 6.19249 79.8425 6.31718L80.2388 5.82057C80.0771 5.71638 79.9125 5.63 79.7451 5.56157C79.5776 5.49307 79.408 5.4415 79.2359 5.40677C79.064 5.37204 78.8891 5.35463 78.7115 5.35463C78.3401 5.35463 78.0224 5.40573 77.7581 5.50793C77.4939 5.61013 77.2929 5.75874 77.1551 5.95392C77.0173 6.1491 76.9484 6.38465 76.9484 6.66049V6.66359C76.9484 6.97829 77.0224 7.22099 77.1704 7.39161C77.3185 7.56223 77.4967 7.67977 77.7052 7.74414C77.9136 7.80851 78.1841 7.86621 78.5167 7.9173L78.568 7.92652C78.5748 7.92851 78.5822 7.92954 78.5902 7.92954C78.5981 7.92954 78.6055 7.93058 78.6124 7.93264C78.8379 7.96944 79.0219 8.00981 79.1642 8.05375C79.3066 8.09762 79.4227 8.16509 79.5127 8.25601C79.6028 8.347 79.6477 8.4701 79.6477 8.62538V8.62848C79.6477 8.8471 79.5486 9.01622 79.3504 9.13582C79.1522 9.25534 78.8732 9.3151 78.5133 9.3151C78.2468 9.3151 77.9996 9.27831 77.7719 9.2048C77.544 9.13121 77.3356 9.02083 77.1465 8.87373L76.7126 9.3519C76.8743 9.47452 77.048 9.57672 77.2336 9.65841C77.4193 9.74019 77.6192 9.80146 77.8333 9.84239Z" fill="white"/>
</svg>
