<svg width="127" height="24" viewBox="0 0 127 24" fill="none" xmlns="http://www.w3.org/2000/svg">
<path d="M10.2088 23.9984C8.47121 23.9984 6.99728 23.839 5.787 23.5201C4.57223 23.2005 3.58277 22.6804 2.81846 21.9597C2.05111 21.2416 1.49336 20.3028 1.13751 19.1511C0.783581 17.9945 0.606857 16.5942 0.607178 14.9504V0.757248C0.607178 0.251935 0.872424 0 1.39538 0H5.09983C5.60114 0 5.85179 0.252416 5.85211 0.757248V14.4361C5.85211 15.3488 5.9286 16.1108 6.0739 16.7141C6.22496 17.3213 6.46759 17.7998 6.81398 18.1534C7.15556 18.5086 7.61998 18.7617 8.20035 18.912C8.78568 19.0582 9.5208 19.1334 10.4118 19.1334H24.2985C24.8006 19.1334 25.0521 19.3846 25.0527 19.8868V23.2452C25.0527 23.7504 24.8008 23.9986 24.2985 23.9986L10.2088 23.9984Z" fill="white"/>
<path d="M38.2864 23.9984C36.5489 23.9984 35.0745 23.839 33.8635 23.5201C32.6488 23.2005 31.6606 22.6804 30.8989 21.9597C30.1334 21.2416 29.5691 20.3028 29.2161 19.1511C28.8616 17.9945 28.6893 16.5945 28.6893 14.9508V0.757248C28.6893 0.251935 28.9499 0 29.4775 0H33.1778C33.6836 0 33.9301 0.251935 33.9301 0.757248V14.4361C33.9301 15.3488 34.0056 16.1108 34.1567 16.7141C34.3029 17.3213 34.5512 17.7998 34.8918 18.1534C35.2335 18.5086 35.6988 18.7617 36.2793 18.912C36.8646 19.0582 37.5997 19.1334 38.4898 19.1334H47.9905C48.8825 19.1334 49.6179 19.0582 50.201 18.912C50.7815 18.7617 51.2477 18.5086 51.5885 18.1534C51.9293 17.7998 52.1736 17.3211 52.3114 16.7141C52.4589 15.9641 52.5269 15.2006 52.5144 14.4361V0.757248C52.5144 0.251935 52.7673 0 53.2665 0H57.008C57.5073 0 57.7621 0.251935 57.7621 0.757248V14.9504C57.7621 16.5945 57.5874 17.9945 57.2468 19.1509C56.9014 20.3027 56.3473 21.2421 55.5838 21.9596C54.8192 22.6825 53.8217 23.2003 52.5994 23.5199C51.375 23.8392 49.8947 23.9988 48.1586 23.9983L38.2864 23.9984Z" fill="white"/>
<path d="M84.3379 23.9988C83.8969 24.0036 83.4559 23.9814 83.0174 23.9327C82.6895 23.8955 82.3703 23.8025 82.0737 23.6577C81.7746 23.5029 81.5024 23.3009 81.2677 23.0593C80.9402 22.7198 80.6365 22.3584 80.3584 21.9775L67.5707 5.24717C67.4648 5.1038 67.2995 5.01576 67.1213 5.00822H66.8174C66.6315 5.00822 66.5419 5.1224 66.5419 5.349V23.2454C66.5419 23.7507 66.2908 23.9988 65.7887 23.9988H62.1868C61.665 23.9988 61.3988 23.7507 61.3988 23.2454V3.56734C61.3988 2.17151 61.6498 1.23225 62.1548 0.739922C62.6569 0.2484 63.4318 0.000313814 64.486 0.000313814H67.5046C67.9618 -0.00305387 68.4187 0.0206803 68.8731 0.0716767C69.2089 0.105514 69.535 0.20446 69.8329 0.363062C70.1272 0.525833 70.3941 0.733668 70.6239 0.979028C70.9295 1.31018 71.2151 1.6593 71.4791 2.02461L84.2314 18.7566C84.3228 18.9145 84.4966 19.0074 84.6788 18.996H84.9893C85.1697 18.996 85.2593 18.8813 85.2593 18.6498V0.757562C85.2593 0.252249 85.5119 -0.000167284 86.0172 0.000313814H89.6147C90.1197 0.000313814 90.3678 0.252249 90.3678 0.757562V20.4367C90.3678 21.8279 90.1197 22.772 89.6147 23.2633C89.1147 23.756 88.3339 23.9989 87.2835 23.9989L84.3379 23.9988Z" fill="white"/>
<path d="M121.514 23.9995C121.124 23.9995 120.863 23.8531 120.725 23.5564L118.293 19.1345L110.681 5.11045C110.612 4.96532 110.465 4.87231 110.304 4.87135H110.096C109.935 4.87215 109.788 4.96532 109.718 5.11045L102.178 19.1345L99.8098 23.5566C99.6502 23.8531 99.3896 23.9996 99.0226 23.9996H94.5639C94.2693 23.9996 94.0912 23.9281 94.0334 23.778C93.9749 23.6318 94.0062 23.4408 94.1223 23.2106L105.369 2.60602C105.936 1.57855 106.498 0.886572 107.048 0.533125C107.621 0.170698 108.288 -0.0143644 108.966 0.000870343H110.987C111.854 0.000870343 112.586 0.178235 113.184 0.532804C113.778 0.886572 114.358 1.57887 114.93 2.60586L126.277 23.2105C126.394 23.4406 126.419 23.6314 126.367 23.7779C126.309 23.9278 126.139 23.9993 125.867 23.9993L121.514 23.9995ZM106.192 23.9995L108.487 19.6751C108.779 19.1224 109.355 18.7752 109.981 18.7752C110.598 18.7752 111.169 19.1143 111.464 19.6569L113.845 23.9992L106.192 23.9995Z" fill="white"/>
</svg>
