<svg width="19" height="18" viewBox="0 0 19 18" fill="none" xmlns="http://www.w3.org/2000/svg">
<path d="M6 0C4.88962 0 3.975 0.914625 3.975 2.025V2.7H3.3C1.6872 2.7 0.375 4.0122 0.375 5.625V11.925C0.375 13.0415 1.28355 13.95 2.4 13.95H3.975V15.075C3.975 16.1854 4.88962 17.1 6 17.1H12.75C13.8604 17.1 14.775 16.1854 14.775 15.075V13.95H16.35C17.4664 13.95 18.375 13.0415 18.375 11.925V5.625C18.375 4.0122 17.0628 2.7 15.45 2.7H14.775V2.025C14.775 0.914625 13.8604 0 12.75 0H6ZM6 1.35H12.75C13.1309 1.35 13.425 1.64408 13.425 2.025V2.7H5.325V2.025C5.325 1.64408 5.61908 1.35 6 1.35ZM6 10.35H12.75C13.1309 10.35 13.425 10.6441 13.425 11.025V15.075C13.425 15.4559 13.1309 15.75 12.75 15.75H6C5.61908 15.75 5.325 15.4559 5.325 15.075V11.025C5.325 10.6441 5.61908 10.35 6 10.35Z" fill="#6C68BB"/>
</svg>
