<svg width="24" height="24" viewBox="0 0 24 24" fill="none" xmlns="http://www.w3.org/2000/svg">
<circle cx="12" cy="12" r="12" fill="#FBD140"/>
<path d="M12 6C8.6916 6 6 8.6916 6 12C6 15.3084 8.6916 18 12 18C15.3084 18 18 15.3084 18 12C18 8.6916 15.3084 6 12 6ZM13.3683 13.9683C13.2804 14.0562 13.1652 14.1 13.05 14.1C12.9348 14.1 12.8196 14.0562 12.7317 13.9683L11.2317 12.4683C11.1474 12.3837 11.1 12.2694 11.1 12.15V8.85C11.1 8.6013 11.3013 8.4 11.55 8.4C11.7987 8.4 12 8.6013 12 8.85V11.9637L13.3683 13.332C13.5438 13.5075 13.5438 13.7925 13.3683 13.9683Z" fill="#695302"/>
</svg>
