<svg width="25" height="24" viewBox="0 0 25 24" fill="none" xmlns="http://www.w3.org/2000/svg">
<g id="Icon Left">
<path id="Vector" d="M12.5 3C7.5293 3 3.5 7.0293 3.5 12C3.5 16.9707 7.5293 21 12.5 21C17.4707 21 21.5 16.9707 21.5 12C21.5 7.0293 17.4707 3 12.5 3ZM15.9024 14.4475C16.1662 14.7112 16.1662 15.1383 15.9024 15.402C15.7706 15.5343 15.5978 15.6 15.425 15.6C15.2522 15.6 15.0794 15.5343 14.9475 15.4024L12.5 12.9544L10.0525 15.402C9.9206 15.5343 9.7478 15.6 9.575 15.6C9.4022 15.6 9.2294 15.5343 9.09755 15.4024C8.83385 15.1388 8.83385 14.7117 9.09755 14.448L11.5455 12L9.098 9.55245C8.8343 9.28875 8.8343 8.8617 9.098 8.598C9.3617 8.3343 9.78875 8.3343 10.0525 8.598L12.5 11.0455L14.9475 8.598C15.2112 8.3343 15.6383 8.3343 15.902 8.598C16.1657 8.8617 16.1657 9.28875 15.902 9.55245L13.4544 12L15.9024 14.4475Z" fill="#6C68BB"/>
</g>
</svg>
