<svg width="73" height="72" viewBox="0 0 73 72" fill="none" xmlns="http://www.w3.org/2000/svg">
<g id="fluent_circle">
<path id="Subtract" fill-rule="evenodd" clip-rule="evenodd" d="M63.5 36C63.5 50.9117 51.4117 63 36.5 63C21.5883 63 9.5 50.9117 9.5 36C9.5 21.0883 21.5883 9 36.5 9C51.4117 9 63.5 21.0883 63.5 36ZM47.091 31.591C47.9697 30.7123 47.9697 29.2877 47.091 28.409C46.2123 27.5303 44.7877 27.5303 43.909 28.409L33.5 38.818L29.091 34.409C28.2123 33.5303 26.7877 33.5303 25.909 34.409C25.0303 35.2877 25.0303 36.7123 25.909 37.591L31.909 43.591C32.7877 44.4697 34.2123 44.4697 35.091 43.591L47.091 31.591Z" fill="white"/>
</g>
</svg>
