<svg width="33" height="33" viewBox="0 0 33 33" fill="none" xmlns="http://www.w3.org/2000/svg">
<path d="M22.9886 6.53516H10.2613C9.05594 6.53559 7.90004 7.01462 7.04769 7.86697C6.19535 8.71931 5.71632 9.87521 5.71588 11.0806V21.9897C5.71632 23.1951 6.19535 24.351 7.04769 25.2033C7.90004 26.0557 9.05594 26.5347 10.2613 26.5352H22.9886C24.194 26.5347 25.3499 26.0557 26.2022 25.2033C27.0546 24.351 27.5336 23.1951 27.5341 21.9897V11.0806C27.5336 9.87521 27.0546 8.71931 26.2022 7.86697C25.3499 7.01462 24.194 6.53559 22.9886 6.53516ZM10.2613 11.0806H11.1704V10.1715C11.1704 9.93041 11.2662 9.69918 11.4367 9.5287C11.6072 9.35821 11.8384 9.26243 12.0795 9.26243C12.3206 9.26243 12.5519 9.35821 12.7223 9.5287C12.8928 9.69918 12.9886 9.93041 12.9886 10.1715V11.0806H13.8977C14.1388 11.0806 14.37 11.1764 14.5405 11.3469C14.711 11.5174 14.8068 11.7486 14.8068 11.9897C14.8068 12.2308 14.711 12.462 14.5405 12.6325C14.37 12.803 14.1388 12.8988 13.8977 12.8988H12.9886V13.8079C12.9886 14.049 12.8928 14.2802 12.7223 14.4507C12.5519 14.6212 12.3206 14.717 12.0795 14.717C11.8384 14.717 11.6072 14.6212 11.4367 14.4507C11.2662 14.2802 11.1704 14.049 11.1704 13.8079V12.8988H10.2613C10.0202 12.8988 9.789 12.803 9.61851 12.6325C9.44802 12.462 9.35224 12.2308 9.35224 11.9897C9.35224 11.7486 9.44802 11.5174 9.61851 11.3469C9.789 11.1764 10.0202 11.0806 10.2613 11.0806ZM15.7159 24.717H10.2613C9.53867 24.7149 8.8462 24.4268 8.33519 23.9158C7.82419 23.4048 7.53617 22.7124 7.53406 21.9897V17.4442H15.7159V24.717ZM22.9886 22.8988H19.3522C19.1111 22.8988 18.8799 22.803 18.7094 22.6325C18.5389 22.462 18.4432 22.2308 18.4432 21.9897C18.4432 21.7486 18.5389 21.5174 18.7094 21.3469C18.8799 21.1764 19.1111 21.0806 19.3522 21.0806H22.9886C23.2297 21.0806 23.4609 21.1764 23.6314 21.3469C23.8019 21.5174 23.8977 21.7486 23.8977 21.9897C23.8977 22.2308 23.8019 22.462 23.6314 22.6325C23.4609 22.803 23.2297 22.8988 22.9886 22.8988ZM22.9886 20.1715H19.3522C19.1111 20.1715 18.8799 20.0757 18.7094 19.9053C18.5389 19.7348 18.4432 19.5035 18.4432 19.2624C18.4432 19.0213 18.5389 18.7901 18.7094 18.6196C18.8799 18.4491 19.1111 18.3533 19.3522 18.3533H22.9886C23.2297 18.3533 23.4609 18.4491 23.6314 18.6196C23.8019 18.7901 23.8977 19.0213 23.8977 19.2624C23.8977 19.5035 23.8019 19.7348 23.6314 19.9053C23.4609 20.0757 23.2297 20.1715 22.9886 20.1715ZM25.7159 15.6261H17.5341V8.35334H22.9886C23.7113 8.35545 24.4037 8.64346 24.9147 9.15447C25.4258 9.66548 25.7138 10.3579 25.7159 11.0806V15.6261Z" fill="white"/>
<path d="M22.9886 11.0806H19.3523C19.1112 11.0806 18.8799 11.1764 18.7094 11.3469C18.5389 11.5174 18.4432 11.7486 18.4432 11.9897C18.4432 12.2308 18.5389 12.462 18.7094 12.6325C18.8799 12.803 19.1112 12.8988 19.3523 12.8988H22.9886C23.2297 12.8988 23.461 12.803 23.6314 12.6325C23.8019 12.462 23.8977 12.2308 23.8977 11.9897C23.8977 11.7486 23.8019 11.5174 23.6314 11.3469C23.461 11.1764 23.2297 11.0806 22.9886 11.0806Z" fill="white"/>
<path d="M10.1511 23.0091C10.3216 23.1795 10.5528 23.2753 10.7939 23.2753C11.035 23.2753 11.2662 23.1795 11.4367 23.0091L12.0795 22.3662L12.7223 23.0091C12.8931 23.1783 13.1239 23.273 13.3643 23.2725C13.6048 23.272 13.8352 23.1762 14.0052 23.0062C14.1752 22.8362 14.2709 22.6058 14.2714 22.3654C14.272 22.125 14.1772 21.8942 14.008 21.7234L13.3652 21.0806L14.008 20.4378C14.093 20.3535 14.1605 20.2533 14.2067 20.1428C14.2529 20.0323 14.2768 19.9139 14.2771 19.7941C14.2773 19.6744 14.2539 19.5558 14.2083 19.4452C14.1626 19.3345 14.0955 19.234 14.0108 19.1493C13.9262 19.0647 13.8256 18.9976 13.715 18.9519C13.6043 18.9062 13.4857 18.8828 13.366 18.8831C13.2463 18.8833 13.1278 18.9072 13.0173 18.9534C12.9069 18.9996 12.8066 19.0671 12.7223 19.1521L12.0795 19.795L11.4367 19.1521C11.3524 19.0671 11.2522 18.9996 11.1417 18.9534C11.0313 18.9072 10.9128 18.8833 10.7931 18.8831C10.6734 18.8828 10.5548 18.9062 10.4441 18.9519C10.3334 18.9976 10.2329 19.0647 10.1483 19.1493C10.0636 19.234 9.9965 19.3345 9.95081 19.4452C9.90512 19.5558 9.88173 19.6744 9.88199 19.7941C9.88225 19.9139 9.90616 20.0323 9.95234 20.1428C9.99851 20.2533 10.0661 20.3535 10.1511 20.4378L10.7939 21.0806L10.1511 21.7234C9.98059 21.8939 9.88482 22.1251 9.88482 22.3662C9.88482 22.6073 9.98059 22.8386 10.1511 23.0091Z" fill="white"/>
</svg>
