<svg width="17" height="16" viewBox="0 0 17 16" fill="none" xmlns="http://www.w3.org/2000/svg">
<g id="fluent_download">
<path id="Vector" d="M8.49017 2.00007C8.31348 2.00266 8.14504 2.07524 8.02186 2.20185C7.89869 2.32847 7.83086 2.49877 7.83327 2.67534V9.06107L6.97129 8.19975C6.90986 8.13582 6.83628 8.08477 6.75487 8.04961C6.67345 8.01445 6.58582 7.99587 6.49713 7.99497C6.40844 7.99407 6.32045 8.01086 6.23833 8.04436C6.15622 8.07786 6.08161 8.1274 6.01889 8.19007C5.95617 8.25274 5.9066 8.32728 5.87307 8.40934C5.83955 8.4914 5.82274 8.57931 5.82365 8.66794C5.82455 8.75656 5.84314 8.84412 5.87833 8.92548C5.91352 9.00683 5.9646 9.08036 6.02859 9.14174L8.02859 11.1402C8.15362 11.2651 8.32316 11.3352 8.49994 11.3352C8.67672 11.3352 8.84627 11.2651 8.97129 11.1402L10.9713 9.14174C11.0353 9.08036 11.0864 9.00683 11.1216 8.92548C11.1567 8.84412 11.1753 8.75656 11.1762 8.66794C11.1771 8.57931 11.1603 8.4914 11.1268 8.40934C11.0933 8.32728 11.0437 8.25274 10.981 8.19007C10.9183 8.1274 10.8437 8.07786 10.7615 8.04436C10.6794 8.01086 10.5914 7.99407 10.5028 7.99497C10.4141 7.99587 10.3264 8.01445 10.245 8.04961C10.1636 8.08477 10.09 8.13582 10.0286 8.19975L9.16661 9.06107V2.67534C9.16783 2.58627 9.15116 2.49786 9.11759 2.41534C9.08402 2.33282 9.03423 2.25786 8.97116 2.19491C8.90809 2.13195 8.83303 2.08227 8.75042 2.0488C8.6678 2.01534 8.57931 1.99877 8.49017 2.00007ZM3.15684 10.327C2.98014 10.3296 2.8117 10.4022 2.68853 10.5288C2.56535 10.6554 2.49752 10.8257 2.49994 11.0023V12.0015C2.49994 13.0974 3.40326 14 4.49994 14H12.4999C13.5966 14 14.4999 13.0974 14.4999 12.0015V11.0023C14.5012 10.914 14.4849 10.8264 14.4519 10.7445C14.419 10.6625 14.3701 10.588 14.308 10.5251C14.246 10.4623 14.1721 10.4123 14.0906 10.3783C14.0091 10.3442 13.9216 10.3267 13.8333 10.3267C13.7449 10.3267 13.6575 10.3442 13.5759 10.3783C13.4944 10.4123 13.4205 10.4623 13.3585 10.5251C13.2965 10.588 13.2476 10.6625 13.2146 10.7445C13.1817 10.8264 13.1654 10.914 13.1666 11.0023V12.0015C13.1666 12.3772 12.8759 12.6677 12.4999 12.6677H4.49994C4.12395 12.6677 3.83327 12.3772 3.83327 12.0015V11.0023C3.83449 10.9132 3.81782 10.8248 3.78425 10.7423C3.75068 10.6598 3.70089 10.5848 3.63783 10.5219C3.57476 10.4589 3.4997 10.4092 3.41709 10.3758C3.33447 10.3423 3.24598 10.3257 3.15684 10.327Z" fill="white"/>
</g>
</svg>
