<svg width="25" height="24" viewBox="0 0 25 24" fill="none" xmlns="http://www.w3.org/2000/svg">
<g id="edit">
<path id="Vector" d="M19.5902 3C19.0158 3.00013 18.442 3.21852 18.0052 3.65527L11.9974 9.66309C11.8419 9.81759 11.7288 10.0107 11.6683 10.2217L10.8626 13.042C10.7881 13.304 10.8601 13.5858 11.0531 13.7783C11.1956 13.9208 11.3873 13.998 11.5833 13.998C11.6523 13.998 11.7214 13.9892 11.7894 13.9697L14.6107 13.1631C14.8227 13.1026 15.0163 12.989 15.1683 12.835L21.1761 6.82715C21.6001 6.40315 21.8333 5.84021 21.8333 5.24121C21.8333 4.64221 21.6001 4.07877 21.1761 3.65527C20.7389 3.21802 20.1645 2.99988 19.5902 3ZM7.08333 5.49902C5.29333 5.49902 3.83333 6.95902 3.83333 8.74902V17.249C3.83333 19.039 5.29333 20.499 7.08333 20.499H11.8333H17.5833C19.3733 20.499 20.8333 19.039 20.8333 17.249V8.74902C20.8333 8.69402 20.8334 8.63887 20.8284 8.58887L15.8783 13.5391C15.6082 13.8141 15.2631 14.019 14.8831 14.124L12.0638 14.9287C11.9088 14.9737 11.7483 14.999 11.5833 14.999C11.1233 14.999 10.673 14.8143 10.348 14.4893C9.89798 14.0393 9.72876 13.3786 9.89876 12.7686L10.7083 9.94434C10.8133 9.56934 11.0184 9.2291 11.2884 8.9541L14.7484 5.49902H7.08333Z" fill="#6C68BB"/>
</g>
</svg>
