<svg width="12" height="12" viewBox="0 0 12 12" fill="none" xmlns="http://www.w3.org/2000/svg">
<path d="M4.33333 7.33333V11.5C4.33333 11.6873 4.438 11.859 4.60433 11.9447C4.67667 11.9817 4.75533 12 4.83333 12C4.93567 12 5.03733 11.9687 5.124 11.907L7.45733 10.2403C7.58867 10.1463 7.66667 9.99467 7.66667 9.83333V7.33333H4.33333ZM11.1667 0H0.833333C0.373667 0 0 0.374 0 0.833333V1.863C0 2.634 0.347333 3.34967 0.952667 3.82667L4.13433 6.33333H7.86567L11.047 3.82667C11.6527 3.34967 12 2.634 12 1.863V0.833333C12 0.374 11.6263 0 11.1667 0ZM11 1.863C11 1.909 10.9963 1.95467 10.9923 2H1.00767C1.00367 1.95467 1 1.909 1 1.863V1H11V1.863Z" fill="#4D4F5C"/>
</svg>
