<svg width="17" height="16" viewBox="0 0 17 16" fill="none" xmlns="http://www.w3.org/2000/svg">
<path d="M8.5 2C5.1916 2 2.5 4.6916 2.5 8C2.5 11.3084 5.1916 14 8.5 14C11.8084 14 14.5 11.3084 14.5 8C14.5 4.6916 11.8084 2 8.5 2ZM8.95 10.85C8.95 11.0984 8.7484 11.3 8.5 11.3C8.2516 11.3 8.05 11.0984 8.05 10.85V7.55C8.05 7.3016 8.2516 7.1 8.5 7.1C8.7484 7.1 8.95 7.3016 8.95 7.55V10.85ZM8.5 6.2C8.1685 6.2 7.9 5.9315 7.9 5.6C7.9 5.2685 8.1685 5 8.5 5C8.8315 5 9.1 5.2685 9.1 5.6C9.1 5.9315 8.8315 6.2 8.5 6.2Z" fill="#6C68BB"/>
</svg>
