<svg width="58" height="32" viewBox="0 0 58 32" fill="none" xmlns="http://www.w3.org/2000/svg">
<path d="M29.7952 8.23461C27.8302 8.22559 25.9176 8.86807 24.3566 10.0616L23.5462 10.7013L22.757 10.0616C21.196 8.86807 19.2834 8.22559 17.3184 8.23461C15.1287 8.26423 13.0343 9.13467 11.4687 10.6657C9.90317 12.1968 8.98634 14.2712 8.90807 16.4594V29.8666H13.2732V16.5163C13.2759 15.9943 13.3827 15.4781 13.5873 14.9979C13.792 14.5177 14.0905 14.0831 14.4652 13.7197C14.8399 13.3562 15.2834 13.0712 15.7696 12.8813C16.2559 12.6914 16.7752 12.6004 17.2971 12.6136C17.8227 12.6004 18.3458 12.6908 18.8365 12.8798C19.3272 13.0688 19.7759 13.3527 20.1568 13.7151C20.5377 14.0775 20.8435 14.5115 21.0567 14.9921C21.2699 15.4727 21.3862 15.9907 21.3991 16.5163V27.5846C21.3918 27.8638 21.4425 28.1414 21.5479 28.3999C21.6533 28.6585 21.8113 28.8924 22.0117 29.0868C22.2122 29.2812 22.4508 29.4319 22.7124 29.5294C22.9741 29.6269 23.2531 29.6691 23.5319 29.6533C24.0867 29.6535 24.6197 29.4377 25.0179 29.0514C25.4161 28.6652 25.6481 28.1391 25.6647 27.5846V16.5092C25.7087 15.4555 26.1582 14.4596 26.9194 13.7297C27.6805 12.9997 28.6944 12.5921 29.749 12.5921C30.8037 12.5921 31.8175 12.9997 32.5787 13.7297C33.3398 14.4596 33.7894 15.4555 33.8333 16.5092V29.8666H38.2056V16.4594C38.1273 14.2712 37.2105 12.1968 35.6449 10.6657C34.0793 9.13467 31.9849 8.26423 29.7952 8.23461Z" fill="white"/>
<path d="M1.84852 31.9992C1.36017 31.9992 0.891824 31.8052 0.54651 31.4599C0.201197 31.1146 0.00720215 30.6463 0.00720215 30.158V10.2535C0.0669572 9.13748 0.550518 8.08636 1.35913 7.3148C2.16775 6.54324 3.24043 6.10944 4.35811 6.10198C5.45868 6.10632 6.517 6.52621 7.32115 7.27757C8.1253 8.02893 8.61593 9.0563 8.69479 10.154V31.9992H1.84852Z" fill="white"/>
<path d="M31.6437 31.9992V16.5163C31.6197 16.0341 31.4059 15.581 31.0489 15.256C30.6919 14.931 30.2207 14.7605 29.7384 14.7818C29.2526 14.7565 28.7765 14.9236 28.4132 15.247C28.0499 15.5703 27.8287 16.0238 27.7975 16.5092V27.6415C27.761 28.7526 27.297 29.8066 26.5023 30.584C25.7077 31.3614 24.6436 31.8021 23.5319 31.8144C22.9683 31.827 22.408 31.7253 21.8847 31.5154C21.3615 31.3055 20.8862 30.9918 20.4876 30.5932C20.089 30.1946 19.7752 29.7194 19.5653 29.1962C19.3554 28.673 19.2537 28.1127 19.2663 27.5491V16.5163C19.2388 16.029 19.0189 15.5726 18.655 15.2473C18.2911 14.9221 17.8129 14.7546 17.3255 14.7818C17.0881 14.7683 16.8504 14.803 16.6268 14.8838C16.4032 14.9646 16.1982 15.0897 16.0242 15.2518C15.8502 15.4138 15.7108 15.6094 15.6143 15.8267C15.5178 16.044 15.4663 16.2786 15.4629 16.5163V31.9992H6.74684V16.4594C6.76567 15.0939 7.05495 13.7456 7.59796 12.4925C8.14098 11.2394 8.92696 10.1063 9.91048 9.15875C11.8757 7.20933 14.522 6.10042 17.29 6.06644C19.5186 6.06344 21.6964 6.73233 23.539 7.9858C25.3833 6.73016 27.5641 6.06113 29.7952 6.06644C32.5632 6.10042 35.2095 7.20933 37.1747 9.15875C38.1576 10.1068 38.9432 11.24 39.4862 12.493C40.0291 13.746 40.3188 15.094 40.3384 16.4594V31.9992H31.6437Z" fill="white"/>
<path d="M38.1132 31.9992V23.4687H48.8624C48.8857 23.4651 48.9067 23.4529 48.9213 23.4344C48.9358 23.4159 48.9427 23.3926 48.9406 23.3692C48.9427 23.3457 48.9358 23.3224 48.9213 23.3039C48.9067 23.2854 48.8857 23.2732 48.8624 23.2696H44.2698C43.6708 23.3479 43.062 23.298 42.4837 23.1233C41.9054 22.9486 41.3709 22.653 40.9154 22.2563C40.4599 21.8595 40.0939 21.3704 39.8416 20.8216C39.5893 20.2727 39.4565 19.6766 39.4519 19.0725C39.4473 18.4685 39.5711 17.8704 39.8151 17.3178C40.0591 16.7652 40.4177 16.2707 40.8671 15.867C41.3165 15.4634 41.8466 15.1598 42.4222 14.9764C42.9977 14.793 43.6057 14.7339 44.2058 14.8031H48.8553C48.8817 14.8031 48.907 14.7926 48.9257 14.774C48.9444 14.7553 48.9549 14.73 48.9549 14.7036C48.9549 14.6772 48.9444 14.6519 48.9257 14.6332C48.907 14.6145 48.8817 14.6041 48.8553 14.6041H38.1132V8.34124C38.115 7.74981 38.3508 7.18315 38.7691 6.76494C39.1873 6.34674 39.754 6.11096 40.3455 6.10909H48.9406C50.0664 6.10906 51.181 6.33181 52.2202 6.7645C53.2595 7.19719 54.2028 7.83127 54.9958 8.63019C55.7889 9.42911 56.4159 10.3771 56.8409 11.4194C57.2658 12.4618 57.4803 13.578 57.4718 14.7036C57.468 16.2314 57.0635 17.7315 56.2988 19.0541C57.0644 20.379 57.4689 21.8816 57.4718 23.4118C57.4793 24.5344 57.2651 25.6475 56.8415 26.6872C56.4179 27.7269 55.7933 28.6727 55.0033 29.4705C54.2134 30.2683 53.2738 30.9023 52.2383 31.3363C51.2028 31.7702 50.0918 31.9955 48.9691 31.9992H38.1132Z" fill="white"/>
<path d="M4.35801 8.25781C3.78968 8.2664 3.24618 8.49213 2.83901 8.88869C2.43185 9.28525 2.19188 9.82258 2.16833 10.3904V29.8613H6.54057V10.298C6.49951 9.74602 6.2522 9.22967 5.84781 8.85166C5.44342 8.47364 4.91157 8.26164 4.35801 8.25781Z" fill="white"/>
<path d="M4.35102 6.52475C4.78174 6.51914 5.20117 6.3862 5.55647 6.1427C5.91178 5.8992 6.18709 5.55601 6.34771 5.15635C6.50834 4.7567 6.54711 4.31846 6.45913 3.89682C6.37115 3.47518 6.16037 3.089 5.85332 2.78691C5.54628 2.48482 5.1567 2.28034 4.73365 2.19922C4.31061 2.11809 3.87302 2.16395 3.47599 2.33102C3.07896 2.49809 2.74025 2.7789 2.50252 3.13808C2.26478 3.49726 2.13866 3.91875 2.14003 4.34947C2.13999 4.63815 2.19741 4.92394 2.30896 5.19021C2.4205 5.45647 2.58393 5.69786 2.78972 5.90033C2.99551 6.10279 3.23954 6.26228 3.50759 6.36948C3.77565 6.47668 4.06236 6.52947 4.35102 6.52475Z" fill="white"/>
<path d="M4.3509 8.6869C3.49117 8.6883 2.65037 8.43458 1.93494 7.95786C1.21952 7.48113 0.661667 6.80285 0.332014 6.0089C0.00236178 5.21495 -0.0842589 4.34104 0.0831207 3.49783C0.2505 2.65462 0.664352 1.88004 1.27227 1.27217C1.88019 0.664299 2.65483 0.25048 3.49811 0.0831141C4.34138 -0.0842522 5.21536 0.0023616 6.00937 0.331988C6.80339 0.661614 7.48173 1.21943 7.95849 1.93479C8.43525 2.65016 8.68899 3.4909 8.68758 4.35056C8.6857 5.50005 8.2282 6.60192 7.41532 7.41474C6.60244 8.22755 5.50048 8.68502 4.3509 8.6869Z" fill="white"/>
<path d="M37.267 12.6038H12.1285V31.9965H37.267V12.6038Z" fill="white"/>
<path d="M49.6444 12.6038H38.9591V24.7456H49.6444V12.6038Z" fill="white"/>
<path d="M53.6539 19.0453L54.0236 18.5406C54.8386 17.4237 55.2791 16.0774 55.2819 14.6948C55.282 13.009 54.6167 11.3913 53.4305 10.1932C52.2444 8.99523 50.6334 8.31373 48.9475 8.29688H40.2812V12.4697H48.8622C49.4618 12.4697 50.0368 12.7079 50.4608 13.1318C50.8848 13.5558 51.123 14.1308 51.123 14.7303C51.123 15.3298 50.8848 15.9048 50.4608 16.3288C50.0368 16.7527 49.4618 16.9909 48.8622 16.9909H44.2056C43.6569 16.9909 43.1307 17.2088 42.7427 17.5968C42.3547 17.9847 42.1368 18.5109 42.1368 19.0595C42.1368 19.6082 42.3547 20.1343 42.7427 20.5223C43.1307 20.9102 43.6569 21.1282 44.2056 21.1282H48.8622C49.4408 21.1606 49.985 21.4133 50.3832 21.8343C50.7813 22.2554 51.0031 22.8129 51.0031 23.3923C51.0031 23.9718 50.7813 24.5293 50.3832 24.9503C49.985 25.3714 49.4408 25.624 48.8622 25.6565H40.2812V29.8648H48.9617C50.6513 29.8442 52.2641 29.1562 53.4481 27.9509C54.6322 26.7456 55.2914 25.1209 55.2819 23.4314C55.2898 22.0406 54.8539 20.6834 54.0378 19.5571L53.6539 19.0453Z" fill="white"/>
<path d="M2.14003 4.34947C2.13866 3.91875 2.26478 3.49726 2.50252 3.13808C2.74025 2.7789 3.07896 2.49809 3.47599 2.33102C3.87302 2.16395 4.31061 2.11809 4.73365 2.19922C5.1567 2.28034 5.54628 2.48482 5.85332 2.78691C6.16037 3.089 6.37115 3.47518 6.45913 3.89682C6.54711 4.31846 6.50834 4.7567 6.34771 5.15635C6.18709 5.55601 5.91178 5.8992 5.55647 6.1427C5.20117 6.3862 4.78174 6.51914 4.35102 6.52475C4.06236 6.52947 3.77565 6.47668 3.50759 6.36948C3.23954 6.26228 2.99551 6.10279 2.78972 5.90033C2.58393 5.69786 2.4205 5.45647 2.30896 5.19021C2.19741 4.92394 2.13999 4.63815 2.14003 4.34947Z" fill="#ED1C24"/>
<path d="M4.35801 8.25781C3.78968 8.2664 3.24618 8.49213 2.83901 8.88869C2.43185 9.28525 2.19188 9.82258 2.16833 10.3904V29.8613H6.54057V10.298C6.49951 9.74602 6.2522 9.22967 5.84781 8.85166C5.44342 8.47364 4.91157 8.26164 4.35801 8.25781Z" fill="#221E20"/>
<path d="M29.795 8.22666C27.83 8.21763 25.9174 8.86012 24.3564 10.0536L23.5459 10.6934L22.7568 10.0536C21.1958 8.86012 19.2832 8.21763 17.3182 8.22666C15.1285 8.25628 13.0341 9.12671 11.4685 10.6578C9.90293 12.1888 8.98611 14.2632 8.90784 16.4515V29.8586H13.273V16.5084C13.2756 15.9864 13.3824 15.4701 13.5871 14.9899C13.7918 14.5097 14.0902 14.0752 14.4649 13.7117C14.8397 13.3483 15.2832 13.0633 15.7694 12.8733C16.2557 12.6834 16.775 12.5924 17.2968 12.6056C17.8225 12.5924 18.3456 12.6829 18.8363 12.8719C19.327 13.0609 19.7756 13.3447 20.1566 13.7071C20.5375 14.0696 20.8433 14.5035 21.0565 14.9841C21.2696 15.4648 21.386 15.9827 21.3989 16.5084V27.5767C21.3916 27.8558 21.4422 28.1334 21.5477 28.392C21.6531 28.6505 21.811 28.8844 22.0115 29.0788C22.2119 29.2733 22.4505 29.424 22.7122 29.5215C22.9739 29.619 23.2529 29.6612 23.5317 29.6453C24.0864 29.6456 24.6195 29.4297 25.0176 29.0435C25.4158 28.6573 25.6479 28.1311 25.6645 27.5767V16.5012C25.7085 15.4476 26.158 14.4517 26.9192 13.7217C27.6803 12.9917 28.6941 12.5841 29.7488 12.5841C30.8035 12.5841 31.8173 12.9917 32.5785 13.7217C33.3396 14.4517 33.7891 15.4476 33.8331 16.5012V29.8586H38.2053V16.4515C38.1271 14.2632 37.2102 12.1888 35.6447 10.6578C34.0791 9.12671 31.9847 8.25628 29.795 8.22666Z" fill="#221E20"/>
<path d="M48.8622 21.0997C49.4408 21.1322 49.985 21.3849 50.3832 21.8059C50.7813 22.227 51.0031 22.7844 51.0031 23.3639C51.0031 23.9433 50.7813 24.5008 50.3832 24.9219C49.985 25.3429 49.4408 25.5956 48.8622 25.628H40.2812V29.8648H48.9617C50.6513 29.8442 52.2641 29.1562 53.4481 27.9509C54.6322 26.7456 55.2914 25.1209 55.2819 23.4314C55.2898 22.0406 54.8539 20.6834 54.0378 19.5571L53.661 19.0453L54.0307 18.5406C54.8457 17.4237 55.2862 16.0774 55.289 14.6948C55.2891 13.009 54.6238 11.3913 53.4377 10.1932C52.2515 8.99523 50.6405 8.31373 48.9546 8.29688H40.2812V12.4697H48.8622C49.4618 12.4697 50.0368 12.7079 50.4608 13.1318C50.8848 13.5558 51.123 14.1308 51.123 14.7303C51.123 15.3298 50.8848 15.9048 50.4608 16.3288C50.0368 16.7527 49.4618 16.9909 48.8622 16.9909H44.2056C43.6569 16.9909 43.1307 17.2088 42.7427 17.5968C42.3547 17.9847 42.1368 18.5109 42.1368 19.0595C42.1368 19.6082 42.3547 20.1343 42.7427 20.5223C43.1307 20.9102 43.6569 21.1282 44.2056 21.1282L48.8622 21.0997Z" fill="#221E20"/>
</svg>
