<svg width="16" height="16" viewBox="0 0 16 16" fill="none" xmlns="http://www.w3.org/2000/svg">
<path fill-rule="evenodd" clip-rule="evenodd" d="M9.37351 3C8.89043 3 8.49881 3.39162 8.49881 3.8747C8.49881 4.35779 8.89043 4.7494 9.37351 4.7494C9.85532 4.7494 10.2461 4.35986 10.2482 3.87853L10.2482 3.87469L10.2482 3.87086C10.2461 3.38954 9.85531 3 9.37351 3ZM11.1808 3.37469C10.962 2.58207 10.2357 2 9.37351 2C8.5113 2 7.78503 2.58207 7.56623 3.37469H2.5C2.22386 3.37469 2 3.59855 2 3.87469C2 4.15084 2.22386 4.37469 2.5 4.37469H7.56622C7.78502 5.16733 8.51129 5.7494 9.37351 5.7494C10.2357 5.7494 10.962 5.16733 11.1808 4.37469H13.4976C13.7737 4.37469 13.9976 4.15084 13.9976 3.87469C13.9976 3.59855 13.7737 3.37469 13.4976 3.37469H11.1808ZM3.44211 7.49881H2.5C2.22386 7.49881 2 7.72267 2 7.99881C2 8.27495 2.22386 8.49881 2.5 8.49881H3.44211C3.66091 9.29145 4.38717 9.87352 5.24939 9.87352C6.11161 9.87352 6.83788 9.29145 7.05668 8.49881H13.4976C13.7738 8.49881 13.9976 8.27495 13.9976 7.99881C13.9976 7.72267 13.7738 7.49881 13.4976 7.49881H7.05668C6.83787 6.70619 6.11161 6.12412 5.24939 6.12412C4.38718 6.12412 3.66092 6.70619 3.44211 7.49881ZM4.3747 7.99634C4.37603 7.5144 4.76714 7.12412 5.24939 7.12412C5.73248 7.12412 6.1241 7.51574 6.1241 7.99882C6.1241 8.4819 5.73248 8.87352 5.24939 8.87352C4.76713 8.87352 4.37602 8.48324 4.3747 8.00128L4.3747 7.99881L4.3747 7.99634ZM2.5 11.6229H9.62826C9.84705 10.8303 10.5733 10.2482 11.4356 10.2482C12.2978 10.2482 13.0241 10.8303 13.2428 11.6229H13.4976C13.7738 11.6229 13.9976 11.8468 13.9976 12.1229C13.9976 12.3991 13.7738 12.6229 13.4976 12.6229H13.2428C13.024 13.4155 12.2978 13.9976 11.4356 13.9976C10.5733 13.9976 9.84709 13.4155 9.62827 12.6229H2.5C2.22386 12.6229 2 12.3991 2 12.1229C2 11.8468 2.22386 11.6229 2.5 11.6229ZM11.4356 11.2482C10.9533 11.2482 10.5622 11.6384 10.5609 12.1203L10.5609 12.1229L10.5609 12.1255C10.5623 12.6074 10.9533 12.9976 11.4356 12.9976C11.9186 12.9976 12.3103 12.606 12.3103 12.1229C12.3103 11.6398 11.9186 11.2482 11.4356 11.2482Z" fill="#141414"/>
</svg>
