<svg width="25" height="18" viewBox="0 0 25 18" fill="none" xmlns="http://www.w3.org/2000/svg">
<path fill-rule="evenodd" clip-rule="evenodd" d="M0.5 5.72727C0.5 2.56419 3.00721 0 6.1 0H18.9C21.9928 0 24.5 2.56419 24.5 5.72727V13.1365C24.5 15.8225 22.3709 18 19.7446 18C17.9434 18 16.2967 16.9592 15.4912 15.3115L15.2056 14.7273H9.79443L9.50879 15.3115C8.70326 16.9592 7.05664 18 5.25542 18C2.62907 18 0.5 15.8225 0.5 13.1365V5.72727ZM6.9 9.81818V8.18182H5.3V6.54545H6.9V4.90909H8.5V6.54545H10.1V8.18182H8.5V9.81818H6.9ZM16.5 9.81818H14.9V8.18182H16.5V9.81818ZM18.1 6.54545H19.7V4.90909H18.1V6.54545Z" fill="#6C68BB"/>
</svg>
