<svg width="20" height="24" viewBox="0 0 20 24" fill="none" xmlns="http://www.w3.org/2000/svg">
<path fill-rule="evenodd" clip-rule="evenodd" d="M13.1112 12.6316C16.5476 12.6316 19.3334 9.8039 19.3334 6.31579C19.3334 2.82768 16.5476 0 13.1112 0C9.67475 0 6.88897 2.82768 6.88897 6.31579C6.88897 9.8039 9.67475 12.6316 13.1112 12.6316ZM11.7181 8.77495C11.2285 8.53261 10.8175 8.15642 10.533 7.69001L11.1447 7.07832C11.2963 6.92666 11.1889 6.66735 10.9744 6.66735H9.14823C8.88231 6.66735 8.66675 6.88291 8.66675 7.14883V8.97504C8.66675 9.18951 8.92606 9.29692 9.07772 9.14527L9.83771 8.38527C10.2589 8.99031 10.8448 9.46181 11.526 9.74385C12.2071 10.0259 12.9548 10.1066 13.6805 9.97644C14.4061 9.84628 15.0792 9.51069 15.6198 9.0095C16.0007 8.65641 16.3046 8.23156 16.5155 7.76176C16.6503 7.46137 16.4095 7.14883 16.0802 7.14883C15.8669 7.14883 15.6806 7.28539 15.5852 7.47624C15.3956 7.85588 15.124 8.19046 14.7884 8.45489C14.3592 8.79301 13.843 9.00255 13.2996 9.0592C12.7562 9.11585 12.2078 9.01729 11.7181 8.77495ZM14.2821 3.59619C14.7719 3.83854 15.183 4.21476 15.4677 4.68123L14.8555 5.29341C14.7038 5.44507 14.8112 5.70438 15.0257 5.70438H16.8519C17.1178 5.70438 17.3334 5.48882 17.3334 5.2229V3.39669C17.3334 3.18222 17.0741 3.07481 16.9224 3.22646L16.1634 3.98549C15.7421 3.38025 15.1559 2.90859 14.4746 2.62649C13.7932 2.34438 13.0452 2.26368 12.3193 2.39395C11.5935 2.52422 10.9202 2.85999 10.3795 3.36143C9.99845 3.71475 9.69449 4.13986 9.48359 4.60995C9.34881 4.91038 9.58964 5.2229 9.91892 5.2229C10.1323 5.2229 10.3186 5.08633 10.414 4.89545C10.6037 4.51571 10.8754 4.18103 11.2111 3.91653C11.6403 3.57832 12.1567 3.36871 12.7002 3.31201C13.2438 3.25532 13.7922 3.35385 14.2821 3.59619Z" fill="#6C68BB"/>
<path fill-rule="evenodd" clip-rule="evenodd" d="M13.1112 13.8947C13.9839 13.8947 14.8216 13.7428 15.6001 13.4635V21.7272C15.6001 22.9824 14.6884 24 13.5637 24H2.70315C1.57845 24 0.666748 22.9824 0.666748 21.7272V4.79916C0.666748 3.5439 1.57845 2.52632 2.70315 2.52632H6.64343C6.00813 3.64108 5.64453 4.93533 5.64453 6.31579C5.64453 10.5015 8.98747 13.8947 13.1112 13.8947ZM7.04453 18.9474C6.61497 18.9474 6.26675 19.3008 6.26675 19.7368C6.26675 20.1729 6.61497 20.5263 7.04453 20.5263H9.2223C9.65186 20.5263 10.0001 20.1729 10.0001 19.7368C10.0001 19.3008 9.65186 18.9474 9.2223 18.9474H7.04453Z" fill="#6C68BB"/>
</svg>
