<svg width="24" height="28" viewBox="0 0 24 28" fill="none" xmlns="http://www.w3.org/2000/svg">
<path d="M12.8639 3.05007C12.8639 3.15863 12.8428 3.26219 12.8045 3.3567C12.5531 3.51019 12.3103 3.67674 12.0771 3.85542L12.0718 3.85544C11.6343 3.85544 11.2796 3.49481 11.2796 3.05007V1.47334C11.2796 1.02859 11.6343 0.667969 12.0718 0.667969C12.5092 0.667969 12.8639 1.02859 12.8639 1.47334V3.05007Z" fill="#6C68BB"/>
<path d="M15.2495 10.402H14.1752V9.02654H15.2288C15.7453 9.02654 16.0621 9.2592 16.0621 9.71083V9.72451C16.0621 10.1282 15.766 10.402 15.2495 10.402Z" fill="#6C68BB"/>
<path d="M20.8112 11.0383C20.8112 11.6542 20.398 12.0511 19.9091 12.0511C19.4202 12.0511 19.0139 11.6474 19.0139 11.0383V11.0247C19.0139 10.4156 19.4202 10.0119 19.9091 10.0119C20.398 10.0119 20.8112 10.4156 20.8112 11.0247V11.0383Z" fill="#6C68BB"/>
<path fill-rule="evenodd" clip-rule="evenodd" d="M17.1002 17.666C20.9108 17.666 24 14.5242 24 10.6485C24 6.77279 20.9108 3.63093 17.1002 3.63093C13.2895 3.63093 10.2004 6.77279 10.2004 10.6485C10.2004 14.5242 13.2895 17.666 17.1002 17.666ZM13.1147 8.60228V12.3795C13.1147 12.6738 13.3489 12.9064 13.645 12.9064C13.9411 12.9064 14.1752 12.6738 14.1752 12.3795V11.3326H15.0222L16.0552 12.6327C16.1791 12.7901 16.3375 12.9064 16.5785 12.9064C16.8333 12.9064 17.0812 12.7148 17.0812 12.4206C17.0812 12.2564 17.0124 12.1469 16.9091 12.0169L16.1722 11.1273C16.7576 10.8878 17.1363 10.4225 17.1363 9.66977V9.65608C17.1363 9.20445 16.9917 8.82809 16.7231 8.56122C16.4064 8.24645 15.9312 8.07538 15.3183 8.07538H13.645C13.3489 8.07538 13.1147 8.30804 13.1147 8.60228ZM17.981 9.67661V13.4812C17.981 13.7686 18.2151 14.0013 18.5043 14.0013C18.7935 14.0013 19.0277 13.7686 19.0277 13.4812V12.3864C19.2756 12.6806 19.6199 12.9338 20.1777 12.9338C21.0522 12.9338 21.8579 12.2632 21.8579 11.0383V11.0247C21.8579 9.79978 21.0385 9.12918 20.1777 9.12918C19.6337 9.12918 19.2825 9.38237 19.0277 9.72451V9.67661C19.0277 9.38921 18.7935 9.15655 18.5043 9.15655C18.2151 9.15655 17.981 9.38921 17.981 9.67661Z" fill="#6C68BB"/>
<path d="M9.6683 6.75781C9.07701 7.92362 8.74317 9.24644 8.74317 10.6485C8.74317 15.2919 12.405 19.0664 16.9532 19.1462C16.346 19.945 15.9833 20.9054 15.9833 21.9234V22.6098C15.9833 23.1038 15.589 23.5047 15.1031 23.5047H9.04041C8.55455 23.5047 8.16022 23.1038 8.16022 22.6098V21.9234C8.16022 20.7199 7.65236 19.5968 6.83466 18.7261C5.60241 17.4152 4.84897 15.6389 4.84897 13.6863C4.84897 10.4877 6.86351 7.76377 9.6683 6.75781Z" fill="#6C68BB"/>
<path d="M9.9109 25.7239H14.2326C14.6701 25.7239 15.0248 26.0845 15.0248 26.5293C15.0248 26.974 14.6701 27.3346 14.2326 27.3346H9.9109C9.47345 27.3346 9.11874 26.974 9.11874 26.5293C9.11874 26.0845 9.47345 25.7239 9.9109 25.7239Z" fill="#6C68BB"/>
<path d="M2.34217 11.2353H0.792166C0.354714 11.2353 0 11.5959 0 12.0407C0 12.4854 0.354714 12.846 0.792166 12.846H2.34305C2.7805 12.846 3.13522 12.4854 3.13522 12.0407C3.13522 11.5959 2.77962 11.2353 2.34217 11.2353Z" fill="#6C68BB"/>
<path d="M5.25825 6.25276C5.41316 6.41026 5.61561 6.48901 5.81893 6.48901C6.02225 6.48901 6.22469 6.41026 6.37961 6.25276C6.68943 5.93867 6.68943 5.4286 6.37961 5.11451L5.28202 3.99863C4.97219 3.68364 4.47049 3.68364 4.16154 3.99863C3.85172 4.31272 3.85172 4.82279 4.16154 5.13688L5.25825 6.25276Z" fill="#6C68BB"/>
</svg>
