<svg width="24" height="20" viewBox="0 0 24 20" fill="none" xmlns="http://www.w3.org/2000/svg">
<path d="M11.7185 14.0005C12.5861 13.4658 13.3581 11.4354 13.3581 11.4354C13.6277 10.8085 12.9892 10.879 12.7843 10.9369C12.0396 11.1464 11.3291 11.6883 10.8166 12.5987C10.3043 13.5091 10.4682 13.8559 10.6254 14.0872C10.7825 14.3184 11.1309 14.3617 11.7185 14.0005Z" fill="#6C68BB"/>
<path fill-rule="evenodd" clip-rule="evenodd" d="M3.33333 0.667969C1.49238 0.667969 0 2.16035 0 4.0013V16.0013C0 17.8423 1.49238 19.3346 3.33333 19.3346H20.6667C22.5076 19.3346 24 17.8423 24 16.0013V4.0013C24 2.16035 22.5076 0.667969 20.6667 0.667969H3.33333ZM9.33333 4.27418C8.18765 4.27418 7.06426 4.79185 6.21904 5.75447C6.04331 5.9546 5.72818 5.983 5.51516 5.8179C5.30215 5.6528 5.27193 5.35671 5.44765 5.15658C6.45894 4.00481 7.85352 3.33464 9.33333 3.33464C10.8131 3.33464 12.2077 4.00481 13.219 5.15658C13.3947 5.35671 13.3645 5.6528 13.1515 5.8179C12.9385 5.983 12.6234 5.9546 12.4476 5.75447C11.6024 4.79185 10.479 4.27418 9.33333 4.27418ZM9.33334 6.23388C8.62524 6.23388 7.9215 6.55357 7.38571 7.1638C7.20998 7.36393 6.89485 7.39233 6.68183 7.22723C6.46882 7.06213 6.43859 6.76604 6.61432 6.56591C7.31619 5.76654 8.29111 5.29434 9.33334 5.29434C10.3756 5.29434 11.3505 5.76654 12.0524 6.56591C12.2281 6.76604 12.1979 7.06213 11.9848 7.22723C11.7718 7.39233 11.4567 7.36393 11.281 7.1638C10.7452 6.55357 10.0414 6.23388 9.33334 6.23388ZM7.8618 9.15931L7.58512 9.76266H4.98242L4.19254 11.4246H6.08893L5.81226 12.0278H3.9058L2.66616 14.6362H2L4.60299 9.15931H7.8618ZM18.2523 10.6333H15.1343L14.6972 11.3125H16.7925L13.3581 14.6362H16.2856L16.7125 14.0979H14.6785L18.2523 10.6333ZM18.882 10.6333H22L18.4262 14.0979H20.4602L20.0333 14.6362H17.1058L20.5402 11.3125H18.4449L18.882 10.6333ZM8.76362 8.66797H10.4853L8.34349 12.5263H9.48093L6.77556 16.168L8.18978 13.0683H6.89853L8.76362 8.66797ZM10.7005 11.9087C11.6228 10.9007 12.2838 10.2179 13.7612 10.5177C14.008 10.5756 14.2719 10.7869 14.2719 10.7869C14.2719 10.7869 13.1702 12.8191 13.0063 13.3068C12.9885 13.3515 12.9711 13.3909 12.9549 13.4277C12.8966 13.5603 12.8526 13.6603 12.8526 13.8596C12.8526 14.1142 12.8116 14.6941 12.8116 14.6941H12.1557V14.3039C12.1557 14.3039 10.9772 15.274 10.1164 14.667C9.76282 14.3906 9.52201 13.3719 10.7005 11.9087Z" fill="#6C68BB"/>
</svg>
