<svg width="24" height="28" viewBox="0 0 24 28" fill="none" xmlns="http://www.w3.org/2000/svg">
<path fill-rule="evenodd" clip-rule="evenodd" d="M17.1002 17.6061C20.9108 17.6061 24 14.5158 24 10.7036C24 6.89146 20.9108 3.80111 17.1002 3.80111C13.2895 3.80111 10.2004 6.89146 10.2004 10.7036C10.2004 14.5158 13.2895 17.6061 17.1002 17.6061ZM15.721 13.3912C15.1859 13.1264 14.7367 12.7152 14.4257 12.2055L15.0943 11.537C15.26 11.3712 15.1426 11.0878 14.9082 11.0878H12.9124C12.6217 11.0878 12.3862 11.3234 12.3862 11.614V13.6099C12.3862 13.8443 12.6696 13.9617 12.8353 13.7959L13.6659 12.9653C14.1262 13.6266 14.7666 14.1419 15.511 14.4501C16.2554 14.7584 17.0726 14.8466 17.8656 14.7043C18.6587 14.5621 19.3943 14.1953 19.9851 13.6476C20.4014 13.2617 20.7335 12.7974 20.964 12.2839C21.1114 11.9556 20.8482 11.614 20.4883 11.614C20.2552 11.614 20.0515 11.7633 19.9473 11.9719C19.7401 12.3868 19.4433 12.7524 19.0765 13.0414C18.6074 13.411 18.0433 13.64 17.4494 13.7019C16.8555 13.7638 16.2562 13.6561 15.721 13.3912ZM18.5231 7.73137C19.0584 7.99623 19.5077 8.4074 19.8189 8.91721L19.1498 9.58626C18.9841 9.752 19.1015 10.0354 19.3359 10.0354H21.3317C21.6223 10.0354 21.8579 9.79981 21.8579 9.5092V7.51334C21.8579 7.27894 21.5745 7.16155 21.4088 7.3273L20.5792 8.15684C20.1187 7.49537 19.4782 6.9799 18.7335 6.67158C17.9888 6.36327 17.1713 6.27507 16.3781 6.41744C15.5848 6.55981 14.849 6.92678 14.258 7.4748C13.8416 7.86094 13.5094 8.32555 13.2789 8.83931C13.1316 9.16765 13.3948 9.5092 13.7546 9.5092C13.9878 9.5092 14.1915 9.35993 14.2957 9.15133C14.503 8.73631 14.7999 8.37054 15.1668 8.08147C15.636 7.71184 16.2003 7.48276 16.7943 7.42079C17.3883 7.35883 17.9878 7.46652 18.5231 7.73137Z" fill="#6C68BB"/>
<path d="M12.8045 3.53137C12.8428 3.43841 12.8639 3.33655 12.8639 3.22977V1.67889C12.8639 1.24143 12.5092 0.886719 12.0718 0.886719C11.6343 0.886719 11.2796 1.24143 11.2796 1.67889V3.22977C11.2796 3.66722 11.6343 4.02194 12.0718 4.02194L12.0771 4.02192C12.3103 3.84616 12.5531 3.68234 12.8045 3.53137Z" fill="#6C68BB"/>
<path d="M9.6683 6.87672C9.07701 8.02343 8.74317 9.32456 8.74317 10.7036C8.74317 15.2709 12.405 18.9836 16.9532 19.062C16.346 19.8478 15.9833 20.7924 15.9833 21.7937V22.4688C15.9833 22.9547 15.589 23.349 15.1031 23.349H9.04041C8.55454 23.349 8.16022 22.9547 8.16022 22.4688V21.7937C8.16022 20.6099 7.65236 19.5053 6.83466 18.6488C5.60241 17.3594 4.84897 15.6122 4.84897 13.6916C4.84897 10.5455 6.86351 7.86619 9.6683 6.87672Z" fill="#6C68BB"/>
<path d="M14.2326 25.5319H9.9109C9.47345 25.5319 9.11874 25.8866 9.11874 26.3241C9.11874 26.7615 9.47345 27.1162 9.9109 27.1162H14.2326C14.6701 27.1162 15.0248 26.7615 15.0248 26.3241C15.0248 25.8866 14.6701 25.5319 14.2326 25.5319Z" fill="#6C68BB"/>
<path d="M2.34217 11.2808H0.792166C0.354714 11.2808 0 11.6355 0 12.073C0 12.5104 0.354714 12.8652 0.792166 12.8652H2.34305C2.7805 12.8652 3.13522 12.5104 3.13522 12.073C3.13522 11.6355 2.77962 11.2808 2.34217 11.2808Z" fill="#6C68BB"/>
<path d="M5.81893 6.61233C5.61561 6.61233 5.41316 6.53487 5.25825 6.37996L4.16154 5.28237C3.85172 4.97342 3.85172 4.47172 4.16154 4.16277C4.47049 3.85295 4.97219 3.85295 5.28202 4.16277L6.37961 5.26036C6.68943 5.56931 6.68943 6.07101 6.37961 6.37996C6.22469 6.53487 6.02225 6.61233 5.81893 6.61233Z" fill="#6C68BB"/>
</svg>
