<svg width="32" height="32" viewBox="0 0 32 32" fill="none" xmlns="http://www.w3.org/2000/svg">
<path fill-rule="evenodd" clip-rule="evenodd" d="M23.2 5.33203H8.8C6.16 5.33203 4 7.46536 4 10.0728C4 12.0876 5.2 13.7468 7 14.458V10.0728C7 9.5987 7.24 9.12462 7.48 8.76907C7.72 8.41351 8.32 8.29499 8.8 8.29499H23.2C23.68 8.29499 24.16 8.53203 24.52 8.76907C24.88 9.00611 25 9.5987 25 10.0728V14.458C26.8 13.7468 28 12.0876 28 10.0728C28 7.46536 25.84 5.33203 23.2 5.33203ZM23.2 24.295V10.0728H8.8V24.295C8.8 25.5987 9.88 26.6654 11.2 26.6654H20.8C22.12 26.6654 23.2 25.5987 23.2 24.295ZM15.04 16.4728L14.2 17.3024C13.84 17.658 13.24 17.658 12.88 17.3024C12.52 16.9468 12.52 16.3543 12.88 15.9987L14.44 14.458C15.28 13.6283 16.6 13.6283 17.44 14.458L19 15.9987C19.36 16.3543 19.36 16.9468 19 17.3024C18.64 17.658 18.04 17.658 17.68 17.3024L16.84 16.4728V21.4506C16.84 21.9246 16.48 22.3987 15.88 22.3987C15.28 22.3987 14.92 22.0431 14.92 21.4506V16.4728H15.04Z" fill="#6C68BB"/>
</svg>
