<svg width="20" height="24" viewBox="0 0 20 24" fill="none" xmlns="http://www.w3.org/2000/svg">
<path d="M3.46661 0C1.64682 0 0.166626 1.48019 0.166626 3.29999V20.6999C0.166626 22.5118 1.65476 23.9999 3.46661 23.9999H19.0666C19.1858 24.0016 19.3042 23.9796 19.4149 23.9351C19.5256 23.8906 19.6263 23.8246 19.7112 23.7409C19.7962 23.6571 19.8636 23.5573 19.9096 23.4473C19.9557 23.3373 19.9794 23.2192 19.9794 23.0999C19.9794 22.9806 19.9557 22.8626 19.9096 22.7525C19.8636 22.6425 19.7962 22.5427 19.7112 22.459C19.6263 22.3752 19.5256 22.3092 19.4149 22.2647C19.3042 22.2203 19.1858 22.1982 19.0666 22.1999H3.46661C2.73056 22.1999 2.13296 21.6913 1.99709 20.9999H19.0666C19.564 20.9999 19.9666 20.5973 19.9666 20.0999V3.29999C19.9666 1.48019 18.4864 0 16.6666 0H3.46661ZM10.0666 4.79998C11.2246 4.79998 12.1666 5.74198 12.1666 6.89997C12.1666 8.05797 11.2246 8.99997 10.0666 8.99997C8.90859 8.99997 7.9666 8.05797 7.9666 6.89997C7.9666 5.74198 8.90859 4.79998 10.0666 4.79998ZM7.0666 11.4H13.0666C13.5628 11.4 13.9666 11.8038 13.9666 12.3V13.7999C13.9666 15.1235 12.217 16.1999 10.0666 16.1999C7.9162 16.1999 6.1666 15.1235 6.1666 13.7999V12.3C6.1666 11.8038 6.5704 11.4 7.0666 11.4Z" fill="#6C68BB"/>
</svg>
