<svg width="20" height="24" viewBox="0 0 20 24" fill="none" xmlns="http://www.w3.org/2000/svg">
<path fill-rule="evenodd" clip-rule="evenodd" d="M13.1112 12.6316C16.5476 12.6316 19.3334 9.8039 19.3334 6.31579C19.3334 2.82768 16.5476 0 13.1112 0C9.67475 0 6.88897 2.82768 6.88897 6.31579C6.88897 9.8039 9.67475 12.6316 13.1112 12.6316ZM13.1112 13.8947C13.9839 13.8947 14.8216 13.7428 15.6001 13.4635V21.7272C15.6001 22.9824 14.6884 24 13.5637 24H2.70315C1.57845 24 0.666748 22.9824 0.666748 21.7272V4.79916C0.666748 3.5439 1.57845 2.52632 2.70315 2.52632H6.64343C6.00813 3.64108 5.64453 4.93533 5.64453 6.31579C5.64453 10.5015 8.98747 13.8947 13.1112 13.8947ZM7.04453 18.9474C6.61497 18.9474 6.26675 19.3008 6.26675 19.7368C6.26675 20.1729 6.61497 20.5263 7.04453 20.5263H9.2223C9.65186 20.5263 10.0001 20.1729 10.0001 19.7368C10.0001 19.3008 9.65186 18.9474 9.2223 18.9474H7.04453ZM13.0001 4.41534C11.7589 4.41534 10.5419 5.0115 9.62626 6.12008C9.43589 6.35057 9.0945 6.38327 8.86373 6.19313C8.63297 6.003 8.60022 5.66202 8.79059 5.43154C9.88616 4.10513 11.3969 3.33333 13.0001 3.33333C14.6032 3.33333 16.114 4.10513 17.2096 5.43154C17.3999 5.66202 17.3672 6.003 17.1364 6.19313C16.9057 6.38327 16.5643 6.35057 16.3739 6.12008C15.4583 5.0115 14.2412 4.41534 13.0001 4.41534ZM13.0001 6.67219C12.233 6.67219 11.4706 7.04036 10.8902 7.74311C10.6998 7.97359 10.3584 8.0063 10.1276 7.81616C9.89686 7.62602 9.86411 7.28504 10.0545 7.05456C10.8148 6.13399 11.871 5.59018 13.0001 5.59018C14.1292 5.59018 15.1853 6.13399 15.9457 7.05456C16.1361 7.28504 16.1033 7.62602 15.8726 7.81616C15.6418 8.0063 15.3004 7.97359 15.11 7.74311C14.5296 7.04036 13.7672 6.67219 13.0001 6.67219ZM11.9168 8.75133C11.9168 8.15375 12.4018 7.66932 13.0001 7.66932C13.5984 7.66932 14.0834 8.15375 14.0834 8.75133C14.0834 9.3489 13.5984 9.83333 13.0001 9.83333C12.4018 9.83333 11.9168 9.3489 11.9168 8.75133Z" fill="#6C68BB"/>
</svg>
