<svg width="15" height="18" viewBox="0 0 15 18" fill="none" xmlns="http://www.w3.org/2000/svg">
<path fill-rule="evenodd" clip-rule="evenodd" d="M0.00892742 2.02499C0.00892742 0.914621 0.923549 0 2.03392 0H12.8339C13.9443 0 14.8589 0.914621 14.8589 2.02499V15.0749C14.8589 15.254 14.7877 15.4256 14.6611 15.5522C14.5346 15.6788 14.3629 15.7499 14.1839 15.7499H1.35892V15.9749C1.35892 16.3559 1.653 16.6499 2.03392 16.6499H14.1839C14.2733 16.6487 14.3621 16.6652 14.4451 16.6986C14.5281 16.7319 14.6037 16.7814 14.6674 16.8442C14.7311 16.907 14.7817 16.9819 14.8162 17.0644C14.8507 17.1469 14.8685 17.2355 14.8685 17.3249C14.8685 17.4144 14.8507 17.503 14.8162 17.5855C14.7817 17.668 14.7311 17.7428 14.6674 17.8056C14.6037 17.8684 14.5281 17.918 14.4451 17.9513C14.3621 17.9847 14.2733 18.0012 14.1839 17.9999H2.03392C0.923549 17.9999 0.00892742 17.0853 0.00892742 15.9749V15.183C-0.00297581 15.1106 -0.00297581 15.0367 0.00892742 14.9642V2.02499ZM5.40888 6.29996C5.40888 5.96436 5.68253 5.68979 6.01699 5.68979L10.5413 5.68979L10.3893 5.53727C10.146 5.2932 10.146 4.9271 10.3893 4.68303C10.6325 4.43897 10.9974 4.43897 11.2406 4.68303L12.3689 5.81512C12.5145 5.92687 12.6089 6.10289 12.6089 6.29996C12.6089 6.49694 12.5146 6.6729 12.369 6.78465L11.2406 7.91692C10.9974 8.16099 10.6325 8.16099 10.3893 7.91692C10.2676 7.79489 10.2068 7.64235 10.2068 7.4898C10.2068 7.33726 10.2676 7.18472 10.3893 7.06269L10.5413 6.91012L6.01699 6.91012C5.68253 6.87962 5.40888 6.60504 5.40888 6.29996ZM9.90886 9.89998C9.90886 10.2356 9.63521 10.5102 9.30076 10.5102H4.77647L4.92847 10.6627C5.17172 10.9067 5.17172 11.2728 4.92847 11.5169C4.68523 11.761 4.32037 11.761 4.07713 11.5169L2.94887 10.3848C2.80325 10.2731 2.70889 10.097 2.70889 9.89998C2.70889 9.703 2.80317 9.52704 2.94869 9.41529L4.07713 8.28302C4.32037 8.03895 4.68523 8.03895 4.92847 8.28302C5.05009 8.40505 5.11092 8.55759 5.11092 8.71013C5.11092 8.86268 5.05009 9.01522 4.92847 9.13725L4.77642 9.28982H9.30076C9.63521 9.32032 9.90886 9.5949 9.90886 9.89998Z" fill="#B8B8B8"/>
</svg>
