<svg width="14" height="16" viewBox="0 0 14 16" fill="none" xmlns="http://www.w3.org/2000/svg">
<path id="Vector" d="M1.44701 0.5C0.69701 0.5 0.083374 1.11364 0.083374 1.86364V12.7727C0.083374 13.5227 0.69701 14.1364 1.44701 14.1364H7.01874L6.41949 13.5371C6.29131 13.4096 6.21974 13.2357 6.21974 13.055V12.0909C6.21974 11.7145 6.52519 11.4091 6.90156 11.4091H8.26519V9.36364C8.26519 8.98727 8.57065 8.68182 8.94701 8.68182H10.9925V4.59091L6.90156 0.5H1.44701ZM6.21974 1.52273L9.96974 5.27273H6.21974V1.52273ZM9.62883 10.0455V12.7727H7.58337L10.3106 15.5L13.0379 12.7727H10.9925V10.0455H9.62883Z" fill="#6C68BB"/>
</svg>
