<svg width="21" height="20" viewBox="0 0 21 20" fill="none" xmlns="http://www.w3.org/2000/svg">
<path fill-rule="evenodd" clip-rule="evenodd" d="M13.6759 2.11768C13.8868 1.7086 14.3894 1.54793 14.7985 1.75882C16.9272 2.85618 18.3742 5.12379 18.3742 7.72633C18.3742 8.18657 18.0011 8.55966 17.5409 8.55966C17.0807 8.55966 16.7076 8.18657 16.7076 7.72633C16.7076 5.7484 15.6096 4.05205 14.0348 3.24023C13.6257 3.02934 13.465 2.52676 13.6759 2.11768Z" fill="#6C68BB"/>
<path fill-rule="evenodd" clip-rule="evenodd" d="M6.82404 2.11768C7.03493 2.52676 6.87426 3.02934 6.46518 3.24023C4.8904 4.05205 3.7924 5.7484 3.7924 7.72633C3.7924 8.18657 3.4193 8.55966 2.95907 8.55966C2.49883 8.55966 2.12573 8.18657 2.12573 7.72633C2.12573 5.12379 3.57282 2.85618 5.7015 1.75882C6.11058 1.54793 6.61316 1.7086 6.82404 2.11768Z" fill="#6C68BB"/>
<path d="M7.54769 17.0153C8.17072 17.8172 9.14948 18.334 10.2501 18.334C11.3507 18.334 12.3294 17.8172 12.9524 17.0153C11.1585 17.2615 9.34163 17.2615 7.54769 17.0153Z" fill="#6C68BB"/>
<path d="M15.2494 8.58398V9.11206C15.2494 9.74581 15.428 10.3654 15.7628 10.8926L16.5831 12.1849C17.3324 13.3652 16.7604 14.9694 15.4571 15.3427C12.048 16.319 8.45207 16.319 5.0429 15.3427C3.73971 14.9694 3.16769 13.3652 3.91697 12.1849L4.7373 10.8926C5.07206 10.3654 5.25069 9.74581 5.25069 9.11206V8.58398C5.25069 5.68449 7.48897 3.33398 10.25 3.33398C13.0111 3.33398 15.2494 5.68449 15.2494 8.58398Z" fill="#6C68BB"/>
</svg>
