<svg width="25" height="24" viewBox="0 0 25 24" fill="none" xmlns="http://www.w3.org/2000/svg">
<g id="trash">
<path id="Vector" d="M11.2022 3.00006C11.0907 2.99863 10.9805 3.02415 10.881 3.07446C10.7815 3.12477 10.6956 3.19837 10.6306 3.289C10.5656 3.37964 10.5235 3.48462 10.5078 3.59503C10.4922 3.70543 10.5034 3.81799 10.5406 3.92313H8.49789C7.64682 3.92313 6.85751 4.346 6.38582 5.05354L5.29327 6.69235H5.20223C5.11049 6.69106 5.01941 6.708 4.93427 6.74221C4.84914 6.77642 4.77166 6.82721 4.70633 6.89163C4.64099 6.95604 4.58912 7.0328 4.55371 7.11744C4.5183 7.20208 4.50006 7.29291 4.50006 7.38466C4.50006 7.47641 4.5183 7.56724 4.55371 7.65188C4.58912 7.73652 4.64099 7.81328 4.70633 7.87769C4.77166 7.94211 4.84914 7.99289 4.93427 8.0271C5.01941 8.06131 5.11049 8.07826 5.20223 8.07696H20.4329C20.5247 8.07826 20.6158 8.06131 20.7009 8.0271C20.786 7.99289 20.8635 7.94211 20.9288 7.87769C20.9942 7.81328 21.0461 7.73652 21.0815 7.65188C21.1169 7.56724 21.1351 7.47641 21.1351 7.38466C21.1351 7.29291 21.1169 7.20208 21.0815 7.11744C21.0461 7.0328 20.9942 6.95604 20.9288 6.89163C20.8635 6.82721 20.786 6.77642 20.7009 6.74221C20.6158 6.708 20.5247 6.69106 20.4329 6.69235H20.3419L19.2494 5.05354C18.7777 4.346 17.9879 3.92313 17.1373 3.92313H15.0946C15.1318 3.81799 15.143 3.70543 15.1273 3.59503C15.1117 3.48462 15.0695 3.37964 15.0046 3.289C14.9396 3.19837 14.8537 3.12477 14.7542 3.07446C14.6547 3.02415 14.5445 2.99863 14.433 3.00006H11.2022ZM5.88191 9.46158L6.8753 18.732C7.01376 20.0252 8.09872 21 9.39933 21H16.2358C17.536 21 18.621 20.0252 18.7599 18.732L19.7533 9.46158H5.88191Z" fill="#EB5757"/>
</g>
</svg>
