<svg width="89" height="13" viewBox="0 0 89 13" fill="none" xmlns="http://www.w3.org/2000/svg">
<path d="M5.75204 12.7995C4.82533 12.7995 4.03922 12.7145 3.39372 12.5443C2.74583 12.3739 2.21811 12.0965 1.81048 11.7121C1.40122 11.3291 1.10374 10.8284 0.913952 10.2142C0.725187 9.59724 0.630933 8.85048 0.631104 7.9738V0.403958C0.631104 0.134453 0.77257 0 1.05148 0H3.02723C3.29459 0 3.42828 0.13471 3.42845 0.403958V7.6995C3.42845 8.18625 3.46925 8.5926 3.54674 8.91445C3.62731 9.23827 3.75671 9.49341 3.94146 9.68209C4.12364 9.87145 4.37133 10.0065 4.68087 10.0866C4.99305 10.1646 5.38512 10.2048 5.86032 10.2048H13.2667C13.5345 10.2048 13.6686 10.3387 13.669 10.6065V12.3978C13.669 12.6672 13.5346 12.7996 13.2667 12.7996L5.75204 12.7995Z" fill="url(#paint0_radial_133_5070)"/>
<path d="M20.7271 12.7995C19.8004 12.7995 19.014 12.7145 18.3682 12.5443C17.7203 12.3739 17.1932 12.0965 16.787 11.7121C16.3787 11.3291 16.0777 10.8284 15.8895 10.2142C15.7004 9.59724 15.6085 8.85065 15.6085 7.97388V0.403958C15.6085 0.134453 15.7475 1.80554e-09 16.0289 1.80554e-09H18.0024C18.2722 1.80554e-09 18.4036 0.134453 18.4036 0.403958V7.6995C18.4036 8.18625 18.4439 8.5926 18.5245 8.91445C18.6025 9.23827 18.7349 9.49341 18.9166 9.68209C19.0988 9.87145 19.347 10.0065 19.6566 10.0866C19.9688 10.1646 20.3608 10.2048 20.8355 10.2048H25.9027C26.3784 10.2048 26.7706 10.1646 27.0816 10.0866C27.3912 10.0065 27.6399 9.87145 27.8216 9.68209C28.0034 9.49341 28.1337 9.23819 28.2072 8.91445C28.2859 8.51443 28.3221 8.10714 28.3155 7.6995V0.403958C28.3155 0.134453 28.4503 1.80554e-09 28.7166 1.80554e-09H30.7121C30.9784 1.80554e-09 31.1143 0.134453 31.1143 0.403958V7.9738C31.1143 8.85065 31.0211 9.59724 30.8395 10.2141C30.6552 10.8284 30.3597 11.3293 29.9525 11.7121C29.5447 12.0976 29.0127 12.3737 28.3608 12.5442C27.7078 12.7146 26.9182 12.7996 25.9923 12.7994L20.7271 12.7995Z" fill="url(#paint1_radial_133_5070)"/>
<path d="M45.2883 12.7997C45.0531 12.8022 44.8179 12.7904 44.5841 12.7643C44.4091 12.7445 44.2389 12.695 44.0807 12.6177C43.9212 12.5352 43.7761 12.4274 43.6508 12.2986C43.4762 12.1176 43.3142 11.9248 43.1659 11.7216L36.3456 2.79863C36.2892 2.72208 36.201 2.67521 36.106 2.6711H35.9439C35.8448 2.6711 35.797 2.73209 35.797 2.85294V12.3978C35.797 12.6673 35.663 12.7997 35.3952 12.7997H33.4742C33.1959 12.7997 33.0539 12.6673 33.0539 12.3978V1.9027C33.0539 1.15816 33.1878 0.657213 33.4571 0.394636C33.7249 0.132572 34.1382 0.000171059 34.7005 0.000171059H36.3104C36.5542 -0.00153954 36.7979 0.0111189 37.0403 0.0382319C37.2194 0.0563643 37.3933 0.109136 37.5522 0.19364C37.7092 0.280539 37.8515 0.391386 37.974 0.522161C38.1371 0.698866 38.2894 0.885065 38.4302 1.07982L45.2315 10.0037C45.2803 10.088 45.373 10.1375 45.4701 10.1314H45.6357C45.732 10.1314 45.7798 10.0703 45.7798 9.9468V0.404129C45.7798 0.134624 45.9145 -1.53483e-09 46.184 0.000171059H48.1027C48.372 0.000171059 48.5043 0.134624 48.5043 0.404129V10.8999C48.5043 11.6418 48.372 12.1454 48.1027 12.4074C47.836 12.6701 47.4195 12.7997 46.8593 12.7997L45.2883 12.7997Z" fill="url(#paint2_radial_133_5070)"/>
<path d="M65.116 12.8C64.908 12.8 64.7686 12.7219 64.6951 12.5637L63.3978 10.2052L59.3381 2.72567C59.3011 2.64827 59.2229 2.59857 59.1372 2.59815H59.026C58.9401 2.59857 58.8618 2.64827 58.8246 2.72567L54.803 10.2053L53.5401 12.5638C53.455 12.7219 53.316 12.8 53.1202 12.8H50.7422C50.5851 12.8 50.4901 12.7619 50.4593 12.6819C50.4281 12.6038 50.4447 12.502 50.5067 12.3792L56.5048 1.38986C56.8073 0.841958 57.1074 0.472896 57.4003 0.284302C57.706 0.0910895 58.0619 -0.0076977 58.4234 0.00051318H59.5012C59.9638 0.00051318 60.3544 0.0951094 60.673 0.284216C60.9902 0.47281 61.2993 0.842129 61.6044 1.38978L67.6561 12.3791C67.7186 12.5019 67.7322 12.6037 67.7039 12.6818C67.6732 12.7618 67.5827 12.7999 67.4373 12.7999L65.116 12.8ZM56.9438 12.8L58.1681 10.4936C58.3239 10.1988 58.6312 10.0137 58.9646 10.0137C59.2941 10.0137 59.5983 10.1945 59.7558 10.4838L61.0254 12.7997L56.9438 12.8Z" fill="url(#paint3_radial_133_5070)"/>
<path d="M73.6625 6.39497V8.03633H74.9923C75.152 8.03633 75.2925 8.0026 75.4136 7.93503C75.5348 7.86747 75.6286 7.77152 75.6952 7.64725C75.7618 7.52306 75.7951 7.38023 75.7951 7.21891C75.7951 7.05548 75.7618 6.91154 75.6952 6.78736C75.6286 6.66309 75.5348 6.56662 75.4136 6.49796C75.2925 6.4293 75.152 6.39497 74.9923 6.39497H73.6625Z" fill="#5C3680"/>
<path d="M79.2284 9.90666C79.4463 9.90666 79.6382 9.86249 79.8042 9.77425C79.9701 9.68592 80.0984 9.56063 80.1893 9.39822C80.2801 9.2358 80.3255 9.04779 80.3255 8.83417V7.44126C80.3255 7.22764 80.2801 7.03963 80.1893 6.87721C80.0984 6.71488 79.9701 6.58951 79.8042 6.50126C79.6382 6.41294 79.4463 6.36877 79.2284 6.36877C79.0104 6.36877 78.8184 6.41294 78.6525 6.50126C78.4866 6.58951 78.3582 6.71488 78.2674 6.87721C78.1766 7.03963 78.1311 7.22764 78.1311 7.44126V8.83417C78.1311 9.04779 78.1766 9.2358 78.2674 9.39822C78.3582 9.56063 78.4866 9.68592 78.6525 9.77425C78.8184 9.86249 79.0104 9.90666 79.2284 9.90666Z" fill="#5C3680"/>
<path fill-rule="evenodd" clip-rule="evenodd" d="M84.2187 3.47546C86.7918 3.47546 88.8809 5.56458 88.8809 8.13772C88.8809 10.7109 86.7918 12.8 84.2187 12.8H74.5136C71.9404 12.8 69.8513 10.7109 69.8513 8.13772C69.8513 5.56458 71.9404 3.47546 74.5136 3.47546H84.2187ZM73.6625 8.67074V10.5149H72.9214V5.76064H74.9668C75.2817 5.76064 75.5589 5.82109 75.7987 5.94213C76.0385 6.0631 76.2244 6.23365 76.3564 6.45379C76.4884 6.67394 76.5544 6.92901 76.5544 7.21891C76.5544 7.50882 76.4884 7.76338 76.3564 7.98242C76.2244 8.20146 76.0385 8.371 75.7987 8.49086C75.5589 8.61072 75.2817 8.67074 74.9668 8.67074H73.6625ZM79.2284 10.5639C78.8602 10.5639 78.5357 10.4914 78.2546 10.3464C77.9737 10.2015 77.7564 9.9966 77.6025 9.7317C77.4488 9.46688 77.3719 9.1601 77.3719 8.81128V7.46415C77.3719 7.11541 77.4488 6.80855 77.6025 6.54373C77.7564 6.27892 77.9737 6.07395 78.2546 5.92899C78.5357 5.78404 78.8602 5.71156 79.2284 5.71156C79.5965 5.71156 79.921 5.78404 80.202 5.92899C80.4829 6.07395 80.7003 6.27892 80.8541 6.54373C81.0079 6.80855 81.0848 7.11541 81.0848 7.46415V8.81128C81.0848 9.1601 81.0079 9.46688 80.8541 9.7317C80.7003 9.9966 80.4829 10.2015 80.202 10.3464C79.921 10.4914 79.5965 10.5639 79.2284 10.5639ZM83.1484 10.4985C83.3761 10.5421 83.6171 10.5639 83.8714 10.5639C84.2807 10.5639 84.6301 10.51 84.9195 10.402C85.2089 10.2941 85.4299 10.1371 85.5825 9.93116C85.7351 9.72517 85.8114 9.47722 85.8114 9.18732V9.18079C85.8114 8.8691 85.7393 8.62327 85.5952 8.44347C85.4511 8.2636 85.2719 8.13339 85.0575 8.05269C84.8432 7.97208 84.5762 7.90231 84.2565 7.84348C84.2444 7.84128 84.2311 7.83908 84.2165 7.83696C84.202 7.83475 84.1887 7.83255 84.1766 7.83035C84.1669 7.82823 84.1578 7.82653 84.1493 7.82551C84.1408 7.82441 84.1317 7.82272 84.1221 7.8206C83.8483 7.77262 83.6346 7.72625 83.4809 7.68158C83.327 7.63691 83.1987 7.56773 83.0958 7.47398C82.9928 7.38023 82.9413 7.25163 82.9413 7.08812V7.08489C82.9413 6.84729 83.0413 6.6636 83.2411 6.5339C83.4409 6.40421 83.7212 6.33936 84.0821 6.33936C84.2831 6.33936 84.4835 6.37259 84.6834 6.43913C84.8832 6.50559 85.0836 6.60528 85.2846 6.73828L85.706 6.20856C85.5341 6.09743 85.3591 6.00529 85.1811 5.9323C85.003 5.85923 84.8227 5.80422 84.6397 5.76717C84.4569 5.73013 84.271 5.71156 84.0821 5.71156C83.6873 5.71156 83.3494 5.76607 83.0685 5.87508C82.7875 5.98409 82.5738 6.14261 82.4273 6.3508C82.2807 6.55899 82.2075 6.81025 82.2075 7.10448V7.10778C82.2075 7.44346 82.2861 7.70235 82.4436 7.88434C82.6011 8.06634 82.7905 8.19171 83.0122 8.26038C83.2338 8.32904 83.5214 8.39058 83.875 8.44508L83.9295 8.45492C83.9367 8.45704 83.9446 8.45814 83.9531 8.45814C83.9616 8.45814 83.9695 8.45924 83.9768 8.46145C84.2165 8.50069 84.4121 8.54376 84.5634 8.59063C84.7148 8.63742 84.8383 8.70939 84.934 8.80637C85.0297 8.90343 85.0776 9.03473 85.0776 9.20037V9.20368C85.0776 9.43687 84.9722 9.61726 84.7615 9.74484C84.5507 9.87233 84.254 9.93607 83.8714 9.93607C83.588 9.93607 83.3252 9.89683 83.083 9.81842C82.8408 9.73992 82.6192 9.62218 82.4181 9.46527L81.9567 9.97532C82.1287 10.1061 82.3134 10.2151 82.5108 10.3023C82.7082 10.3895 82.9207 10.4549 83.1484 10.4985Z" fill="#5C3680"/>
<defs>
<radialGradient id="paint0_radial_133_5070" cx="0" cy="0" r="1" gradientUnits="userSpaceOnUse" gradientTransform="translate(-146.423 137.968) scale(172.599 6.40021)">
<stop stop-color="#33273F"/>
<stop offset="1" stop-color="#160E20"/>
</radialGradient>
<radialGradient id="paint1_radial_133_5070" cx="0" cy="0" r="1" gradientUnits="userSpaceOnUse" gradientTransform="translate(-185.287 137.969) scale(145.128 6.40025)">
<stop stop-color="#33273F"/>
<stop offset="1" stop-color="#160E20"/>
</radialGradient>
<radialGradient id="paint2_radial_133_5070" cx="0" cy="0" r="1" gradientUnits="userSpaceOnUse" gradientTransform="translate(-263.673 137.964) scale(145.648 6.4)">
<stop stop-color="#33273F"/>
<stop offset="1" stop-color="#160E20"/>
</radialGradient>
<radialGradient id="paint3_radial_133_5070" cx="0" cy="0" r="1" gradientUnits="userSpaceOnUse" gradientTransform="translate(-27.3886 137.964) scale(33.5434 6.39999)">
<stop stop-color="#33273F"/>
<stop offset="1" stop-color="#160E20"/>
</radialGradient>
</defs>
</svg>
