<svg width="400" height="288" viewBox="0 0 400 288" fill="none" xmlns="http://www.w3.org/2000/svg">
<path d="M365.403 169.397C365.079 171.613 364.804 172.99 364.736 173.306C363.029 181.286 360.289 189.01 356.587 196.283V196.287C355.533 198.372 354.406 200.426 353.205 202.451C349.702 208.334 345.693 213.901 341.224 219.088C338.509 222.263 335.615 225.34 332.543 228.319C319.242 241.259 302.857 252.327 284.878 261.278C281.501 262.962 278.07 264.568 274.585 266.096C263.556 270.93 252.203 274.988 240.608 278.239C238.207 278.915 235.802 279.554 233.395 280.158C229.212 281.211 225.011 282.157 220.819 282.99C215.155 284.12 209.511 285.05 203.889 285.781C196.698 286.718 189.571 287.312 182.583 287.569C174.239 287.859 165.886 287.717 157.557 287.146C153.284 286.866 148.948 286.47 144.576 285.961C144.571 285.964 144.566 285.965 144.56 285.965C144.555 285.965 144.549 285.964 144.544 285.961C140.668 285.516 136.765 284.981 132.838 284.358C131.766 284.187 130.694 284.007 129.618 283.827C122.346 282.58 115.052 281.022 107.835 279.144C107.704 279.113 107.573 279.081 107.443 279.041C107.37 279.027 107.298 279.009 107.227 278.987C107.024 278.937 106.821 278.883 106.619 278.825C100.189 277.123 93.8359 275.164 87.6222 272.94C83.2502 271.377 78.9457 269.68 74.7447 267.847C72.7456 266.978 70.7719 266.078 68.8238 265.146C67.0407 264.295 65.2787 263.417 63.5377 262.512C53.2672 257.181 43.8207 250.944 35.6574 243.758C31.9598 240.514 28.4961 237.013 25.2924 233.281C20.4263 227.631 16.3141 221.375 13.0587 214.667C11.4579 211.349 10.0947 207.921 8.97936 204.41C8.51559 202.955 8.09084 201.476 7.70511 199.97C5.97583 193.101 5.02132 186.06 4.85945 178.979C4.81443 177.281 4.81443 175.576 4.85945 173.864C5.00226 167.904 5.68799 161.969 6.90815 156.133C10.1455 140.756 17.2192 126.532 28.5523 117.045C48.0667 100.701 78.1937 100.106 96.8571 101.664C104.129 102.272 109.663 103.204 112.148 103.664C115.845 104.343 119.465 105.185 123.125 106.068C136.692 109.332 150.83 113.106 171.416 110.791C173.559 110.548 181.029 109.647 194.704 105.843C204.92 103.071 214.903 99.5018 224.561 95.1671C224.993 94.9689 225.421 94.7753 225.844 94.5817C226.938 94.0729 227.992 93.5731 229.023 93.0733C229.284 92.9473 229.55 92.8167 229.806 92.6906C231.882 91.673 233.841 90.6689 235.714 89.6874H235.723C235.79 89.6513 235.853 89.6153 235.921 89.5793C236.177 89.4442 236.43 89.3136 236.682 89.1786C236.707 89.1678 236.731 89.1542 236.754 89.138C239.482 87.7017 242.044 86.3104 244.548 84.9911C245.066 84.7165 245.583 84.4463 246.097 84.1806C246.457 83.996 246.817 83.8069 247.177 83.6268C247.425 83.5007 247.673 83.3747 247.916 83.2486H247.92C249.424 82.4922 250.919 81.7627 252.445 81.0693C254.818 79.9842 257.254 78.9846 259.848 78.0841C261.892 77.3682 264.031 76.7198 266.318 76.1389C288.993 70.3711 322.902 72.2127 344.475 92.1773C362.044 108.445 366.285 131.976 366.618 149.527C366.743 156.172 366.337 162.817 365.403 169.397Z" fill="#EBEBEB"/>
<path d="M220.817 156.988V282.99C208.215 285.536 195.428 287.067 182.581 287.569C149.703 288.771 108.913 282.737 74.7429 267.852C69.0673 265.391 63.5258 262.631 58.1418 259.585C58.1373 259.585 58.1373 259.58 58.1328 259.58C54.8774 257.73 51.724 255.782 48.6727 253.736C45.8856 251.867 43.1975 249.915 40.6085 247.878C38.911 246.536 37.2601 245.16 35.6556 243.749C23.3004 232.875 13.8764 219.822 8.97757 204.41C8.5183 202.955 8.09055 201.479 7.70783 199.975C5.97544 193.106 5.0194 186.065 4.85767 178.983V173.864C5.00047 167.905 5.68621 161.972 6.90636 156.137H39.9106V201.645H45.5614V110.908H80.6144V247.437H102.096V134.655L185.769 176.489V156.988C185.769 154.835 186.193 152.702 187.017 150.713C187.841 148.723 189.049 146.915 190.572 145.392C192.094 143.87 193.902 142.662 195.892 141.838C197.881 141.014 200.014 140.589 202.167 140.59H204.419C206.572 140.589 208.705 141.014 210.694 141.838C212.684 142.662 214.492 143.87 216.014 145.392C217.537 146.915 218.745 148.723 219.569 150.713C220.393 152.702 220.817 154.835 220.817 156.988Z" fill="#CCCDDC"/>
<path d="M365.401 155.996V169.401C365.08 171.612 364.805 172.99 364.738 173.306C353.419 226.691 294.674 264.778 233.396 280.16V124.478H268.446V242.066H274.1V171.525L309.15 156.136V155.996C309.135 152.293 309.851 148.624 311.258 145.198C312.665 141.773 314.734 138.659 317.347 136.035C319.961 133.412 323.066 131.33 326.486 129.909C329.905 128.489 333.572 127.758 337.275 127.758C340.978 127.758 344.645 128.489 348.064 129.909C351.484 131.33 354.589 133.412 357.203 136.035C359.816 138.659 361.885 141.773 363.292 145.198C364.699 148.624 365.415 152.293 365.4 155.996H365.401Z" fill="#CCCDDC"/>
<path d="M353.206 202.451C349.703 208.335 345.693 213.901 341.223 219.088V209.145C341.223 205.447 346.286 202.451 352.534 202.451H353.206Z" fill="#BDCFD3"/>
<path d="M132.838 284.356C131.768 284.187 130.695 284.01 129.62 283.826C115.334 281.414 101.283 277.773 87.6238 272.944L108.104 217.998L132.838 284.356Z" fill="#9FA0D2"/>
<path d="M68.8249 265.148C51.6816 256.963 36.5131 246.412 25.2939 233.28L41.1207 190.82L68.8249 265.148Z" fill="#9FA0D2"/>
<path d="M356.587 196.286C355.536 198.373 354.41 200.428 353.207 202.45C349.703 208.333 345.694 213.9 341.223 219.087C338.507 222.261 335.614 225.338 332.544 228.317C308.868 251.347 275.437 268.445 240.607 278.241C238.209 278.914 235.806 279.553 233.397 280.158C229.212 281.209 225.018 282.153 220.817 282.99C215.155 284.119 209.512 285.05 203.887 285.782C204.703 285.112 205.565 284.499 206.466 283.949C211.654 280.791 217.716 279.117 222.509 275.388C220.025 273.492 221.988 269.535 224.229 267.358C229.573 262.18 235.958 258.201 242.96 255.685C241.835 246.895 251.485 238.611 260.002 241.051C260.059 238.898 260.879 236.836 262.317 235.232C263.755 233.629 265.716 232.589 267.85 232.298C269.983 232.008 272.151 232.485 273.965 233.646C275.779 234.807 277.121 236.575 277.751 238.635C278.114 235.551 278.979 232.547 280.313 229.743C281.478 227.292 285.123 227.48 285.982 230.058C285.986 230.075 285.992 230.092 285.999 230.108C288.824 224.425 297.705 223.103 302.062 227.722C300.542 222.063 307.359 216.158 312.743 218.469C310.16 214.677 309.463 209.379 311.899 205.491C314.336 201.602 320.255 200.056 323.801 202.969C321.283 198.676 324.455 192.269 329.397 191.668C331.919 191.361 334.422 192.334 336.964 192.398C338.278 192.428 339.573 192.081 340.696 191.4C343.508 189.622 347.187 189.887 349.431 192.343C350.952 194.055 352.136 196.039 352.922 198.191C354.189 197.594 355.398 196.933 356.587 196.286Z" fill="#9FA0D2"/>
<path d="M126.938 85.6151C111.787 82.3525 95.7427 76.0789 88.2841 62.4941C85.6055 57.6155 84.2547 51.654 86.2237 46.4485C88.8681 39.4582 96.6599 35.766 104.054 34.6903C113.31 33.3689 122.746 35.0229 131.001 39.4136C142.229 45.4241 151.233 56.4574 163.844 58.2346C173.492 59.593 182.857 55.1323 192.15 52.2047C201.442 49.2771 212.808 48.291 219.794 55.0823C221.464 56.7059 221.742 58.8667 221.904 59.7457C223.267 67.175 215.908 73.9924 213.246 76.4581C209.615 79.8229 201.179 86.1806 174.779 88.3099C160.574 89.4544 146.087 89.739 126.938 85.6151Z" fill="#EBEBEB"/>
<path d="M90.5135 85.9055H1.86536C0.357259 83.2901 -0.261768 80.2561 0.101228 77.259C0.464224 74.2619 1.78965 71.4635 3.87851 69.2838C5.96737 67.1041 8.70693 65.6608 11.6859 65.1706C14.6648 64.6805 17.7224 65.1699 20.3995 66.5653C20.6468 63.4531 21.5703 60.4324 23.1054 57.7138C24.6406 54.9953 26.7504 52.6445 29.2877 50.8254C31.8251 49.0064 34.7288 47.7629 37.7962 47.1817C40.8637 46.6005 44.021 46.6957 47.0479 47.4606C50.0748 48.2254 52.8983 49.6416 55.3214 51.6102C57.7446 53.5788 59.709 56.0524 61.0776 58.8585C62.4462 61.6645 63.186 64.7354 63.2454 67.8569C63.3049 70.9783 62.6824 74.0752 61.4216 76.9313C71.1077 80.007 80.6073 83.7649 90.5135 85.9055Z" fill="#CCCDDC"/>
<path d="M280.581 113.652H328.286C329.098 112.244 329.431 110.611 329.235 108.999C329.04 107.386 328.327 105.88 327.203 104.707C326.079 103.534 324.604 102.757 323.001 102.494C321.398 102.23 319.753 102.493 318.312 103.244C318.18 101.569 317.683 99.943 316.857 98.4799C316.031 97.0168 314.895 95.7515 313.53 94.7724C312.164 93.7934 310.601 93.1241 308.951 92.8113C307.3 92.4985 305.601 92.5497 303.972 92.9613C302.343 93.3729 300.823 94.1351 299.519 95.1946C298.215 96.2541 297.158 97.5854 296.421 99.0956C295.685 100.606 295.287 102.259 295.255 103.938C295.223 105.618 295.558 107.285 296.237 108.822C291.025 110.475 285.912 112.498 280.581 113.652Z" fill="#CCCDDC"/>
<path d="M237.021 53.351H357.971C360.027 49.7827 360.871 45.6437 360.375 41.5551C359.88 37.4666 358.071 33.6491 355.221 30.6757C352.372 27.7023 348.634 25.7334 344.571 25.0644C340.507 24.3955 336.336 25.0626 332.683 26.9656C332.347 22.7187 331.088 18.5963 328.993 14.8863C326.899 11.1762 324.021 7.96791 320.559 5.48523C317.097 3.00255 313.134 1.30533 308.949 0.512048C304.763 -0.281238 300.454 -0.151479 296.324 0.892259C292.194 1.936 288.341 3.86857 285.034 6.55509C281.728 9.24161 279.048 12.6173 277.18 16.4467C275.313 20.276 274.305 24.4667 274.224 28.7262C274.144 32.9857 274.994 37.2114 276.716 41.1084C263.498 45.2994 250.537 50.4288 237.021 53.351Z" fill="#CCCDDC"/>
<path d="M223.354 282.473C222.507 282.649 221.665 282.824 220.819 282.991H220.814C220.107 283.135 219.401 283.27 218.694 283.405C218.189 283.5 217.685 283.599 217.181 283.689C216.573 283.801 215.961 283.914 215.353 284.018C214.907 284.103 214.466 284.18 214.024 284.252C213.462 284.351 212.899 284.445 212.336 284.535C211.652 284.648 210.972 284.761 210.287 284.869L210.089 284.896C209.427 284.999 208.765 285.098 208.108 285.197C206.699 285.404 205.292 285.6 203.889 285.783C202.988 285.9 202.091 286.011 201.196 286.116C200.399 286.21 199.602 286.3 198.81 286.386C198.36 286.44 197.91 286.485 197.464 286.526C197.113 286.566 196.761 286.602 196.41 286.634C195.978 286.679 195.546 286.719 195.118 286.755C194.542 286.814 193.961 286.863 193.384 286.908C193.267 286.922 193.15 286.931 193.038 286.94C192.214 287.012 191.39 287.075 190.57 287.133C190.525 287.138 190.476 287.142 190.431 287.142C189.665 287.196 188.9 287.25 188.134 287.295C188.004 287.304 187.873 287.313 187.743 287.318C187.09 287.359 186.441 287.395 185.793 287.426C184.717 287.485 183.645 287.53 182.578 287.57C179.867 287.669 177.107 287.719 174.298 287.719C173.505 287.719 172.708 287.714 171.911 287.705C171.2 287.701 170.479 287.692 169.764 287.674C169.457 287.669 169.151 287.665 168.845 287.656C168.21 287.642 167.571 287.624 166.927 287.606C166.895 287.607 166.864 287.605 166.832 287.602C165.99 287.579 165.148 287.548 164.302 287.512C162.757 287.449 161.204 287.372 159.642 287.282C159.552 287.277 159.462 287.268 159.376 287.264C159.11 287.25 158.849 287.232 158.584 287.214C157.926 287.174 157.264 287.133 156.602 287.084C155.995 287.043 155.387 286.998 154.774 286.949C153.743 286.872 152.712 286.787 151.681 286.692C151.343 286.665 151.001 286.634 150.663 286.602C150.267 286.566 149.866 286.526 149.466 286.49C149.169 286.458 148.867 286.431 148.57 286.399C146.787 286.219 144.998 286.021 143.203 285.805C142.415 285.711 141.627 285.616 140.839 285.512C140.276 285.44 139.713 285.364 139.155 285.287C138.709 285.229 138.268 285.166 137.822 285.103C136.16 284.873 134.499 284.621 132.838 284.36C132.835 284.36 132.833 284.36 132.83 284.359C132.828 284.358 132.826 284.357 132.824 284.355C132.293 284.274 131.761 284.184 131.23 284.099C130.699 284.013 130.158 283.919 129.618 283.828C129.1 283.738 128.583 283.648 128.065 283.554C127.007 283.369 125.947 283.174 124.886 282.968C124.368 282.874 123.855 282.775 123.341 282.671C122.927 282.595 122.513 282.514 122.103 282.428V282.424L123.004 269.235V269.231L123.499 262.054H124.526L133.432 262.049H133.607L133.815 262.054H133.819L173.834 262.045H173.838L174.919 262.04H175.554L182.853 262.036H182.862L183.596 262.04H183.663L206.537 262.036L210.566 262.031H214.132L214.934 262.036L220.814 262.031H221.238V262.045L222.093 270.271L222.944 278.488L222.949 278.524V278.542L223.025 279.312V279.317L223.354 282.473Z" fill="#53387D"/>
<path d="M221.237 262.029L123.006 269.23L123.497 262.052L221.237 262.029Z" fill="#3E2461"/>
<path d="M173.476 279.249L175.191 279.256L175.103 262.012L173.385 262.002L173.476 279.249Z" fill="#3E2461"/>
<path d="M177.146 274.084C177.916 274.121 178.686 274.004 179.41 273.742C180.135 273.479 180.801 273.075 181.368 272.553C184.75 269.319 183.241 262.175 183.176 261.872L181.5 262.225C181.514 262.289 182.871 268.731 180.179 271.302C178.99 272.437 177.084 272.659 174.517 271.961L174.083 273.623C175.08 273.909 176.109 274.064 177.146 274.084Z" fill="#3E2461"/>
<path d="M122.68 281.062C123.847 281.105 125.009 280.902 126.091 280.466C127.173 280.029 128.151 279.37 128.962 278.53C133.842 273.442 132.519 262.475 132.461 262.01L130.743 262.202C130.756 262.308 132.023 272.828 127.703 277.327C126.229 278.861 124.306 279.505 121.828 279.295L121.706 281.018C122.037 281.046 122.362 281.061 122.68 281.062Z" fill="#3E2461"/>
<path d="M221.148 279.456C221.655 279.456 222.162 279.403 222.658 279.298L222.31 277.619C221.642 277.794 220.941 277.805 220.268 277.651C219.595 277.497 218.968 277.184 218.441 276.737C214.278 273.225 214.479 262.126 214.484 262.014L212.778 261.963C212.767 262.453 212.563 274.011 217.353 278.049C218.407 278.961 219.755 279.46 221.148 279.456Z" fill="#3E2461"/>
<path d="M265.537 194.172L234.753 219.013L221.457 192.425V262.045H123.502V191.376L108.459 215.515L78.021 187.878L108.558 138.547C110.809 134.91 113.952 131.908 117.689 129.827C121.425 127.746 125.632 126.654 129.909 126.655H214.257C218.016 126.655 221.728 127.499 225.117 129.125C228.507 130.752 231.487 133.119 233.839 136.052C234.8 137.247 235.649 138.528 236.374 139.88L265.537 194.172Z" fill="#ABD94A"/>
<path d="M198.229 82.1133C198.229 82.1133 200.368 92.0191 198.5 93.9723C196.631 95.9256 189.259 76.8398 198.229 82.1133Z" fill="#32477B"/>
<path d="M170.423 70.479L195.721 78.0299C205.947 119.477 187.853 119.219 187.853 119.219L188.455 125.646C188.635 127.571 188.401 129.513 187.767 131.34C187.133 133.167 186.115 134.837 184.781 136.238C183.447 137.638 181.829 138.736 180.035 139.458C178.24 140.18 176.312 140.508 174.38 140.422C172.606 140.342 170.864 139.914 169.255 139.162C167.645 138.409 166.2 137.347 165.001 136.036C163.802 134.725 162.874 133.19 162.268 131.52C161.662 129.85 161.391 128.077 161.47 126.303L162.714 98.4971L157.862 98.28C156.896 98.2369 155.947 98.0038 155.071 97.5941C154.195 97.1844 153.408 96.6061 152.755 95.8922C152.102 95.1783 151.596 94.3428 151.267 93.4334C150.937 92.524 150.789 91.5586 150.833 90.5922C150.845 90.3254 150.869 90.0594 150.905 89.7944C151.221 87.4823 152.442 85.3904 154.3 83.9788C156.158 82.5673 158.501 81.9516 160.813 82.2673L163.357 82.6145L170.423 70.479Z" fill="#FFC1C2"/>
<path d="M196.831 82.3944C196.784 82.3971 196.751 82.3975 196.728 82.3989C188.161 82.887 177.952 81.1652 173.346 80.2651C172.689 80.1423 172.009 80.249 171.42 80.5672C170.832 80.8854 170.371 81.3959 170.113 82.0135C168.903 84.82 166.866 87.3396 165.259 89.0551C165.078 89.2463 164.843 89.3773 164.586 89.4304C164.328 89.4835 164.061 89.4561 163.82 89.352C163.578 89.2478 163.375 89.072 163.237 88.8483C163.099 88.6246 163.033 88.3639 163.048 88.1015L163.292 83.7925C163.31 83.4706 163.206 83.1538 163.001 82.905C162.796 82.6563 162.505 82.4939 162.186 82.4502L160.815 82.2638C159.67 82.107 158.506 82.1772 157.388 82.4704C156.27 82.7637 155.222 83.2742 154.301 83.9729C153.381 84.6716 152.607 85.5447 152.024 86.5424C151.442 87.5401 151.061 88.6429 150.905 89.7877C150.869 90.0534 150.846 90.319 150.833 90.5892C150.828 90.7017 150.824 90.8098 150.824 90.9224C150.825 92.818 151.558 94.6399 152.869 96.0093C154.179 97.3787 155.967 98.1902 157.861 98.2752L162.715 98.4913L162.188 110.221C133.921 77.8377 156.303 61.8759 156.303 61.8759C156.251 59.1293 158.568 58.3211 160.675 58.15C162.141 58.0604 163.6 58.409 164.867 59.1514C169.339 61.6481 176.757 56.5115 184.557 54.5411C187.541 53.787 198.515 51.0147 203.146 55.909C209.441 62.5626 202.721 82.013 196.831 82.3944Z" fill="#3E2461"/>
<path d="M154.919 91.5629C154.912 91.5386 154.214 89.0594 155.451 87.6078C156.273 86.6442 157.807 86.2935 160.017 86.565L160.183 85.2047C157.485 84.8747 155.54 85.3848 154.403 86.7257C152.69 88.747 153.567 91.8182 153.605 91.9488L154.919 91.5629Z" fill="#ED9C9C"/>
<path d="M193.458 100.118L189.059 90.6304L187.816 91.2058L191.66 99.4983L186.494 102.137L187.118 103.357L193.458 100.118Z" fill="#ED9C9C"/>
<path d="M194.775 90.4492C194.869 91.4159 195.406 92.157 195.967 92.1034C196.529 92.0498 196.913 91.2164 196.818 90.2497C196.8 90.0591 196.762 89.871 196.704 89.6887C196.633 89.4227 196.507 89.1745 196.335 88.9597C195.915 88.9369 195.494 88.9412 195.075 88.9727C194.932 89.189 194.838 89.434 194.8 89.6905C194.758 89.9411 194.75 90.1963 194.775 90.4492Z" fill="#3E2461"/>
<path d="M174.562 85.3761C174.552 85.3264 174.552 85.2752 174.562 85.2254C174.572 85.1757 174.591 85.1283 174.62 85.0862C174.648 85.044 174.684 85.0078 174.726 84.9797C174.769 84.9516 174.816 84.9321 174.866 84.9223L182.391 83.3657C182.776 83.2859 183.178 83.3411 183.528 83.5222C183.877 83.7033 184.154 83.9993 184.312 84.3603L184.466 84.7156C184.541 84.8885 184.571 85.0779 184.552 85.2656C184.533 85.4533 184.466 85.633 184.358 85.7872C184.249 85.9415 184.102 86.0651 183.932 86.1462C183.762 86.2273 183.573 86.2631 183.385 86.2501L174.917 85.6864C174.832 85.6811 174.751 85.6479 174.686 85.5917C174.622 85.5356 174.578 85.4598 174.562 85.3761Z" fill="#3E2461"/>
<path d="M199.165 84.4099C199.17 84.3657 199.165 84.3211 199.152 84.2786C199.139 84.2361 199.118 84.1967 199.09 84.1624C199.062 84.1281 199.027 84.0998 198.988 84.079C198.948 84.0582 198.905 84.0453 198.861 84.0412L192.162 83.386C191.819 83.3525 191.474 83.4381 191.186 83.6283C190.899 83.8186 190.685 84.102 190.581 84.4311L190.479 84.7548C190.429 84.9121 190.421 85.0797 190.454 85.2414C190.488 85.4031 190.562 85.5533 190.671 85.6776C190.78 85.802 190.919 85.8961 191.074 85.951C191.23 86.0058 191.397 86.0195 191.56 85.9908L198.884 84.7112C198.958 84.6991 199.025 84.6629 199.076 84.6085C199.127 84.554 199.158 84.4842 199.165 84.4099Z" fill="#3E2461"/>
<path d="M188.464 125.724C183.152 125.039 178.244 122.528 174.581 118.621C178.651 120.183 187.854 119.215 187.854 119.215L188.464 125.724Z" fill="#ED9C9C"/>
<path d="M231.734 47.8067C229.588 47.0544 227.248 47.0628 225.107 47.8305C224.85 47.9191 224.615 48.0626 224.418 48.251C224.221 48.4394 224.068 48.6683 223.968 48.9218C223.869 49.1753 223.825 49.4473 223.841 49.7192C223.857 49.9911 223.932 50.2563 224.06 50.4965L224.078 50.5316C224.294 50.9244 224.64 51.2291 225.058 51.3926C225.475 51.5561 225.936 51.568 226.361 51.4263C227.479 51.0438 228.692 51.0438 229.81 51.4263C231.905 52.1737 232.658 53.9217 231.976 55.8461C230.875 58.9529 225.685 59.5126 223.348 63.379C223.139 63.7233 223.029 64.1183 223.03 64.5208C223.029 64.9816 223.171 65.4312 223.437 65.8076C223.703 66.184 224.079 66.4685 224.513 66.6218C224.993 66.7988 225.519 66.8021 226.001 66.6312C226.483 66.4602 226.889 66.1258 227.15 65.6861C229.316 61.908 234.989 61.7081 236.619 57.123C238.183 52.715 235.982 49.3137 231.734 47.8067ZM223.46 69.5093C222.838 69.2549 222.153 69.1926 221.495 69.3303C220.837 69.4681 220.235 69.7996 219.767 70.2823C219.299 70.765 218.985 71.3768 218.868 72.0389C218.75 72.7009 218.833 73.3831 219.107 73.9975C219.38 74.6119 219.831 75.1305 220.401 75.4865C220.972 75.8425 221.636 76.0197 222.308 75.9953C222.98 75.9708 223.629 75.7459 224.172 75.3493C224.715 74.9528 225.127 74.4028 225.355 73.7702C225.52 73.367 225.602 72.9346 225.595 72.499C225.589 72.0634 225.494 71.6336 225.317 71.2356C225.14 70.8377 224.884 70.4797 224.564 70.1834C224.245 69.8871 223.869 69.6585 223.459 69.5116L223.46 69.5093Z" fill="#3E2461"/>
<path d="M127.535 66.1638C126.025 66.6775 124.737 67.695 123.888 69.0454C123.785 69.2058 123.717 69.3867 123.69 69.5757C123.663 69.7648 123.677 69.9574 123.732 70.1403C123.787 70.3232 123.881 70.4921 124.007 70.6352C124.133 70.7784 124.289 70.8924 124.464 70.9694L124.489 70.9811C124.778 71.1044 125.101 71.1224 125.402 71.0319C125.703 70.9414 125.963 70.7481 126.136 70.4858C126.587 69.7909 127.256 69.2658 128.039 68.9932C129.518 68.4979 130.69 69.1373 131.145 70.4944C131.883 72.6854 129.262 75.2397 129.646 78.3839C129.679 78.6635 129.79 78.9284 129.964 79.1493C130.163 79.4039 130.436 79.5905 130.746 79.6832C131.055 79.7759 131.386 79.7701 131.692 79.6667C132.033 79.557 132.325 79.3311 132.517 79.0282C132.709 78.7253 132.788 78.3647 132.741 78.0093C132.301 74.9876 135.345 72.4224 134.26 69.1877C133.217 66.0805 130.532 65.1561 127.535 66.1638ZM132.361 81.719C131.908 81.848 131.503 82.1098 131.2 82.4706C130.896 82.8315 130.708 83.2749 130.658 83.7438C130.609 84.2127 130.701 84.6856 130.923 85.1018C131.144 85.5179 131.485 85.8583 131.902 86.079C132.318 86.2997 132.792 86.3907 133.26 86.3403C133.729 86.2899 134.172 86.1004 134.532 85.7961C134.893 85.4918 135.153 85.0868 135.282 84.633C135.41 84.1792 135.399 83.6975 135.251 83.2499C135.168 82.9557 135.026 82.6815 134.834 82.4437C134.642 82.2059 134.404 82.0095 134.133 81.8665C133.863 81.7234 133.567 81.6365 133.262 81.6112C132.958 81.5858 132.651 81.6225 132.361 81.719Z" fill="#3E2461"/>
<path d="M188.939 109.626L189.239 108.429C186.172 107.66 183.029 107.237 179.868 107.168L179.841 108.402C182.91 108.469 185.962 108.879 188.939 109.626Z" fill="#ED9C9C"/>
<path d="M190.838 89.7217C190.853 89.7225 190.868 89.7225 190.883 89.7217L198.033 89.4038C198.098 89.4024 198.162 89.3881 198.221 89.3615C198.281 89.335 198.334 89.2968 198.379 89.2492C198.423 89.2016 198.458 89.1456 198.48 89.0845C198.503 89.0234 198.513 88.9584 198.51 88.8933C198.507 88.8282 198.491 88.7644 198.463 88.7057C198.435 88.6469 198.395 88.5943 198.347 88.551C198.298 88.5077 198.241 88.4747 198.179 88.4537C198.118 88.4327 198.053 88.4243 197.988 88.429L190.838 88.7469C190.713 88.753 190.595 88.8069 190.509 88.8973C190.423 88.9877 190.374 89.1078 190.374 89.2328C190.373 89.3578 190.421 89.4782 190.507 89.5692C190.592 89.6601 190.71 89.7147 190.835 89.7217H190.838Z" fill="#3E2461"/>
<path d="M180.089 90.5604C180.183 91.5271 180.719 92.2682 181.281 92.2146C181.843 92.1611 182.227 91.3276 182.132 90.3609C182.115 90.1699 182.077 89.9814 182.019 89.7985C181.949 89.5326 181.823 89.2843 181.651 89.0695C181.231 89.0467 180.81 89.0511 180.39 89.0826C180.247 89.2989 180.154 89.5439 180.116 89.8003C180.073 90.0513 180.064 90.307 180.089 90.5604Z" fill="#3E2461"/>
<path d="M176.289 89.9232C176.304 89.924 176.32 89.924 176.335 89.9232L183.484 89.6053C183.611 89.5962 183.73 89.5379 183.814 89.4427C183.899 89.3476 183.943 89.2231 183.937 89.0959C183.931 88.9688 183.876 88.8489 183.783 88.762C183.69 88.675 183.566 88.6278 183.439 88.6305L176.289 88.9484C176.165 88.9545 176.047 89.0084 175.961 89.0988C175.874 89.1892 175.826 89.3093 175.825 89.4343C175.825 89.5593 175.873 89.6797 175.958 89.7707C176.044 89.8616 176.162 89.9162 176.286 89.9232H176.289Z" fill="#3E2461"/>
<path d="M221.458 174.931L234.752 219.011L221.458 192.423V174.931Z" fill="#5C940D"/>
<path d="M123.501 174.931L108.458 215.513L123.501 191.374V174.931Z" fill="#5C940D"/>
<path d="M222.003 170.386H220.914V192.426H222.003V170.386Z" fill="#5C940D"/>
<path d="M124.046 170.386H122.957V192.426H124.046V170.386Z" fill="#5C940D"/>
<path d="M105.253 212.603L96.175 224.715C95.1883 226.031 93.9199 227.11 92.4625 227.873C91.005 228.636 89.3955 229.064 87.7516 229.125C86.1077 229.185 84.471 228.878 82.9612 228.225C81.4514 227.572 80.1067 226.589 79.0254 225.35L21.2783 159.133L39.7139 142.747L105.253 212.603Z" fill="#FFC1C2"/>
<path d="M235.431 218.388L244.153 230.2C245.155 231.558 246.451 232.673 247.943 233.461C249.436 234.249 251.087 234.69 252.774 234.752C254.46 234.814 256.139 234.495 257.685 233.818C259.232 233.142 260.606 232.125 261.705 230.845L318.655 164.504L301.473 149.007L235.431 218.388Z" fill="#FFC1C2"/>
<path d="M395.784 94.0795L349.126 59.5016C346.797 57.7759 343.511 58.2646 341.785 60.5932L293.459 125.802C291.734 128.13 292.222 131.417 294.551 133.142L341.209 167.72C343.537 169.446 346.824 168.957 348.55 166.629L396.875 101.42C398.601 99.0918 398.112 95.8052 395.784 94.0795Z" fill="#5D498E"/>
<path d="M340.438 160.599L299.649 131.506C298.078 130.385 297.983 128.407 299.407 127.089C318.225 109.705 333.613 88.9425 344.769 65.8797C345.603 64.1547 347.488 63.6581 349.014 64.7887L387.342 93.1926C388.085 93.7828 388.615 94.5988 388.853 95.5172C389.091 96.4357 389.023 97.4067 388.66 98.2833C378.314 121.392 363.774 142.383 345.779 160.194C345.063 160.851 344.147 161.248 343.179 161.322C342.21 161.395 341.245 161.141 340.438 160.599Z" fill="#3E2461"/>
<path d="M339.433 157.672L301.185 129.327C299.66 128.197 299.587 126.248 300.993 124.947C319.143 108.162 333.991 88.1279 344.768 65.879C345.604 64.1554 347.488 63.6579 349.014 64.7885L387.262 93.1334C388.019 93.7336 388.555 94.5684 388.786 95.5065C389.017 96.4447 388.929 97.433 388.537 98.3159C377.76 120.565 362.912 140.599 344.762 157.384C344.031 158.016 343.112 158.388 342.147 158.44C341.182 158.492 340.228 158.222 339.433 157.672Z" fill="white"/>
<path d="M381.006 79.4264L367.445 69.3761C366.727 68.844 365.713 68.9947 365.181 69.7127L360.741 75.7033C360.209 76.4214 360.36 77.4348 361.078 77.967L374.639 88.0172C375.357 88.5493 376.371 88.3986 376.903 87.6806L381.343 81.69C381.875 80.972 381.724 79.9585 381.006 79.4264Z" fill="#3E2461"/>
<path d="M377.053 102.837L347.071 80.6188C346.92 80.5026 346.794 80.3563 346.701 80.1891C346.609 80.022 346.552 79.8375 346.534 79.6473C346.516 79.4571 346.538 79.2652 346.597 79.0838C346.657 78.9023 346.754 78.7351 346.881 78.5926C346.98 78.4291 347.112 78.2879 347.268 78.1778C347.425 78.0677 347.602 77.9911 347.79 77.9529C347.977 77.9146 348.17 77.9155 348.357 77.9555C348.544 77.9954 348.721 78.0736 348.876 78.1851L378.858 100.402C379.198 100.647 379.433 101.011 379.515 101.422C379.596 101.833 379.519 102.26 379.298 102.616C379.022 102.93 378.636 103.129 378.219 103.17C377.802 103.211 377.385 103.092 377.053 102.837Z" fill="#3E2461"/>
<path d="M369.569 115.583L339.587 93.3638C339.436 93.2477 339.31 93.1014 339.217 92.9342C339.125 92.7671 339.068 92.5826 339.05 92.3923C339.032 92.2021 339.054 92.0102 339.113 91.8287C339.173 91.6473 339.27 91.4801 339.397 91.3377C339.496 91.1741 339.628 91.0327 339.784 90.9225C339.941 90.8124 340.118 90.7357 340.306 90.6975C340.493 90.6592 340.686 90.6601 340.873 90.7002C341.06 90.7402 341.237 90.8185 341.393 90.9302L371.374 113.147C371.714 113.392 371.949 113.756 372.031 114.167C372.112 114.578 372.035 115.005 371.814 115.361C371.538 115.676 371.152 115.874 370.735 115.915C370.318 115.956 369.901 115.837 369.569 115.583Z" fill="#3E2461"/>
<path d="M360.82 127.384L330.837 105.166C330.685 105.049 330.559 104.903 330.467 104.736C330.374 104.569 330.317 104.384 330.299 104.194C330.281 104.004 330.303 103.812 330.363 103.631C330.423 103.449 330.519 103.282 330.647 103.139C330.746 102.976 330.878 102.834 331.034 102.724C331.19 102.614 331.368 102.537 331.555 102.499C331.743 102.46 331.936 102.461 332.123 102.501C332.31 102.541 332.487 102.62 332.642 102.732C342.636 110.137 352.63 117.544 362.623 124.95C362.964 125.194 363.199 125.559 363.281 125.97C363.362 126.381 363.285 126.807 363.064 127.163C362.788 127.478 362.402 127.675 361.986 127.716C361.569 127.758 361.152 127.639 360.82 127.384Z" fill="#3E2461"/>
<path d="M330.181 159.546C326.271 162.953 320.99 166.808 316.56 167.402C308.383 168.495 300.563 151.742 300.563 151.742C300.563 151.742 300.514 147.476 303.23 139.571C303.972 137.41 304.922 134.975 306.136 132.282C306.413 131.668 306.893 131.169 307.495 130.868C308.097 130.567 308.785 130.483 309.442 130.63L315.673 132.025L317.45 132.42C317.548 132.441 317.643 132.471 317.736 132.51C317.981 132.61 318.199 132.767 318.373 132.966C318.547 133.165 318.673 133.402 318.74 133.658C318.808 133.914 318.815 134.183 318.76 134.442C318.706 134.701 318.593 134.944 318.429 135.152C317.656 136.112 316.323 137.079 314.04 137.361C313.523 137.427 313.002 137.456 312.481 137.449C312.481 137.449 312.636 138.104 312.759 139.049C313.003 141 313.099 144.182 311.309 145.239C311.309 145.244 311.314 145.25 311.319 145.25C311.33 145.261 311.341 145.271 311.354 145.28L325.73 156.218L327.267 157.389L330.181 159.546Z" fill="#FFC1C2"/>
<path d="M261.662 190.83L239.516 223.917L235.432 218.387L261.662 190.83Z" fill="#ED9C9C"/>
<path d="M81.1223 186.885L102.177 216.708L105.253 212.605L81.1223 186.885Z" fill="#ED9C9C"/>
<path d="M50.7089 110.399L49.9594 109.461C49.1038 108.389 47.5413 108.214 46.4695 109.069L3.96959 142.998C2.8978 143.853 2.72256 145.416 3.57819 146.488L4.32768 147.426C5.1833 148.498 6.74579 148.673 7.81758 147.818L50.3175 113.889C51.3893 113.034 51.5645 111.471 50.7089 110.399Z" fill="#3E2461"/>
<path d="M37.6414 123.457L34.3305 119.31C33.3914 118.134 31.6765 117.941 30.5002 118.881L2.72733 141.052C1.55099 141.991 1.35865 143.706 2.29774 144.882L5.60862 149.03C6.54771 150.206 8.26263 150.398 9.43898 149.459L37.2118 127.288C38.3882 126.349 38.5805 124.634 37.6414 123.457Z" fill="#9FA0D2"/>
<path d="M59.4022 123.03C70.6355 123.03 79.7419 113.924 79.7419 102.69C79.7419 91.457 70.6355 82.3506 59.4022 82.3506C48.1689 82.3506 39.0625 91.457 39.0625 102.69C39.0625 113.924 48.1689 123.03 59.4022 123.03Z" fill="#3E2461"/>
<path d="M59.4025 119.386C68.6238 119.386 76.0991 111.911 76.0991 102.69C76.0991 93.4685 68.6238 85.9932 59.4025 85.9932C50.1812 85.9932 42.7058 93.4685 42.7058 102.69C42.7058 111.911 50.1812 119.386 59.4025 119.386Z" fill="#9FA0D2"/>
<path d="M46.9118 98.4994C46.7825 98.3378 46.7 98.1437 46.6734 97.9384C46.6468 97.733 46.6771 97.5243 46.761 97.3351C48.1721 94.1295 50.7431 91.5761 53.9581 90.1868C57.1732 88.7976 60.7947 88.6753 64.0961 89.8445C64.374 89.9485 64.6 90.1574 64.7254 90.4262C64.8509 90.6951 64.8658 91.0025 64.767 91.2822C64.6682 91.562 64.4635 91.7918 64.197 91.9222C63.9305 92.0526 63.6235 92.0732 63.3419 91.9796C60.5785 91.0003 57.5469 91.1024 54.8555 92.2655C52.1642 93.4285 50.0124 95.5663 48.8318 98.25C48.7531 98.4279 48.6299 98.5826 48.474 98.6991C48.3182 98.8156 48.1349 98.8899 47.942 98.915C47.7491 98.9401 47.5529 98.915 47.3725 98.8422C47.192 98.7694 47.0334 98.6514 46.9118 98.4994Z" fill="white"/>
<path d="M46.751 108.155C46.733 108.133 46.7154 108.11 46.6992 108.086C46.067 107.132 45.6442 106.055 45.4588 104.926C45.2733 103.797 45.3295 102.641 45.6235 101.536C45.7158 101.253 45.9153 101.018 46.1791 100.882C46.4429 100.745 46.7498 100.718 47.0337 100.805C47.3176 100.893 47.5557 101.088 47.6967 101.35C47.8377 101.611 47.8703 101.918 47.7875 102.203C47.5896 102.983 47.5569 103.796 47.6916 104.589C47.8263 105.383 48.1254 106.139 48.5696 106.81C48.7331 107.052 48.7969 107.348 48.7476 107.635C48.6982 107.923 48.5397 108.181 48.3049 108.354C48.0702 108.528 47.7775 108.604 47.4879 108.567C47.1984 108.53 46.9343 108.382 46.751 108.155Z" fill="white"/>
<path d="M43.6521 146.829L40.7196 143.966C40.0604 143.323 39.6219 142.488 39.4669 141.58C38.697 137.082 35.8914 123.071 30.7053 122.243L28.6061 120.14C27.6872 118.591 24.9973 118.237 23.4894 119.265C22.1881 120.153 20.8981 121.924 21.5879 123.341L21.6491 123.164C21.6491 123.164 15.5125 123.233 14.8758 126.65C14.8758 126.65 9.48393 125.974 8.70723 130.517C7.96699 130.462 5.55043 130.372 3.92364 132.02C3.43179 132.547 3.05206 133.168 2.80744 133.846C2.53278 134.664 1.92177 137.436 11.2922 148.817C13.6516 151.682 14.8677 153.149 16.6665 154.819C18.8048 156.805 19.7585 157.282 21.5109 159.295C22.284 160.183 26.5511 164.088 26.5511 164.088L31.4329 169.972L43.6521 146.829Z" fill="#FFC1C2"/>
<path d="M27.5225 131.753L26.5627 132.339L28.0794 134.824L29.0391 134.238L27.5225 131.753Z" fill="#E29474"/>
<path d="M28.6537 140.462C28.3121 140.816 27.9039 141.1 27.4524 141.296C26.1633 141.85 24.5869 141.623 22.7656 140.62L23.3059 139.635C24.8076 140.462 26.0525 140.673 27.0062 140.263C28.2435 139.73 28.8014 138.218 29.0247 137.363L30.1121 137.647C29.8719 138.694 29.3701 139.662 28.6537 140.462Z" fill="#ED9C9C"/>
<path d="M31.7951 140.852C30.741 140.455 29.8202 139.408 29.0588 137.739C28.6195 136.749 28.2703 135.722 28.0156 134.67C27.7864 133.779 27.6311 132.977 27.5352 132.414L24.0681 134.388C22.857 135.239 21.4031 135.677 19.923 135.636C16.5064 135.464 14.3398 132.452 14.2497 132.323L13.9021 131.832L30.4168 121.763L31.0022 122.723L15.555 132.142C16.2574 132.92 17.8653 134.407 19.9806 134.513C21.2339 134.54 22.4622 134.161 23.4828 133.433L28.4226 130.615L28.5266 131.453C28.6638 132.444 28.8573 133.426 29.1061 134.395C29.3447 135.382 29.6714 136.345 30.0823 137.273C30.7163 138.663 31.4259 139.513 32.1922 139.801L31.7951 140.852Z" fill="#ED9C9C"/>
<path d="M22.4971 143.512C22.3897 143.622 22.2741 143.724 22.1513 143.817C21.0919 144.614 19.5646 144.683 17.6037 144.022C17.6207 145.058 17.2342 146.059 16.5262 146.814C15.5806 147.722 14.1123 147.975 12.1609 147.565L12.386 146.501C13.9619 146.832 15.0993 146.674 15.7706 146.033C16.7612 145.084 16.4839 143.332 16.4812 143.312L16.324 142.352L17.2245 142.721C19.1904 143.528 20.6285 143.605 21.4984 142.949C22.5566 142.154 22.5408 140.396 22.5169 139.938L19.601 135.162L20.529 134.595L23.5769 139.587L23.5904 139.707C23.5998 139.812 23.8385 142.137 22.4971 143.512Z" fill="#ED9C9C"/>
<path d="M9.27952 130.505L8.33594 131.12L16.4359 143.555L17.3795 142.941L9.27952 130.505Z" fill="#ED9C9C"/>
<path d="M22.0959 123L21.168 123.567L23.2005 126.894L24.1284 126.327L22.0959 123Z" fill="#ED9C9C"/>
<path d="M175.025 145.464C166.515 145.464 159.187 138.89 157.208 129.476L156.634 126.748L157.515 126.563L158.089 129.29C159.98 138.283 166.944 144.564 175.025 144.564C182.216 144.564 188.761 139.393 191.311 131.698L193.03 126.514L193.885 126.797L192.166 131.982C189.493 140.046 182.605 145.464 175.025 145.464Z" fill="white"/>
<path d="M130.846 127.799C130.845 130.148 130.136 132.442 128.811 134.381C127.486 136.321 125.608 137.816 123.42 138.672C121.233 139.527 118.839 139.704 116.549 139.178C114.26 138.652 112.183 137.448 110.588 135.724C112.946 132.886 115.899 130.603 119.238 129.036C122.577 127.469 126.22 126.656 129.909 126.655H130.792C130.828 127.029 130.846 127.412 130.846 127.799Z" fill="white"/>
<path d="M233.839 136.052C232.206 137.686 230.125 138.798 227.859 139.249C225.594 139.7 223.246 139.47 221.111 138.586C218.977 137.703 217.152 136.207 215.868 134.287C214.584 132.367 213.898 130.109 213.897 127.799C213.897 127.412 213.915 127.029 213.951 126.655H214.257C218.016 126.655 221.728 127.499 225.117 129.125C228.507 130.752 231.487 133.119 233.839 136.052Z" fill="white"/>
<path d="M82.0478 181.556L81.4199 182.202L111.12 211.064L111.748 210.418L82.0478 181.556Z" fill="white"/>
<path d="M260.327 184.728L231.306 212.417L231.928 213.069L260.949 185.379L260.327 184.728Z" fill="white"/>
<path d="M123.501 202.902L129.503 234.781C130.467 239.904 133.055 244.58 136.883 248.118C140.712 251.656 145.577 253.868 150.76 254.427L221.457 262.043H123.502L123.501 202.902Z" fill="#5C940D"/>
<path d="M199.637 181.919C205.474 181.919 210.206 178.679 210.206 174.682C210.206 170.685 205.474 167.444 199.637 167.444C193.8 167.444 189.068 170.685 189.068 174.682C189.068 178.679 193.8 181.919 199.637 181.919Z" fill="white"/>
<path d="M199.637 178.592C203.734 178.592 207.054 176.841 207.054 174.682C207.054 172.522 203.734 170.771 199.637 170.771C195.541 170.771 192.22 172.522 192.22 174.682C192.22 176.841 195.541 178.592 199.637 178.592Z" fill="#5C940D"/>
</svg>
