<svg width="111" height="16" viewBox="0 0 111 16" fill="none" xmlns="http://www.w3.org/2000/svg">
<path d="M5.50306 14.8581C4.50719 14.8581 3.66242 14.767 2.96876 14.5848C2.27253 14.4021 1.70543 14.105 1.26738 13.6931C0.827577 13.2828 0.507907 12.7463 0.303954 12.0882C0.101104 11.4273 -0.000183575 10.6271 2.49761e-07 9.68777V1.57725C2.49761e-07 1.2885 0.152023 1.14453 0.451748 1.14453H2.57492C2.86224 1.14453 3.0059 1.28877 3.00608 1.57725V9.39388C3.00608 9.9154 3.04992 10.3509 3.13319 10.6956C3.21977 11.0426 3.35884 11.316 3.55737 11.5181C3.75314 11.7211 4.01932 11.8657 4.35195 11.9515C4.68743 12.0351 5.10875 12.0781 5.61942 12.0781H13.5785C13.8662 12.0781 14.0104 12.2216 14.0107 12.5086V14.4277C14.0107 14.7164 13.8663 14.8582 13.5785 14.8582L5.50306 14.8581Z" fill="#6C68BB"/>
<path d="M21.5955 14.8581C20.5996 14.8581 19.7546 14.767 19.0605 14.5848C18.3643 14.4021 17.7979 14.105 17.3614 13.6931C16.9227 13.2828 16.5992 12.7463 16.3969 12.0882C16.1937 11.4273 16.095 10.6273 16.095 9.68795V1.57725C16.095 1.2885 16.2444 1.14453 16.5467 1.14453H18.6675C18.9574 1.14453 19.0987 1.2885 19.0987 1.57725V9.39388C19.0987 9.9154 19.142 10.3509 19.2286 10.6956C19.3124 11.0426 19.4547 11.316 19.6499 11.5181C19.8458 11.7211 20.1124 11.8657 20.4451 11.9515C20.7806 12.0351 21.2019 12.0781 21.712 12.0781H27.1573C27.6685 12.0781 28.09 12.0351 28.4242 11.9515C28.7569 11.8657 29.0241 11.7211 29.2194 11.5181C29.4147 11.316 29.5548 11.0425 29.6338 10.6956C29.7183 10.267 29.7573 9.83072 29.7501 9.39388V1.57725C29.7501 1.2885 29.8951 1.14453 30.1812 1.14453H32.3256C32.6117 1.14453 32.7578 1.2885 32.7578 1.57725V9.68777C32.7578 10.6273 32.6577 11.4273 32.4624 12.0881C32.2645 12.7462 31.9469 13.283 31.5093 13.693C31.0711 14.1061 30.4994 14.402 29.7988 14.5847C29.0971 14.7671 28.2486 14.8583 27.2536 14.858L21.5955 14.8581Z" fill="#6C68BB"/>
<path d="M47.9894 14.8583C47.7367 14.8611 47.4839 14.8484 47.2326 14.8206C47.0447 14.7993 46.8617 14.7461 46.6917 14.6634C46.5203 14.575 46.3643 14.4595 46.2298 14.3215C46.0421 14.1275 45.868 13.9209 45.7086 13.7033L38.3795 4.14296C38.3188 4.06103 38.224 4.01072 38.1219 4.00642H37.9477C37.8412 4.00642 37.7898 4.07166 37.7898 4.20115V14.4278C37.7898 14.7165 37.6459 14.8583 37.3581 14.8583H35.2938C34.9947 14.8583 34.8421 14.7165 34.8421 14.4278V3.18304C34.8421 2.38541 34.986 1.84868 35.2754 1.56735C35.5632 1.28648 36.0073 1.14471 36.6115 1.14471H38.3416C38.6036 1.14279 38.8655 1.15635 39.126 1.18549C39.3184 1.20483 39.5053 1.26137 39.6761 1.352C39.8447 1.44501 39.9977 1.56378 40.1294 1.70398C40.3046 1.89322 40.4682 2.09272 40.6195 2.30147L47.9284 11.8627C47.9808 11.953 48.0804 12.0061 48.1848 11.9995H48.3628C48.4662 11.9995 48.5175 11.934 48.5175 11.8017V1.57743C48.5175 1.28868 48.6623 1.14444 48.9519 1.14471H51.0138C51.3032 1.14471 51.4454 1.28868 51.4454 1.57743V12.8228C51.4454 13.6178 51.3032 14.1573 51.0138 14.4381C50.7272 14.7196 50.2797 14.8584 49.6777 14.8584L47.9894 14.8583Z" fill="#6C68BB"/>
<path d="M69.2966 14.8587C69.0732 14.8587 68.9234 14.7751 68.8443 14.6055L67.4503 12.0787L63.0876 4.06483C63.0479 3.9819 62.9639 3.92875 62.8717 3.9282H62.7522C62.6599 3.92866 62.5757 3.9819 62.5358 4.06483L58.2141 12.0787L56.857 14.6056C56.7655 14.7751 56.6161 14.8588 56.4058 14.8588H53.8503C53.6815 14.8588 53.5794 14.8179 53.5463 14.7322C53.5127 14.6486 53.5307 14.5395 53.5972 14.408L60.0429 2.63371C60.368 2.04657 60.6904 1.65115 61.0052 1.44918C61.3337 1.24207 61.7162 1.13632 62.1047 1.14503H63.2629C63.76 1.14503 64.1798 1.24638 64.5222 1.449C64.863 1.65115 65.1951 2.04676 65.523 2.63361L72.0263 14.4079C72.0934 14.5394 72.108 14.6484 72.0777 14.7321C72.0447 14.8178 71.9475 14.8586 71.7911 14.8586L69.2966 14.8587ZM60.5147 14.8587L61.8303 12.3876C61.9978 12.0718 62.3279 11.8734 62.6862 11.8734C63.0404 11.8734 63.3673 12.0671 63.5365 12.3772L64.9008 14.8585L60.5147 14.8587Z" fill="#6C68BB"/>
<path d="M80.6764 11.056C81.4707 11.8895 82.4694 12.3062 83.6725 12.3062C84.8756 12.3062 85.8626 11.8953 86.6335 11.0734C87.4162 10.2515 87.8075 9.23862 87.8075 8.03473V8C87.8075 6.79611 87.4103 5.77743 86.616 4.94396C85.8334 4.1105 84.8406 3.69376 83.6374 3.69376C82.4343 3.69376 81.4415 4.10471 80.6589 4.9266C79.8879 5.74849 79.5025 6.76138 79.5025 7.96527V8C79.5025 9.20389 79.8938 10.2226 80.6764 11.056Z" fill="#6C68BB"/>
<path d="M107.181 8.85083H102.433C102.526 8.12155 102.783 7.53696 103.204 7.09708C103.636 6.6572 104.179 6.43725 104.833 6.43725C105.511 6.43725 106.054 6.66298 106.463 7.11444C106.871 7.5659 107.111 8.1447 107.181 8.85083Z" fill="#6C68BB"/>
<path fill-rule="evenodd" clip-rule="evenodd" d="M75.7752 1.24802C75.5258 1.73696 75.5258 2.37702 75.5258 3.65714V12.3429C75.5258 13.623 75.5258 14.263 75.7752 14.752C75.9946 15.1821 76.3447 15.5317 76.7754 15.7509C77.265 16 77.9058 16 79.1876 16H107.338C108.62 16 109.261 16 109.75 15.7509C110.181 15.5317 110.531 15.1821 110.751 14.752C111 14.263 111 13.623 111 12.3429V3.65714C111 2.37702 111 1.73696 110.751 1.24802C110.531 0.817937 110.181 0.468267 109.75 0.249128C109.261 0 108.62 0 107.338 0H79.1876C77.9058 0 77.265 0 76.7754 0.249128C76.3447 0.468267 75.9946 0.817937 75.7752 1.24802ZM83.6374 14.2857C81.7802 14.2857 80.25 13.678 79.0469 12.4625C77.8438 11.247 77.2423 9.77111 77.2423 8.03473V8C77.2423 6.26362 77.8496 4.7819 79.0644 3.55485C80.2909 2.32781 81.8269 1.71429 83.6725 1.71429C85.5297 1.71429 87.0599 2.32202 88.263 3.53749C89.4661 4.75296 90.0677 6.22889 90.0677 7.96527V8C90.0677 9.73639 89.4544 11.2181 88.228 12.4451C87.0132 13.6722 85.483 14.2857 83.6374 14.2857ZM91.1822 14.0773V4.90924H93.3197V6.31571C94.0907 5.25072 95.0543 4.71823 96.2107 4.71823C97.2503 4.71823 98.0563 5.03657 98.6286 5.67324C99.2127 6.29834 99.5047 7.14917 99.5047 8.22573V14.0773H97.3846V8.86819C97.3846 8.15049 97.2094 7.60063 96.859 7.21863C96.5203 6.82505 96.0355 6.62826 95.4048 6.62826C94.774 6.62826 94.2659 6.83083 93.8804 7.23599C93.5066 7.64115 93.3197 8.19679 93.3197 8.90292V14.0773H91.1822ZM101.679 12.9661C102.59 13.8458 103.723 14.2857 105.078 14.2857C106.62 14.2857 107.882 13.7127 108.863 12.5667L107.619 11.4728C106.848 12.2021 106.013 12.5667 105.113 12.5667C104.413 12.5667 103.823 12.3641 103.344 11.959C102.865 11.5538 102.567 10.9808 102.45 10.2399H109.248C109.272 9.96212 109.283 9.76533 109.283 9.64957C109.283 8.24888 108.892 7.07972 108.11 6.14207C107.339 5.19284 106.252 4.71823 104.851 4.71823C103.542 4.71823 102.462 5.18127 101.609 6.10734C100.757 7.02184 100.33 8.15049 100.33 9.49329V9.52802C100.33 10.9287 100.78 12.0747 101.679 12.9661Z" fill="#6C68BB"/>
</svg>
