<svg width="40" height="40" viewBox="0 0 40 40" fill="none" xmlns="http://www.w3.org/2000/svg">
<rect width="40" height="40" rx="4" fill="#F2F2F2"/>
<path fill-rule="evenodd" clip-rule="evenodd" d="M31.111 19.6417C31.1173 17.0728 30.8943 14.5082 30.4444 11.9764C30.216 10.7333 29.2104 9.76016 27.9258 9.53915C22.6827 8.67966 17.3275 8.67966 12.0844 9.53915C10.7998 9.76016 9.79421 10.7333 9.56584 11.9764C9.11244 14.5079 8.88592 17.0725 8.8888 19.6417C8.88249 22.2106 9.10555 24.7752 9.55547 27.3069C9.78384 28.55 10.7894 29.5232 12.074 29.7442C14.6917 30.1816 17.3435 30.3991 19.9999 30.3944C22.6544 30.4005 25.3045 30.1846 27.9207 29.7492C29.2052 29.5282 30.2108 28.555 30.4392 27.3119C30.6244 26.289 30.7621 25.2395 30.871 24.1771L30.891 24.1578L30.8747 24.142C31.0266 22.6646 31.111 21.1642 31.111 19.6417ZM28.9829 27.0603C28.8627 27.71 28.3372 28.2186 27.6658 28.3349C22.5907 29.1651 17.4076 29.1651 12.3325 28.3349C11.6611 28.2186 11.1356 27.71 11.0155 27.0603C10.6785 25.1681 10.4746 23.2559 10.4051 21.337L14.5184 17.3614C14.5894 17.2913 14.6875 17.2533 14.7888 17.2567C14.89 17.259 14.9858 17.3012 15.054 17.3736L20.8888 23.5908C21.2297 23.9534 21.7091 24.165 22.2155 24.1764C22.7219 24.1906 23.2117 24.0008 23.5681 23.6524L25.6621 21.6259C25.7316 21.5585 25.826 21.5206 25.9244 21.5206C26.0228 21.5206 26.1171 21.5585 26.1866 21.6259L29.3332 24.6668C29.2347 25.4746 29.1244 26.2761 28.9829 27.0603ZM27.2355 20.6123L29.5066 22.8101C29.5821 21.7657 29.6295 20.7098 29.6295 19.6417C29.6351 17.1554 29.4187 14.6733 28.9829 12.223C28.8627 11.5733 28.3372 11.0648 27.6658 10.9485C25.1339 10.5267 22.5691 10.3173 19.9999 10.3227C17.4308 10.3173 14.8659 10.5267 12.334 10.9485C11.6626 11.0648 11.1371 11.5733 11.017 12.223C10.6002 14.5736 10.3862 16.9536 10.377 19.3384L13.4688 16.3478C13.8269 16.0013 14.3159 15.8119 14.8221 15.8236C15.3282 15.8352 15.8074 16.0469 16.1481 16.4094L21.9866 22.6266C22.0548 22.699 22.1506 22.7412 22.2518 22.7435C22.3527 22.7447 22.4499 22.707 22.5221 22.6388L24.6162 20.6123C24.9635 20.2761 25.4346 20.0872 25.9258 20.0872C26.4171 20.0872 26.8882 20.2761 27.2355 20.6123Z" fill="#C5C6D5"/>
<path fill-rule="evenodd" clip-rule="evenodd" d="M20.7407 15.3405C20.7407 13.7569 22.0673 12.4731 23.7037 12.4731C24.4895 12.4731 25.2432 12.7752 25.7988 13.313C26.3545 13.8507 26.6666 14.5801 26.6666 15.3405C26.6666 16.9241 25.3401 18.2079 23.7037 18.2079C22.0673 18.2079 20.7407 16.9241 20.7407 15.3405ZM22.2222 15.3405C22.2222 16.1323 22.8855 16.7742 23.7037 16.7742C24.5219 16.7742 25.1852 16.1323 25.1852 15.3405C25.1852 14.5487 24.5219 13.9068 23.7037 13.9068C22.8855 13.9068 22.2222 14.5487 22.2222 15.3405Z" fill="#C5C6D5"/>
</svg>
